<svg width="42" height="42" viewBox="0 0 42 42" fill="none" xmlns="http://www.w3.org/2000/svg">
<g clip-path="url(#clip0_120_928)">
<path d="M42 21C42 9.40202 32.598 0 21 0C9.40202 0 0 9.40202 0 21C0 32.598 9.40202 42 21 42C32.598 42 42 32.598 42 21Z" fill="#FFA800"/>
<path fill-rule="evenodd" clip-rule="evenodd" d="M27.9107 18.6147C27.6902 20.1355 26.8957 21.056 25.5281 21.3745C26.4258 21.8382 27.0357 22.435 27.3568 23.1639C27.6788 23.8927 27.6465 24.8106 27.2606 25.9175C27.0594 26.4827 26.8012 26.9587 26.4845 27.3481C26.195 27.7139 25.835 28.0177 25.4257 28.2415C25.0381 28.4489 24.5831 28.5897 24.0625 28.6641C23.5427 28.7385 23.0125 28.7569 22.4726 28.7184C21.8595 28.67 21.25 28.5844 20.6474 28.462L19.8756 31.5814L17.9917 31.115L18.7512 28.0446C18.2534 27.9232 17.757 27.7963 17.262 27.664L16.4999 30.7466L14.616 30.2802L15.3869 27.1609C15.1669 27.106 14.9472 27.0497 14.728 26.992C14.4357 26.915 14.2117 26.8572 14.0569 26.8196L11.6104 26.2141L12.5431 24.0704L13.9011 24.4055C14.3089 24.5061 14.5967 24.3565 14.7647 23.9566L15.981 19.0391L16.1761 19.0881C16.1137 19.0626 16.0493 19.0421 15.9836 19.0269L16.8516 15.5164C16.8831 14.9362 16.5891 14.5687 15.9687 14.4156L14.6107 14.0796L15.1069 12.0732L17.6969 12.7269C18.2192 12.8564 18.6156 12.95 18.8869 13.0086L19.649 9.92599L21.5329 10.3915L20.7856 13.4129C21.4593 13.5616 21.9581 13.6771 22.2845 13.7576L23.0256 10.7607L24.9095 11.2262L24.1474 14.3089C24.7774 14.5259 25.3251 14.7586 25.7915 15.008C26.2449 15.2484 26.664 15.5486 27.0375 15.9005C27.3921 16.2303 27.6581 16.6441 27.811 17.1036C27.9615 17.5612 27.9947 18.0644 27.9107 18.6147ZM23.632 24.6312C23.7046 24.3372 23.7081 24.0616 23.6425 23.8026C23.5837 23.5595 23.4772 23.3305 23.3292 23.1289C23.1584 22.9124 22.9515 22.7271 22.7176 22.5811C22.4796 22.4225 22.2308 22.2807 21.973 22.1567C21.6875 22.027 21.394 21.9154 21.0945 21.8225C20.8189 21.7319 20.5405 21.6502 20.2597 21.5775C19.9965 21.513 19.7325 21.4518 19.4679 21.3937C19.2727 21.3515 19.0778 21.3078 18.8834 21.2625L17.8614 25.3977C17.9261 25.4135 18.0766 25.4529 18.312 25.5159C18.7206 25.6299 19.1337 25.7277 19.5501 25.809C20.0277 25.9132 20.5128 25.9791 21.0009 26.0059C21.2412 26.0228 21.4825 26.0216 21.7227 26.0024C21.9403 25.981 22.1559 25.943 22.3676 25.8886C22.5934 25.8326 22.785 25.7495 22.9407 25.641C23.0982 25.5334 23.2382 25.3942 23.3616 25.2262C23.4859 25.0582 23.576 24.8587 23.6329 24.6312H23.632ZM24.227 17.8404C24.2775 18.0899 24.2697 18.3477 24.2042 18.5937C24.1474 18.8212 24.059 19.0207 23.9391 19.1905C23.8248 19.3552 23.6715 19.489 23.4929 19.5799C23.3213 19.6675 23.1428 19.7407 22.9591 19.7986C22.7806 19.8537 22.5636 19.88 22.309 19.8774C22.0552 19.8756 21.8339 19.8686 21.6457 19.8564C21.414 19.8385 21.1837 19.8055 20.9562 19.7575C20.685 19.7032 20.4785 19.6612 20.3385 19.6306C20.1985 19.6 20.0095 19.5536 19.7697 19.4897C19.6299 19.4523 19.4899 19.4156 19.3497 19.3795L20.2781 15.624C20.6602 15.7146 21.0429 15.8027 21.4261 15.8882C21.6028 15.9276 21.8374 15.9967 22.1287 16.0947C22.4201 16.1927 22.6625 16.2872 22.8567 16.3782C23.0501 16.4692 23.2575 16.5926 23.4797 16.7466C23.7011 16.9006 23.8682 17.0634 23.982 17.234C24.0957 17.4055 24.1771 17.6067 24.227 17.8404Z" fill="white"/>
</g>
<defs>
<clipPath id="clip0_120_928">
<rect width="42" height="42" fill="white"/>
</clipPath>
</defs>
</svg>
