<svg width="58" height="58" viewBox="0 0 58 58" fill="none" xmlns="http://www.w3.org/2000/svg">
<path d="M29 58C45.0163 58 58 45.0163 58 29C58 12.9837 45.0163 0 29 0C12.9837 0 0 12.9837 0 29C0 45.0163 12.9837 58 29 58Z" fill="#627EEA"/>
<path fill-rule="evenodd" clip-rule="evenodd" d="M29 15.5789C25.4792 15.5789 22.625 17.9825 22.625 20.9474C22.625 23.9123 25.4792 26.3158 29 26.3158C32.5208 26.3158 35.375 23.9123 35.375 20.9474C35.375 17.9825 32.5208 15.5789 29 15.5789ZM18.375 20.9474C18.375 16.0059 23.132 12 29 12C34.868 12 39.625 16.0059 39.625 20.9474C39.625 25.8889 34.868 29.8947 29 29.8947C23.132 29.8947 18.375 25.8889 18.375 20.9474ZM19.3442 36.5631C17.1039 37.4008 16.25 38.4588 16.25 39.7368C16.25 40.1371 16.3345 40.3635 16.4567 40.5277C16.579 40.692 16.8708 40.9702 17.6572 41.2698C19.3379 41.9102 22.6592 42.4211 29 42.4211C35.3408 42.4211 38.6621 41.9102 40.3428 41.2698C41.1292 40.9702 41.421 40.692 41.5433 40.5277C41.6655 40.3635 41.75 40.1371 41.75 39.7368C41.75 38.4588 40.8961 37.4008 38.6558 36.5631C36.3555 35.703 32.9783 35.2632 29 35.2632C25.0217 35.2632 21.6445 35.703 19.3442 36.5631ZM17.6194 33.2922C20.7028 32.1391 24.7631 31.6842 29 31.6842C33.2369 31.6842 37.2972 32.1391 40.3806 33.2922C43.524 34.4676 46 36.5412 46 39.7368C46 40.572 45.8189 41.5224 45.1442 42.4287C44.4696 43.3348 43.4333 44.0206 42.0947 44.5306C39.5254 45.5094 35.4092 46 29 46C22.5908 46 18.4746 45.5094 15.9053 44.5306C14.5667 44.0206 13.5304 43.3348 12.8558 42.4287C12.1811 41.5224 12 40.572 12 39.7368C12 36.5412 14.476 34.4676 17.6194 33.2922Z" fill="white"/>
</svg>
