<svg width="261" height="91" viewBox="0 0 261 91" fill="none" xmlns="http://www.w3.org/2000/svg">
<g filter="url(#filter0_i_120_895)">
<rect x="2.40332" y="1.87268" width="256.36" height="86.7814" rx="13.5" stroke="url(#paint0_linear_120_895)" stroke-width="3"/>
</g>
<path d="M138.392 32.4051H133.683V17.8596H138.541C139.967 17.8596 141.191 18.1508 142.213 18.7332C143.236 19.3109 144.02 20.1418 144.564 21.2261C145.113 22.3057 145.388 23.6006 145.388 25.1111C145.388 26.6262 145.111 27.9283 144.557 29.0173C144.008 30.1063 143.212 30.9444 142.171 31.5315C141.129 32.1139 139.87 32.4051 138.392 32.4051ZM135.878 30.4875H138.272C139.379 30.4875 140.3 30.2791 141.034 29.8625C141.768 29.4411 142.317 28.8326 142.682 28.0372C143.047 27.237 143.229 26.2616 143.229 25.1111C143.229 23.97 143.047 23.0017 142.682 22.2062C142.322 21.4108 141.785 20.8071 141.07 20.3951C140.355 19.9832 139.467 19.7772 138.406 19.7772H135.878V30.4875ZM152.142 32.6253C151.119 32.6253 150.227 32.3909 149.464 31.9221C148.702 31.4534 148.11 30.7976 147.689 29.9548C147.267 29.112 147.057 28.1272 147.057 27.0003C147.057 25.8686 147.267 24.879 147.689 24.0315C148.11 23.184 148.702 22.5258 149.464 22.0571C150.227 21.5883 151.119 21.354 152.142 21.354C153.164 21.354 154.057 21.5883 154.819 22.0571C155.582 22.5258 156.173 23.184 156.595 24.0315C157.016 24.879 157.227 25.8686 157.227 27.0003C157.227 28.1272 157.016 29.112 156.595 29.9548C156.173 30.7976 155.582 31.4534 154.819 31.9221C154.057 32.3909 153.164 32.6253 152.142 32.6253ZM152.149 30.8426C152.812 30.8426 153.361 30.6674 153.797 30.317C154.232 29.9666 154.554 29.5003 154.763 28.9179C154.976 28.3355 155.082 27.6939 155.082 26.9932C155.082 26.2971 154.976 25.6579 154.763 25.0755C154.554 24.4884 154.232 24.0173 153.797 23.6622C153.361 23.3071 152.812 23.1295 152.149 23.1295C151.481 23.1295 150.927 23.3071 150.487 23.6622C150.051 24.0173 149.727 24.4884 149.514 25.0755C149.306 25.6579 149.201 26.2971 149.201 26.9932C149.201 27.6939 149.306 28.3355 149.514 28.9179C149.727 29.5003 150.051 29.9666 150.487 30.317C150.927 30.6674 151.481 30.8426 152.149 30.8426ZM161.23 32.4051L158.02 21.496H160.215L162.353 29.5074H162.459L164.604 21.496H166.799L168.929 29.4719H169.036L171.159 21.496H173.354L170.151 32.4051H167.985L165.769 24.5287H165.605L163.389 32.4051H161.23ZM177.093 25.9278V32.4051H174.969V21.496H177.008V23.2716H177.143C177.393 22.6939 177.786 22.2299 178.322 21.8795C178.861 21.5291 179.541 21.354 180.36 21.354C181.103 21.354 181.754 21.5102 182.313 21.8227C182.872 22.1305 183.305 22.5897 183.613 23.2005C183.92 23.8113 184.074 24.5665 184.074 25.4662V32.4051H181.951V25.7219C181.951 24.9311 181.745 24.3132 181.333 23.8682C180.921 23.4183 180.355 23.1934 179.635 23.1934C179.143 23.1934 178.705 23.3 178.322 23.513C177.943 23.7261 177.642 24.0386 177.42 24.4505C177.202 24.8577 177.093 25.3502 177.093 25.9278ZM188.646 17.8596V32.4051H186.522V17.8596H188.646ZM195.698 32.6253C194.675 32.6253 193.783 32.3909 193.02 31.9221C192.258 31.4534 191.666 30.7976 191.245 29.9548C190.823 29.112 190.613 28.1272 190.613 27.0003C190.613 25.8686 190.823 24.879 191.245 24.0315C191.666 23.184 192.258 22.5258 193.02 22.0571C193.783 21.5883 194.675 21.354 195.698 21.354C196.721 21.354 197.613 21.5883 198.376 22.0571C199.138 22.5258 199.73 23.184 200.151 24.0315C200.573 24.879 200.783 25.8686 200.783 27.0003C200.783 28.1272 200.573 29.112 200.151 29.9548C199.73 30.7976 199.138 31.4534 198.376 31.9221C197.613 32.3909 196.721 32.6253 195.698 32.6253ZM195.705 30.8426C196.368 30.8426 196.917 30.6674 197.353 30.317C197.788 29.9666 198.11 29.5003 198.319 28.9179C198.532 28.3355 198.638 27.6939 198.638 26.9932C198.638 26.2971 198.532 25.6579 198.319 25.0755C198.11 24.4884 197.788 24.0173 197.353 23.6622C196.917 23.3071 196.368 23.1295 195.705 23.1295C195.038 23.1295 194.484 23.3071 194.043 23.6622C193.608 24.0173 193.283 24.4884 193.07 25.0755C192.862 25.6579 192.758 26.2971 192.758 26.9932C192.758 27.6939 192.862 28.3355 193.07 28.9179C193.283 29.5003 193.608 29.9666 194.043 30.317C194.484 30.6674 195.038 30.8426 195.705 30.8426ZM205.928 32.6466C205.237 32.6466 204.612 32.5187 204.053 32.263C203.495 32.0026 203.052 31.6262 202.725 31.1338C202.403 30.6414 202.242 30.0377 202.242 29.3227C202.242 28.7072 202.361 28.2005 202.597 27.8028C202.834 27.4051 203.154 27.0902 203.556 26.8582C203.959 26.6262 204.408 26.451 204.906 26.3326C205.403 26.2143 205.909 26.1243 206.426 26.0628C207.079 25.987 207.609 25.9254 208.016 25.8781C208.424 25.826 208.72 25.7432 208.904 25.6295C209.089 25.5159 209.181 25.3312 209.181 25.0755V25.0258C209.181 24.4056 209.006 23.925 208.656 23.5841C208.31 23.2432 207.794 23.0727 207.107 23.0727C206.392 23.0727 205.829 23.2313 205.417 23.5486C205.01 23.8611 204.728 24.2091 204.572 24.5926L202.576 24.138C202.813 23.4752 203.158 22.9401 203.613 22.5329C204.072 22.121 204.6 21.8227 205.197 21.638C205.793 21.4487 206.421 21.354 207.079 21.354C207.515 21.354 207.976 21.406 208.464 21.5102C208.956 21.6096 209.416 21.7943 209.842 22.0642C210.273 22.3341 210.625 22.72 210.9 23.2219C211.175 23.719 211.312 24.3653 211.312 25.1608V32.4051H209.238V30.9136H209.153C209.015 31.1882 208.81 31.4581 208.535 31.7233C208.26 31.9884 207.908 32.2086 207.477 32.3838C207.046 32.559 206.53 32.6466 205.928 32.6466ZM206.39 30.942C206.977 30.942 207.479 30.826 207.896 30.594C208.317 30.362 208.637 30.059 208.854 29.6849C209.077 29.3061 209.188 28.9013 209.188 28.4704V27.0642C209.113 27.1399 208.966 27.211 208.748 27.2772C208.535 27.3388 208.291 27.3933 208.016 27.4406C207.742 27.4832 207.474 27.5235 207.214 27.5613C206.953 27.5945 206.736 27.6229 206.56 27.6466C206.149 27.6987 205.772 27.7862 205.431 27.9094C205.095 28.0325 204.825 28.21 204.622 28.442C204.423 28.6693 204.323 28.9723 204.323 29.3511C204.323 29.8767 204.517 30.2744 204.906 30.5443C205.294 30.8094 205.789 30.942 206.39 30.942ZM217.824 32.6182C216.943 32.6182 216.157 32.3933 215.466 31.9434C214.78 31.4889 214.24 30.8426 213.847 30.0045C213.459 29.1617 213.264 28.1508 213.264 26.9719C213.264 25.7929 213.461 24.7844 213.854 23.9463C214.252 23.1082 214.796 22.4666 215.488 22.0216C216.179 21.5765 216.962 21.354 217.838 21.354C218.515 21.354 219.06 21.4676 219.472 21.6949C219.889 21.9174 220.211 22.1778 220.438 22.4761C220.67 22.7744 220.85 23.0372 220.978 23.2645H221.105V17.8596H223.229V32.4051H221.155V30.7076H220.978C220.85 30.9397 220.665 31.2048 220.424 31.5031C220.187 31.8014 219.86 32.0618 219.443 32.2844C219.027 32.5069 218.487 32.6182 217.824 32.6182ZM218.293 30.8071C218.904 30.8071 219.42 30.6461 219.841 30.3241C220.267 29.9974 220.589 29.5452 220.807 28.9676C221.03 28.3899 221.141 27.7176 221.141 26.9505C221.141 26.193 221.032 25.5301 220.814 24.9619C220.596 24.3937 220.277 23.951 219.855 23.6338C219.434 23.3165 218.913 23.1579 218.293 23.1579C217.654 23.1579 217.121 23.3237 216.695 23.6551C216.269 23.9865 215.947 24.4387 215.729 25.0116C215.516 25.5845 215.409 26.2308 215.409 26.9505C215.409 27.6797 215.518 28.3355 215.736 28.9179C215.954 29.5003 216.276 29.9619 216.702 30.3028C217.133 30.639 217.663 30.8071 218.293 30.8071ZM137.174 65.4051H132.98L142.402 39.2233H146.966L156.388 65.4051H152.195L144.793 43.979H144.588L137.174 65.4051ZM137.877 55.1522H151.479V58.4761H137.877V55.1522ZM159.449 65.4051V39.2233H168.781C170.818 39.2233 172.506 39.594 173.844 40.3355C175.182 41.077 176.183 42.0912 176.848 43.3781C177.513 44.6565 177.845 46.0969 177.845 47.6991C177.845 49.3099 177.509 50.7588 176.835 52.0457C176.17 53.3241 175.165 54.3383 173.818 55.0883C172.48 55.8298 170.797 56.2005 168.769 56.2005H162.351V52.8511H168.411C169.697 52.8511 170.742 52.6295 171.543 52.1863C172.344 51.7346 172.932 51.121 173.307 50.3454C173.682 49.5699 173.869 48.6878 173.869 47.6991C173.869 46.7105 173.682 45.8326 173.307 45.0656C172.932 44.2986 172.34 43.6977 171.53 43.263C170.729 42.8284 169.672 42.6111 168.359 42.6111H163.399V65.4051H159.449ZM181.756 65.4051V39.2233H185.707V51.7261H186.026L197.008 39.2233H201.981L191.421 51.0102L202.019 65.4051H197.263L188.8 53.7076L185.707 57.2616V65.4051H181.756Z" fill="url(#paint1_linear_120_895)"/>
<path d="M133.683 32.4051H132.683V33.4051H133.683V32.4051ZM133.683 17.8596V16.8596H132.683V17.8596H133.683ZM142.213 18.7332L141.718 19.6022L141.721 19.6039L142.213 18.7332ZM144.564 21.2261L143.67 21.6749L143.673 21.6796L144.564 21.2261ZM144.557 29.0173L143.666 28.5639L143.664 28.567L144.557 29.0173ZM142.171 31.5315L142.659 32.4044L142.662 32.4027L142.171 31.5315ZM135.878 30.4875H134.878V31.4875H135.878V30.4875ZM141.034 29.8625L141.528 30.7321L141.532 30.7297L141.034 29.8625ZM142.682 28.0372L143.591 28.4538L143.592 28.4518L142.682 28.0372ZM142.682 22.2062L141.771 22.6184L141.773 22.6229L142.682 22.2062ZM141.07 20.3951L140.571 21.2616L141.07 20.3951ZM135.878 19.7772V18.7772H134.878V19.7772H135.878ZM138.392 31.4051H133.683V33.4051H138.392V31.4051ZM134.683 32.4051V17.8596H132.683V32.4051H134.683ZM133.683 18.8596H138.541V16.8596H133.683V18.8596ZM138.541 18.8596C139.83 18.8596 140.875 19.1221 141.718 19.6022L142.708 17.8642C141.506 17.1796 140.104 16.8596 138.541 16.8596V18.8596ZM141.721 19.6039C142.565 20.0806 143.212 20.7618 143.67 21.6749L145.458 20.7773C144.827 19.5218 143.907 18.5411 142.705 17.8625L141.721 19.6039ZM143.673 21.6796C144.135 22.5882 144.388 23.7201 144.388 25.1111H146.388C146.388 23.4811 146.092 22.0231 145.455 20.7727L143.673 21.6796ZM144.388 25.1111C144.388 26.5057 144.133 27.6451 143.666 28.5639L145.448 29.4707C146.089 28.2115 146.388 26.7467 146.388 25.1111H144.388ZM143.664 28.567C143.202 29.4828 142.545 30.1726 141.68 30.6604L142.662 32.4027C143.88 31.7161 144.813 30.7299 145.45 29.4676L143.664 28.567ZM141.683 30.6587C140.822 31.14 139.739 31.4051 138.392 31.4051V33.4051C140 33.4051 141.436 33.0877 142.659 32.4044L141.683 30.6587ZM135.878 31.4875H138.272V29.4875H135.878V31.4875ZM138.272 31.4875C139.5 31.4875 140.604 31.2569 141.528 30.7321L140.541 28.9929C139.997 29.3014 139.259 29.4875 138.272 29.4875V31.4875ZM141.532 30.7297C142.453 30.2009 143.143 29.4318 143.591 28.4538L141.773 27.6205C141.492 28.2335 141.083 28.6813 140.536 28.9953L141.532 30.7297ZM143.592 28.4518C144.031 27.4878 144.229 26.3625 144.229 25.1111H142.229C142.229 26.1608 142.062 26.9862 141.772 27.6226L143.592 28.4518ZM144.229 25.1111C144.229 23.868 144.031 22.7491 143.591 21.7896L141.773 22.6229C142.062 23.2542 142.229 24.0719 142.229 25.1111H144.229ZM143.593 21.7941C143.152 20.8195 142.476 20.0514 141.569 19.5287L140.571 21.2616C141.093 21.5627 141.492 22.002 141.771 22.6184L143.593 21.7941ZM141.569 19.5287C140.665 19.0077 139.593 18.7772 138.406 18.7772V20.7772C139.341 20.7772 140.045 20.9587 140.571 21.2616L141.569 19.5287ZM138.406 18.7772H135.878V20.7772H138.406V18.7772ZM134.878 19.7772V30.4875H136.878V19.7772H134.878ZM147.689 29.9548L148.583 29.5076L147.689 29.9548ZM149.464 22.0571L149.988 22.9089V22.9089L149.464 22.0571ZM154.819 22.0571L154.296 22.9089V22.9089L154.819 22.0571ZM156.595 29.9548L155.7 29.5076L156.595 29.9548ZM154.819 31.9221L155.343 32.774L154.819 31.9221ZM153.797 30.317L153.17 29.5378L153.797 30.317ZM154.763 28.9179L153.823 28.5743L153.821 28.5811L154.763 28.9179ZM154.763 25.0755L153.82 25.41L153.823 25.4191L154.763 25.0755ZM153.797 23.6622L153.165 24.4373L153.797 23.6622ZM150.487 23.6622L149.859 22.8838L149.855 22.8871L150.487 23.6622ZM149.514 25.0755L148.574 24.7344L148.572 24.7387L149.514 25.0755ZM149.514 28.9179L148.572 29.2547L148.575 29.2615L149.514 28.9179ZM150.487 30.317L149.86 31.0962L149.864 31.0995L150.487 30.317ZM152.142 31.6253C151.277 31.6253 150.571 31.4289 149.988 31.0703L148.94 32.774C149.882 33.3528 150.961 33.6253 152.142 33.6253V31.6253ZM149.988 31.0703C149.393 30.7045 148.926 30.1928 148.583 29.5076L146.794 30.402C147.294 31.4024 148.011 32.2023 148.94 32.774L149.988 31.0703ZM148.583 29.5076C148.243 28.8283 148.057 28.002 148.057 27.0003H146.057C146.057 28.2523 146.291 29.3957 146.794 30.402L148.583 29.5076ZM148.057 27.0003C148.057 25.9932 148.244 25.1614 148.584 24.4767L146.793 23.5863C146.291 24.5967 146.057 25.7441 146.057 27.0003H148.057ZM148.584 24.4767C148.927 23.7867 149.395 23.2738 149.988 22.9089L148.94 21.2052C148.009 21.7778 147.293 22.5812 146.793 23.5863L148.584 24.4767ZM149.988 22.9089C150.571 22.5503 151.277 22.354 152.142 22.354V20.354C150.961 20.354 149.882 20.6264 148.94 21.2052L149.988 22.9089ZM152.142 22.354C153.007 22.354 153.712 22.5503 154.296 22.9089L155.343 21.2052C154.402 20.6264 153.322 20.354 152.142 20.354V22.354ZM154.296 22.9089C154.889 23.2738 155.356 23.7867 155.699 24.4767L157.49 23.5863C156.991 22.5812 156.274 21.7778 155.343 21.2052L154.296 22.9089ZM155.699 24.4767C156.04 25.1614 156.227 25.9932 156.227 27.0003H158.227C158.227 25.7441 157.993 24.5967 157.49 23.5863L155.699 24.4767ZM156.227 27.0003C156.227 28.002 156.04 28.8283 155.7 29.5076L157.489 30.402C157.992 29.3957 158.227 28.2523 158.227 27.0003H156.227ZM155.7 29.5076C155.358 30.1928 154.89 30.7045 154.296 31.0703L155.343 32.774C156.273 32.2023 156.989 31.4024 157.489 30.402L155.7 29.5076ZM154.296 31.0703C153.712 31.4289 153.007 31.6253 152.142 31.6253V33.6253C153.322 33.6253 154.402 33.3528 155.343 32.774L154.296 31.0703ZM152.149 31.8426C152.996 31.8426 153.779 31.6149 154.423 31.0962L153.17 29.5378C152.943 29.7199 152.628 29.8426 152.149 29.8426V31.8426ZM154.423 31.0962C155.018 30.6182 155.44 29.9917 155.704 29.2547L153.821 28.5811C153.668 29.0088 153.447 29.3151 153.17 29.5378L154.423 31.0962ZM155.702 29.2615C155.96 28.5557 156.082 27.796 156.082 26.9932H154.082C154.082 27.5918 153.991 28.1153 153.823 28.5743L155.702 29.2615ZM156.082 26.9932C156.082 26.1942 155.96 25.437 155.702 24.732L153.823 25.4191C153.992 25.8788 154.082 26.4001 154.082 26.9932H156.082ZM155.705 24.7411C155.442 24.0007 155.021 23.3702 154.428 22.8871L153.165 24.4373C153.443 24.6644 153.666 24.9761 153.82 25.41L155.705 24.7411ZM154.428 22.8871C153.784 22.3614 152.999 22.1295 152.149 22.1295V24.1295C152.625 24.1295 152.938 24.2528 153.165 24.4373L154.428 22.8871ZM152.149 22.1295C151.296 22.1295 150.508 22.3605 149.859 22.8838L151.115 24.4406C151.346 24.2537 151.667 24.1295 152.149 24.1295V22.1295ZM149.855 22.8871C149.264 23.3688 148.842 23.9969 148.574 24.7344L150.454 25.4167C150.612 24.98 150.838 24.6658 151.119 24.4373L149.855 22.8871ZM148.572 24.7387C148.321 25.4418 148.201 26.1966 148.201 26.9932H150.201C150.201 26.3977 150.29 25.874 150.455 25.4124L148.572 24.7387ZM148.201 26.9932C148.201 27.7936 148.321 28.5509 148.572 29.2547L150.455 28.5811C150.291 28.1201 150.201 27.5942 150.201 26.9932H148.201ZM148.575 29.2615C148.843 29.9956 149.268 30.6196 149.86 31.0962L151.114 29.5378C150.835 29.3137 150.611 29.005 150.453 28.5743L148.575 29.2615ZM149.864 31.0995C150.513 31.6158 151.299 31.8426 152.149 31.8426V29.8426C151.664 29.8426 151.341 29.719 151.11 29.5345L149.864 31.0995ZM161.23 32.4051L160.271 32.6874L160.482 33.4051H161.23V32.4051ZM158.02 21.496V20.496H156.684L157.061 21.7783L158.02 21.496ZM160.215 21.496L161.181 21.2382L160.983 20.496H160.215V21.496ZM162.353 29.5074L161.386 29.7652L161.584 30.5074H162.353V29.5074ZM162.459 29.5074V30.5074H163.227L163.425 29.766L162.459 29.5074ZM164.604 21.496V20.496H163.836L163.638 21.2374L164.604 21.496ZM166.799 21.496L167.765 21.2379L167.567 20.496H166.799V21.496ZM168.929 29.4719L167.963 29.7299L168.161 30.4719H168.929V29.4719ZM169.036 29.4719V30.4719H169.804L170.002 29.7291L169.036 29.4719ZM171.159 21.496V20.496H170.391L170.193 21.2387L171.159 21.496ZM173.354 21.496L174.313 21.7777L174.69 20.496H173.354V21.496ZM170.151 32.4051V33.4051H170.899L171.11 32.6868L170.151 32.4051ZM167.985 32.4051L167.022 32.6759L167.227 33.4051H167.985V32.4051ZM165.769 24.5287L166.731 24.2578L166.526 23.5287H165.769V24.5287ZM165.605 24.5287V23.5287H164.848L164.643 24.2578L165.605 24.5287ZM163.389 32.4051V33.4051H164.147L164.352 32.6759L163.389 32.4051ZM162.19 32.1228L158.98 21.2137L157.061 21.7783L160.271 32.6874L162.19 32.1228ZM158.02 22.496H160.215V20.496H158.02V22.496ZM159.249 21.7538L161.386 29.7652L163.319 29.2495L161.181 21.2382L159.249 21.7538ZM162.353 30.5074H162.459V28.5074H162.353V30.5074ZM163.425 29.766L165.57 21.7546L163.638 21.2374L161.493 29.2487L163.425 29.766ZM164.604 22.496H166.799V20.496H164.604V22.496ZM165.832 21.7541L167.963 29.7299L169.895 29.2138L167.765 21.2379L165.832 21.7541ZM168.929 30.4719H169.036V28.4719H168.929V30.4719ZM170.002 29.7291L172.126 21.7533L170.193 21.2387L168.069 29.2146L170.002 29.7291ZM171.159 22.496H173.354V20.496H171.159V22.496ZM172.394 21.2143L169.191 32.1234L171.11 32.6868L174.313 21.7777L172.394 21.2143ZM170.151 31.4051H167.985V33.4051H170.151V31.4051ZM168.947 32.1343L166.731 24.2578L164.806 24.7995L167.022 32.6759L168.947 32.1343ZM165.769 23.5287H165.605V25.5287H165.769V23.5287ZM164.643 24.2578L162.427 32.1343L164.352 32.6759L166.568 24.7995L164.643 24.2578ZM163.389 31.4051H161.23V33.4051H163.389V31.4051ZM177.093 32.4051V33.4051H178.093V32.4051H177.093ZM174.969 32.4051H173.969V33.4051H174.969V32.4051ZM174.969 21.496V20.496H173.969V21.496H174.969ZM177.008 21.496H178.008V20.496H177.008V21.496ZM177.008 23.2716H176.008V24.2716H177.008V23.2716ZM177.143 23.2716V24.2716H177.798L178.06 23.67L177.143 23.2716ZM178.322 21.8795L177.777 21.0407L177.774 21.0429L178.322 21.8795ZM182.313 21.8227L181.825 22.6955L181.831 22.6986L182.313 21.8227ZM183.613 23.2005L182.72 23.6505L182.72 23.6505L183.613 23.2005ZM184.074 32.4051V33.4051H185.074V32.4051H184.074ZM181.951 32.4051H180.951V33.4051H181.951V32.4051ZM181.333 23.8682L180.595 24.5435L180.599 24.5474L181.333 23.8682ZM178.322 23.513L177.836 22.6389L177.831 22.6415L178.322 23.513ZM177.42 24.4505L176.54 23.9752L176.538 23.9789L177.42 24.4505ZM176.093 25.9278V32.4051H178.093V25.9278H176.093ZM177.093 31.4051H174.969V33.4051H177.093V31.4051ZM175.969 32.4051V21.496H173.969V32.4051H175.969ZM174.969 22.496H177.008V20.496H174.969V22.496ZM176.008 21.496V23.2716H178.008V21.496H176.008ZM177.008 24.2716H177.143V22.2716H177.008V24.2716ZM178.06 23.67C178.232 23.2742 178.495 22.9614 178.869 22.7161L177.774 21.0429C177.078 21.4985 176.555 22.1136 176.225 22.8731L178.06 23.67ZM178.866 22.7183C179.205 22.4984 179.682 22.354 180.36 22.354V20.354C179.4 20.354 178.518 20.5599 177.777 21.0407L178.866 22.7183ZM180.36 22.354C180.96 22.354 181.438 22.479 181.825 22.6955L182.801 20.9499C182.071 20.5414 181.246 20.354 180.36 20.354V22.354ZM181.831 22.6986C182.2 22.9019 182.496 23.2062 182.72 23.6505L184.506 22.7506C184.114 21.9733 183.544 21.359 182.795 20.9468L181.831 22.6986ZM182.72 23.6505C182.939 24.0848 183.074 24.6755 183.074 25.4662H185.074C185.074 24.4576 184.902 23.5378 184.506 22.7506L182.72 23.6505ZM183.074 25.4662V32.4051H185.074V25.4662H183.074ZM184.074 31.4051H181.951V33.4051H184.074V31.4051ZM182.951 32.4051V25.7219H180.951V32.4051H182.951ZM182.951 25.7219C182.951 24.758 182.697 23.8695 182.067 23.1889L180.599 24.5474C180.793 24.757 180.951 25.1042 180.951 25.7219H182.951ZM182.07 23.1928C181.435 22.4987 180.581 22.1934 179.635 22.1934V24.1934C180.13 24.1934 180.407 24.338 180.595 24.5435L182.07 23.1928ZM179.635 22.1934C178.994 22.1934 178.385 22.3336 177.836 22.6389L178.807 24.3872C179.025 24.2664 179.292 24.1934 179.635 24.1934V22.1934ZM177.831 22.6415C177.275 22.9544 176.845 23.4105 176.54 23.9752L178.299 24.9258C178.439 24.6668 178.61 24.4979 178.812 24.3846L177.831 22.6415ZM176.538 23.9789C176.225 24.5632 176.093 25.2261 176.093 25.9278H178.093C178.093 25.4742 178.178 25.1523 178.301 24.9222L176.538 23.9789ZM188.646 17.8596H189.646V16.8596H188.646V17.8596ZM188.646 32.4051V33.4051H189.646V32.4051H188.646ZM186.522 32.4051H185.522V33.4051H186.522V32.4051ZM186.522 17.8596V16.8596H185.522V17.8596H186.522ZM187.646 17.8596V32.4051H189.646V17.8596H187.646ZM188.646 31.4051H186.522V33.4051H188.646V31.4051ZM187.522 32.4051V17.8596H185.522V32.4051H187.522ZM186.522 18.8596H188.646V16.8596H186.522V18.8596ZM191.245 29.9548L192.139 29.5076L191.245 29.9548ZM193.02 22.0571L193.544 22.9089V22.9089L193.02 22.0571ZM198.376 22.0571L197.852 22.9089V22.9089L198.376 22.0571ZM200.151 29.9548L199.257 29.5076L200.151 29.9548ZM198.376 31.9221L198.899 32.774L198.376 31.9221ZM197.353 30.317L196.726 29.5378L197.353 30.317ZM198.319 28.9179L197.38 28.5743L197.377 28.5811L198.319 28.9179ZM198.319 25.0755L197.376 25.41L197.38 25.4191L198.319 25.0755ZM197.353 23.6622L196.721 24.4373H196.721L197.353 23.6622ZM194.043 23.6622L193.415 22.8838L193.411 22.8871L194.043 23.6622ZM193.07 25.0755L192.13 24.7344L192.129 24.7387L193.07 25.0755ZM193.07 28.9179L192.129 29.2547L192.131 29.2615L193.07 28.9179ZM194.043 30.317L193.416 31.0962L193.421 31.0995L194.043 30.317ZM195.698 31.6253C194.833 31.6253 194.128 31.4289 193.544 31.0703L192.497 32.774C193.438 33.3528 194.517 33.6253 195.698 33.6253V31.6253ZM193.544 31.0703C192.949 30.7045 192.482 30.1928 192.139 29.5076L190.35 30.402C190.851 31.4024 191.567 32.2023 192.497 32.774L193.544 31.0703ZM192.139 29.5076C191.8 28.8283 191.613 28.002 191.613 27.0003H189.613C189.613 28.2523 189.847 29.3957 190.35 30.402L192.139 29.5076ZM191.613 27.0003C191.613 25.9932 191.8 25.1614 192.14 24.4767L190.349 23.5863C189.847 24.5967 189.613 25.7441 189.613 27.0003H191.613ZM192.14 24.4767C192.483 23.7867 192.951 23.2738 193.544 22.9089L192.497 21.2052C191.565 21.7778 190.849 22.5812 190.349 23.5863L192.14 24.4767ZM193.544 22.9089C194.128 22.5503 194.833 22.354 195.698 22.354V20.354C194.517 20.354 193.438 20.6264 192.497 21.2052L193.544 22.9089ZM195.698 22.354C196.563 22.354 197.269 22.5503 197.852 22.9089L198.899 21.2052C197.958 20.6264 196.879 20.354 195.698 20.354V22.354ZM197.852 22.9089C198.445 23.2738 198.913 23.7867 199.256 24.4767L201.047 23.5863C200.547 22.5812 199.831 21.7778 198.899 21.2052L197.852 22.9089ZM199.256 24.4767C199.596 25.1614 199.783 25.9932 199.783 27.0003H201.783C201.783 25.7441 201.549 24.5967 201.047 23.5863L199.256 24.4767ZM199.783 27.0003C199.783 28.002 199.596 28.8283 199.257 29.5076L201.046 30.402C201.549 29.3957 201.783 28.2523 201.783 27.0003H199.783ZM199.257 29.5076C198.914 30.1928 198.447 30.7045 197.852 31.0703L198.899 32.774C199.829 32.2023 200.545 31.4024 201.046 30.402L199.257 29.5076ZM197.852 31.0703C197.269 31.4289 196.563 31.6253 195.698 31.6253V33.6253C196.879 33.6253 197.958 33.3528 198.899 32.774L197.852 31.0703ZM195.705 31.8426C196.552 31.8426 197.335 31.6149 197.98 31.0962L196.726 29.5378C196.5 29.7199 196.184 29.8426 195.705 29.8426V31.8426ZM197.98 31.0962C198.574 30.6182 198.997 29.9917 199.26 29.2547L197.377 28.5811C197.224 29.0088 197.003 29.3151 196.726 29.5378L197.98 31.0962ZM199.258 29.2615C199.516 28.5557 199.638 27.796 199.638 26.9932H197.638C197.638 27.5918 197.548 28.1153 197.38 28.5743L199.258 29.2615ZM199.638 26.9932C199.638 26.1942 199.516 25.437 199.258 24.732L197.38 25.4191C197.548 25.8788 197.638 26.4001 197.638 26.9932H199.638ZM199.261 24.7411C198.998 24.0007 198.577 23.3702 197.985 22.8871L196.721 24.4373C197 24.6644 197.222 24.9761 197.376 25.41L199.261 24.7411ZM197.985 22.8871C197.34 22.3614 196.555 22.1295 195.705 22.1295V24.1295C196.181 24.1295 196.495 24.2528 196.721 24.4373L197.985 22.8871ZM195.705 22.1295C194.852 22.1295 194.064 22.3605 193.415 22.8838L194.671 24.4406C194.903 24.2537 195.223 24.1295 195.705 24.1295V22.1295ZM193.411 22.8871C192.82 23.3688 192.398 23.9969 192.13 24.7344L194.01 25.4167C194.169 24.98 194.395 24.6658 194.675 24.4373L193.411 22.8871ZM192.129 24.7387C191.877 25.4418 191.758 26.1966 191.758 26.9932H193.758C193.758 26.3977 193.847 25.874 194.012 25.4124L192.129 24.7387ZM191.758 26.9932C191.758 27.7936 191.877 28.5509 192.129 29.2547L194.012 28.5811C193.847 28.1201 193.758 27.5942 193.758 26.9932H191.758ZM192.131 29.2615C192.4 29.9956 192.824 30.6196 193.416 31.0962L194.67 29.5378C194.391 29.3137 194.167 29.005 194.009 28.5743L192.131 29.2615ZM193.421 31.0995C194.069 31.6158 194.855 31.8426 195.705 31.8426V29.8426C195.22 29.8426 194.898 29.719 194.666 29.5345L193.421 31.0995ZM204.053 32.263L203.631 33.1694L203.637 33.1724L204.053 32.263ZM202.725 31.1338L201.888 31.681L201.892 31.6866L202.725 31.1338ZM202.597 27.8028L203.457 28.3143L202.597 27.8028ZM203.556 26.8582L204.056 27.7246L203.556 26.8582ZM206.426 26.0628L206.31 25.0694L206.307 25.0698L206.426 26.0628ZM208.016 25.8781L208.132 26.8715L208.143 26.87L208.016 25.8781ZM208.904 25.6295L209.428 26.4812L208.904 25.6295ZM208.656 23.5841L207.953 24.2961L207.958 24.3008L208.656 23.5841ZM205.417 23.5486L206.026 24.3419L206.027 24.3408L205.417 23.5486ZM204.572 24.5926L204.35 25.5676L205.178 25.7562L205.498 24.9699L204.572 24.5926ZM202.576 24.138L201.634 23.8017L201.255 24.8628L202.354 25.1131L202.576 24.138ZM203.613 22.5329L204.28 23.2778L204.281 23.2774L203.613 22.5329ZM205.197 21.638L205.493 22.5934L205.499 22.5912L205.197 21.638ZM208.464 21.5102L208.255 22.4882L208.266 22.4904L208.464 21.5102ZM209.842 22.0642L209.307 22.909L209.311 22.9117L209.842 22.0642ZM210.9 23.2219L210.023 23.7019L210.025 23.7054L210.9 23.2219ZM211.312 32.4051V33.4051H212.312V32.4051H211.312ZM209.238 32.4051H208.238V33.4051H209.238V32.4051ZM209.238 30.9136H210.238V29.9136H209.238V30.9136ZM209.153 30.9136V29.9136H208.535L208.258 30.4664L209.153 30.9136ZM208.535 31.7233L207.84 31.0039L208.535 31.7233ZM207.477 32.3838L207.1 31.4574L207.477 32.3838ZM207.896 30.594L207.413 29.718L207.409 29.7203L207.896 30.594ZM208.854 29.6849L207.992 29.1784L207.99 29.1817L208.854 29.6849ZM209.188 27.0642H210.188V24.65L208.481 26.3571L209.188 27.0642ZM208.748 27.2772L209.025 28.238L209.032 28.236L209.039 28.2339L208.748 27.2772ZM208.016 27.4406L208.17 28.4288L208.178 28.4275L208.186 28.4261L208.016 27.4406ZM207.214 27.5613L207.34 28.5533L207.349 28.5522L207.358 28.5509L207.214 27.5613ZM206.56 27.6466L206.686 28.6387L206.694 28.6376L206.56 27.6466ZM205.431 27.9094L205.092 26.9688L205.087 26.9703L205.431 27.9094ZM204.622 28.442L203.87 27.7824L203.869 27.7835L204.622 28.442ZM204.906 30.5443L204.335 31.3654L204.342 31.3701L204.906 30.5443ZM205.928 31.6466C205.363 31.6466 204.882 31.5426 204.469 31.3537L203.637 33.1724C204.342 33.4949 205.111 33.6466 205.928 33.6466V31.6466ZM204.476 31.3567C204.076 31.1705 203.779 30.9132 203.559 30.5809L201.892 31.6866C202.325 32.3393 202.913 32.8347 203.631 33.1694L204.476 31.3567ZM203.562 30.5865C203.368 30.2889 203.242 29.8855 203.242 29.3227H201.242C201.242 30.1898 201.439 30.9939 201.888 31.681L203.562 30.5865ZM203.242 29.3227C203.242 28.8296 203.338 28.5143 203.457 28.3143L201.738 27.2913C201.384 27.8868 201.242 28.5847 201.242 29.3227H203.242ZM203.457 28.3143C203.605 28.0643 203.801 27.8714 204.056 27.7246L203.057 25.9919C202.507 26.3091 202.063 26.7459 201.738 27.2913L203.457 28.3143ZM204.056 27.7246C204.367 27.5454 204.725 27.4037 205.137 27.3055L204.674 25.3598C204.092 25.4984 203.551 25.7071 203.057 25.9919L204.056 27.7246ZM205.137 27.3055C205.596 27.1961 206.065 27.1128 206.544 27.0557L206.307 25.0698C205.754 25.1358 205.209 25.2324 204.674 25.3598L205.137 27.3055ZM206.541 27.0561C207.194 26.9803 207.725 26.9188 208.132 26.8714L207.901 24.8848C207.494 24.9321 206.964 24.9937 206.31 25.0694L206.541 27.0561ZM208.143 26.87C208.588 26.8132 209.057 26.7094 209.428 26.4812L208.38 24.7779C208.392 24.7703 208.367 24.788 208.274 24.8139C208.186 24.8387 208.06 24.8644 207.89 24.8862L208.143 26.87ZM209.428 26.4812C209.966 26.1503 210.181 25.6055 210.181 25.0755H208.181C208.181 25.0844 208.18 25.0343 208.218 24.9586C208.259 24.8757 208.322 24.8136 208.38 24.7779L209.428 26.4812ZM210.181 25.0755V25.0258H208.181V25.0755H210.181ZM210.181 25.0258C210.181 24.2122 209.946 23.444 209.353 22.8673L207.958 24.3008C208.066 24.406 208.181 24.5989 208.181 25.0258H210.181ZM209.358 22.8721C208.759 22.2817 207.947 22.0727 207.107 22.0727V24.0727C207.641 24.0727 207.861 24.2046 207.953 24.296L209.358 22.8721ZM207.107 22.0727C206.253 22.0727 205.449 22.2619 204.807 22.7563L206.027 24.3408C206.209 24.2008 206.532 24.0727 207.107 24.0727V22.0727ZM204.808 22.7552C204.294 23.1501 203.883 23.6323 203.646 24.2153L205.498 24.9699C205.573 24.7858 205.726 24.572 206.026 24.3419L204.808 22.7552ZM204.794 23.6176L202.798 23.163L202.354 25.1131L204.35 25.5676L204.794 23.6176ZM203.518 24.4744C203.707 23.9441 203.968 23.5578 204.28 23.2778L202.946 21.7881C202.349 22.3225 201.918 23.0062 201.634 23.8017L203.518 24.4744ZM204.281 23.2774C204.631 22.9629 205.032 22.7359 205.492 22.5933L204.901 20.6828C204.169 20.9095 203.513 21.2791 202.945 21.7885L204.281 23.2774ZM205.499 22.5912C205.993 22.4344 206.518 22.354 207.079 22.354V20.354C206.323 20.354 205.594 20.4629 204.894 20.6849L205.499 22.5912ZM207.079 22.354C207.435 22.354 207.826 22.3966 208.255 22.4881L208.673 20.5323C208.126 20.4155 207.594 20.354 207.079 20.354V22.354ZM208.266 22.4904C208.638 22.5656 208.983 22.7042 209.307 22.909L210.377 21.2194C209.848 20.8844 209.274 20.6537 208.662 20.53L208.266 22.4904ZM209.311 22.9117C209.579 23.0798 209.82 23.3309 210.023 23.7019L211.777 22.7418C211.431 22.109 210.966 21.5883 210.373 21.2167L209.311 22.9117ZM210.025 23.7054C210.191 24.007 210.312 24.4703 210.312 25.1608H212.312C212.312 24.2603 212.158 23.431 211.775 22.7383L210.025 23.7054ZM210.312 25.1608V32.4051H212.312V25.1608H210.312ZM211.312 31.4051H209.238V33.4051H211.312V31.4051ZM210.238 32.4051V30.9136H208.238V32.4051H210.238ZM209.238 29.9136H209.153V31.9136H209.238V29.9136ZM208.258 30.4664C208.182 30.6184 208.052 30.7991 207.84 31.0039L209.229 32.4427C209.567 32.1172 209.849 31.7581 210.047 31.3608L208.258 30.4664ZM207.84 31.0039C207.675 31.1633 207.438 31.3201 207.1 31.4574L207.853 33.3101C208.377 33.0971 208.845 32.8135 209.229 32.4427L207.84 31.0039ZM207.1 31.4574C206.818 31.572 206.437 31.6466 205.928 31.6466V33.6466C206.623 33.6466 207.273 33.5459 207.853 33.3101L207.1 31.4574ZM206.39 31.942C207.108 31.942 207.786 31.7996 208.382 31.4677L207.409 29.7203C207.172 29.8524 206.846 29.942 206.39 29.942V31.942ZM208.378 31.47C208.94 31.1606 209.4 30.7357 209.719 30.1881L207.99 29.1817C207.874 29.3822 207.694 29.5634 207.413 29.718L208.378 31.47ZM209.717 30.1915C210.028 29.6623 210.188 29.083 210.188 28.4704H208.188C208.188 28.7196 208.126 28.95 207.992 29.1784L209.717 30.1915ZM210.188 28.4704V27.0642H208.188V28.4704H210.188ZM208.481 26.3571C208.501 26.3373 208.519 26.3219 208.533 26.3105C208.547 26.2991 208.559 26.2909 208.568 26.2853C208.584 26.2747 208.591 26.2715 208.586 26.2741C208.581 26.2765 208.568 26.2823 208.546 26.2908C208.523 26.2992 208.494 26.3093 208.457 26.3206L209.039 28.2339C209.275 28.1622 209.632 28.0346 209.895 27.7713L208.481 26.3571ZM208.47 26.3165C208.3 26.3657 208.094 26.4125 207.847 26.4551L208.186 28.4261C208.489 28.374 208.769 28.3119 209.025 28.238L208.47 26.3165ZM207.863 26.4524C207.591 26.4946 207.327 26.5344 207.07 26.5718L207.358 28.5509C207.622 28.5126 207.892 28.4718 208.17 28.4288L207.863 26.4524ZM207.088 26.5693C206.826 26.6027 206.605 26.6314 206.427 26.6556L206.694 28.6376C206.866 28.6144 207.081 28.5863 207.34 28.5533L207.088 26.5693ZM206.435 26.6545C205.96 26.7145 205.511 26.8174 205.092 26.9688L205.771 28.8499C206.033 28.7551 206.337 28.6828 206.686 28.6387L206.435 26.6545ZM205.087 26.9703C204.619 27.1417 204.2 27.4058 203.87 27.7824L205.373 29.1016C205.45 29.0142 205.571 28.9232 205.775 28.8484L205.087 26.9703ZM203.869 27.7835C203.473 28.2359 203.323 28.7938 203.323 29.3511H205.323C205.323 29.1508 205.372 29.1027 205.374 29.1005L203.869 27.7835ZM203.323 29.3511C203.323 30.1615 203.645 30.8855 204.335 31.3654L205.476 29.7232C205.39 29.6633 205.323 29.5918 205.323 29.3511H203.323ZM204.342 31.3701C204.937 31.7767 205.643 31.942 206.39 31.942V29.942C205.934 29.942 205.651 29.8422 205.47 29.7185L204.342 31.3701ZM215.466 31.9434L214.914 32.7773L214.921 32.7816L215.466 31.9434ZM213.847 30.0045L212.939 30.4229L212.941 30.4291L213.847 30.0045ZM213.854 23.9463L212.951 23.5175L212.949 23.5217L213.854 23.9463ZM215.488 22.0216L216.029 22.8624L215.488 22.0216ZM219.472 21.6949L218.989 22.5705L219.001 22.5769L219.472 21.6949ZM220.438 22.4761L219.642 23.0822L219.648 23.0901L220.438 22.4761ZM220.978 23.2645L220.106 23.7547L220.393 24.2645H220.978V23.2645ZM221.105 23.2645V24.2645H222.105V23.2645H221.105ZM221.105 17.8596V16.8596H220.105V17.8596H221.105ZM223.229 17.8596H224.229V16.8596H223.229V17.8596ZM223.229 32.4051V33.4051H224.229V32.4051H223.229ZM221.155 32.4051H220.155V33.4051H221.155V32.4051ZM221.155 30.7076H222.155V29.7076H221.155V30.7076ZM220.978 30.7076V29.7076H220.387L220.102 30.225L220.978 30.7076ZM220.424 31.5031L219.646 30.8739L219.64 30.8814L220.424 31.5031ZM219.841 30.3241L220.448 31.1187L220.45 31.1177L219.841 30.3241ZM220.807 28.9676L219.874 28.6081L219.871 28.6148L220.807 28.9676ZM220.814 24.9619L219.88 25.3198L220.814 24.9619ZM219.855 23.6338L219.254 24.4327L219.855 23.6338ZM216.695 23.6551L217.309 24.4444L216.695 23.6551ZM215.729 25.0116L214.794 24.6563L214.792 24.663L215.729 25.0116ZM215.736 28.9179L216.673 28.5676L215.736 28.9179ZM216.702 30.3028L216.077 31.0837L216.087 31.0912L216.702 30.3028ZM217.824 31.6182C217.123 31.6182 216.529 31.4422 216.012 31.1053L214.921 32.7816C215.786 33.3443 216.764 33.6182 217.824 33.6182V31.6182ZM216.018 31.1096C215.503 30.7686 215.077 30.2729 214.752 29.58L212.941 30.4291C213.403 31.4122 214.056 32.2091 214.914 32.7773L216.018 31.1096ZM214.755 29.5861C214.441 28.905 214.264 28.0441 214.264 26.9719H212.264C212.264 28.2575 212.476 29.4185 212.939 30.4229L214.755 29.5861ZM214.264 26.9719C214.264 25.9008 214.443 25.0449 214.759 24.3708L212.949 23.5217C212.479 24.5238 212.264 25.685 212.264 26.9719H214.264ZM214.757 24.375C215.086 23.6832 215.514 23.194 216.029 22.8624L214.946 21.1808C214.079 21.7393 213.418 22.5332 212.951 23.5175L214.757 24.375ZM216.029 22.8624C216.548 22.5281 217.141 22.354 217.838 22.354V20.354C216.784 20.354 215.81 20.6249 214.946 21.1808L216.029 22.8624ZM217.838 22.354C218.416 22.354 218.776 22.4528 218.989 22.5704L219.955 20.8193C219.344 20.4824 218.615 20.354 217.838 20.354V22.354ZM219.001 22.5769C219.323 22.7488 219.522 22.9237 219.642 23.0822L221.233 21.8701C220.899 21.4319 220.454 21.086 219.943 20.8128L219.001 22.5769ZM219.648 23.0901C219.862 23.365 220.011 23.5851 220.106 23.7547L221.849 22.7742C221.689 22.4893 221.477 22.1839 221.227 21.8622L219.648 23.0901ZM220.978 24.2645H221.105V22.2645H220.978V24.2645ZM222.105 23.2645V17.8596H220.105V23.2645H222.105ZM221.105 18.8596H223.229V16.8596H221.105V18.8596ZM222.229 17.8596V32.4051H224.229V17.8596H222.229ZM223.229 31.4051H221.155V33.4051H223.229V31.4051ZM222.155 32.4051V30.7076H220.155V32.4051H222.155ZM221.155 29.7076H220.978V31.7076H221.155V29.7076ZM220.102 30.225C220.012 30.3881 219.866 30.603 219.646 30.8739L221.201 32.1323C221.464 31.8066 221.688 31.4912 221.853 31.1903L220.102 30.225ZM219.64 30.8814C219.507 31.05 219.296 31.2292 218.972 31.4023L219.915 33.1664C220.424 32.8944 220.867 32.5528 221.207 32.1248L219.64 30.8814ZM218.972 31.4023C218.747 31.5225 218.385 31.6182 217.824 31.6182V33.6182C218.589 33.6182 219.306 33.4913 219.915 33.1664L218.972 31.4023ZM218.293 31.8071C219.088 31.8071 219.827 31.5936 220.448 31.1187L219.234 29.5295C219.013 29.6986 218.719 29.8071 218.293 29.8071V31.8071ZM220.45 31.1177C221.045 30.6613 221.469 30.0459 221.743 29.3204L219.871 28.6148C219.709 29.0445 219.49 29.3335 219.233 29.5305L220.45 31.1177ZM221.74 29.3271C222.016 28.6109 222.141 27.8121 222.141 26.9505H220.141C220.141 27.623 220.043 28.1689 219.874 28.6081L221.74 29.3271ZM222.141 26.9505C222.141 26.0995 222.019 25.3106 221.748 24.604L219.88 25.3198C220.045 25.7496 220.141 26.2865 220.141 26.9505H222.141ZM221.748 24.604C221.474 23.888 221.05 23.2815 220.457 22.8349L219.254 24.4327C219.504 24.6206 219.719 24.8994 219.88 25.3198L221.748 24.604ZM220.457 22.8349C219.833 22.3652 219.091 22.1579 218.293 22.1579V24.1579C218.736 24.1579 219.035 24.2679 219.254 24.4327L220.457 22.8349ZM218.293 22.1579C217.474 22.1579 216.713 22.3738 216.081 22.8657L217.309 24.4444C217.529 24.2735 217.834 24.1579 218.293 24.1579V22.1579ZM216.081 22.8657C215.491 23.3243 215.068 23.9357 214.794 24.6563L216.664 25.367C216.825 24.9417 217.046 24.6487 217.309 24.4444L216.081 22.8657ZM214.792 24.663C214.531 25.3654 214.409 26.1325 214.409 26.9505H216.409C216.409 26.3292 216.501 25.8037 216.666 25.3602L214.792 24.663ZM214.409 26.9505C214.409 27.7791 214.533 28.5562 214.799 29.2682L216.673 28.5676C216.503 28.1148 216.409 27.5804 216.409 26.9505H214.409ZM214.799 29.2682C215.071 29.9956 215.491 30.615 216.077 31.0837L217.327 29.5219C217.06 29.3088 216.836 29.005 216.673 28.5676L214.799 29.2682ZM216.087 31.0912C216.72 31.5849 217.476 31.8071 218.293 31.8071V29.8071C217.851 29.8071 217.546 29.6931 217.317 29.5144L216.087 31.0912ZM137.174 65.4051V66.4051H137.886L138.119 65.7321L137.174 65.4051ZM132.98 65.4051L132.039 65.0665L131.558 66.4051H132.98V65.4051ZM142.402 39.2233V38.2233H141.699L141.461 38.8847L142.402 39.2233ZM146.966 39.2233L147.907 38.8847L147.669 38.2233H146.966V39.2233ZM156.388 65.4051V66.4051H157.811L157.329 65.0665L156.388 65.4051ZM152.195 65.4051L151.25 65.7316L151.482 66.4051H152.195V65.4051ZM144.793 43.979L145.738 43.6524L145.505 42.979H144.793V43.979ZM144.588 43.979V42.979H143.876L143.643 43.6519L144.588 43.979ZM137.877 55.1522V54.1522H136.877V55.1522H137.877ZM151.479 55.1522H152.479V54.1522H151.479V55.1522ZM151.479 58.4761V59.4761H152.479V58.4761H151.479ZM137.877 58.4761H136.877V59.4761H137.877V58.4761ZM137.174 64.4051H132.98V66.4051H137.174V64.4051ZM133.921 65.7437L143.343 39.5619L141.461 38.8847L132.039 65.0665L133.921 65.7437ZM142.402 40.2233H146.966V38.2233H142.402V40.2233ZM146.025 39.5619L155.447 65.7437L157.329 65.0665L147.907 38.8847L146.025 39.5619ZM156.388 64.4051H152.195V66.4051H156.388V64.4051ZM153.14 65.0786L145.738 43.6524L143.848 44.3055L151.25 65.7316L153.14 65.0786ZM144.793 42.979H144.588V44.979H144.793V42.979ZM143.643 43.6519L136.229 65.0781L138.119 65.7321L145.533 44.306L143.643 43.6519ZM137.877 56.1522H151.479V54.1522H137.877V56.1522ZM150.479 55.1522V58.4761H152.479V55.1522H150.479ZM151.479 57.4761H137.877V59.4761H151.479V57.4761ZM138.877 58.4761V55.1522H136.877V58.4761H138.877ZM159.449 65.4051H158.449V66.4051H159.449V65.4051ZM159.449 39.2233V38.2233H158.449V39.2233H159.449ZM176.848 43.3781L175.96 43.837L175.961 43.8395L176.848 43.3781ZM176.835 52.0457L175.949 51.5821L175.948 51.5844L176.835 52.0457ZM173.818 55.0883L174.303 55.963L174.305 55.962L173.818 55.0883ZM162.351 56.2005H161.351V57.2005H162.351V56.2005ZM162.351 52.8511V51.8511H161.351V52.8511H162.351ZM171.543 52.1863L172.027 53.0614L172.034 53.0574L171.543 52.1863ZM171.53 43.263L171.053 44.142L171.057 44.1441L171.53 43.263ZM163.399 42.6111V41.6111H162.399V42.6111H163.399ZM163.399 65.4051V66.4051H164.399V65.4051H163.399ZM160.449 65.4051V39.2233H158.449V65.4051H160.449ZM159.449 40.2233H168.781V38.2233H159.449V40.2233ZM168.781 40.2233C170.703 40.2233 172.21 40.5737 173.359 41.2102L174.328 39.4608C172.801 38.6144 170.934 38.2233 168.781 38.2233V40.2233ZM173.359 41.2102C174.535 41.8616 175.391 42.7356 175.96 43.837L177.737 42.9192C176.976 41.4467 175.829 40.2923 174.328 39.4608L173.359 41.2102ZM175.961 43.8395C176.544 44.96 176.845 46.2392 176.845 47.6991H178.845C178.845 45.9545 178.482 44.353 177.735 42.9167L175.961 43.8395ZM176.845 47.6991C176.845 49.1664 176.54 50.4533 175.949 51.5821L177.721 52.5093C178.477 51.0642 178.845 49.4535 178.845 47.6991H176.845ZM175.948 51.5844C175.38 52.6768 174.52 53.553 173.332 54.2147L174.305 55.962C175.81 55.1237 176.961 53.9714 177.722 52.5071L175.948 51.5844ZM173.334 54.2136C172.184 54.8505 170.681 55.2005 168.769 55.2005V57.2005C170.913 57.2005 172.776 56.8092 174.303 55.963L173.334 54.2136ZM168.769 55.2005H162.351V57.2005H168.769V55.2005ZM163.351 56.2005V52.8511H161.351V56.2005H163.351ZM162.351 53.8511H168.411V51.8511H162.351V53.8511ZM168.411 53.8511C169.802 53.8511 171.029 53.6131 172.027 53.0614L171.059 51.3113C170.454 51.646 169.593 51.8511 168.411 51.8511V53.8511ZM172.034 53.0574C173 52.5127 173.737 51.7525 174.207 50.7807L172.407 49.9101C172.126 50.4895 171.688 50.9566 171.052 51.3153L172.034 53.0574ZM174.207 50.7807C174.657 49.8507 174.869 48.8162 174.869 47.6991H172.869C172.869 48.5593 172.707 49.289 172.407 49.9101L174.207 50.7807ZM174.869 47.6991C174.869 46.5823 174.657 45.5502 174.205 44.6264L172.408 45.5048C172.707 46.115 172.869 46.8387 172.869 47.6991H174.869ZM174.205 44.6264C173.731 43.6565 172.982 42.9077 172.003 42.382L171.057 44.1441C171.697 44.4877 172.133 44.9406 172.408 45.5048L174.205 44.6264ZM172.007 42.3841C171.009 41.8427 169.77 41.6111 168.359 41.6111V43.6111C169.574 43.6111 170.449 43.8141 171.053 44.142L172.007 42.3841ZM168.359 41.6111H163.399V43.6111H168.359V41.6111ZM162.399 42.6111V65.4051H164.399V42.6111H162.399ZM163.399 64.4051H159.449V66.4051H163.399V64.4051ZM181.756 65.4051H180.756V66.4051H181.756V65.4051ZM181.756 39.2233V38.2233H180.756V39.2233H181.756ZM185.707 39.2233H186.707V38.2233H185.707V39.2233ZM185.707 51.7261H184.707V52.7261H185.707V51.7261ZM186.026 51.7261V52.7261H186.479L186.777 52.386L186.026 51.7261ZM197.008 39.2233V38.2233H196.555L196.256 38.5634L197.008 39.2233ZM201.981 39.2233L202.725 39.8905L204.219 38.2233H201.981V39.2233ZM191.421 51.0102L190.676 50.3429L190.134 50.9484L190.616 51.6031L191.421 51.0102ZM202.019 65.4051V66.4051H203.997L202.824 64.8122L202.019 65.4051ZM197.263 65.4051L196.453 65.9913L196.753 66.4051H197.263V65.4051ZM188.8 53.7076L189.61 53.1215L188.873 52.1016L188.046 53.0511L188.8 53.7076ZM185.707 57.2616L184.952 56.605L184.707 56.8873V57.2616H185.707ZM185.707 65.4051V66.4051H186.707V65.4051H185.707ZM182.756 65.4051V39.2233H180.756V65.4051H182.756ZM181.756 40.2233H185.707V38.2233H181.756V40.2233ZM184.707 39.2233V51.7261H186.707V39.2233H184.707ZM185.707 52.7261H186.026V50.7261H185.707V52.7261ZM186.777 52.386L197.759 39.8832L196.256 38.5634L185.275 51.0662L186.777 52.386ZM197.008 40.2233H201.981V38.2233H197.008V40.2233ZM201.236 38.556L190.676 50.3429L192.166 51.6775L202.725 39.8905L201.236 38.556ZM190.616 51.6031L201.214 65.998L202.824 64.8122L192.226 50.4173L190.616 51.6031ZM202.019 64.4051H197.263V66.4051H202.019V64.4051ZM198.074 64.8189L189.61 53.1215L187.99 54.2938L196.453 65.9913L198.074 64.8189ZM188.046 53.0511L184.952 56.605L186.461 57.9182L189.555 54.3642L188.046 53.0511ZM184.707 57.2616V65.4051H186.707V57.2616H184.707ZM185.707 64.4051H181.756V66.4051H185.707V64.4051Z" fill="#6E4DE0" fill-opacity="0.66"/>
<g filter="url(#filter1_d_120_895)">
<path d="M92.7404 52.3166C90.8595 52.3166 89.3056 50.7205 89.3056 48.7361C89.3056 46.7517 90.8595 45.1987 92.7404 45.1987C94.6214 45.1987 96.1752 46.7517 96.1752 48.7361C96.1752 50.7205 94.6214 52.3166 92.7404 52.3166ZM55.1215 52.3166C53.2406 52.3166 51.6868 50.7205 51.6868 48.7361C51.6868 46.7517 53.2406 45.1987 55.1215 45.1987C57.0025 45.1987 58.5154 46.7517 58.5154 48.7361C58.5154 50.7205 57.0025 52.3166 55.1215 52.3166ZM93.9671 30.704L100.796 18.2799C101.164 17.5466 100.918 16.6407 100.264 16.2524C99.5691 15.821 98.7104 16.0799 98.4241 16.8132L91.4319 29.3667C85.9527 26.7352 80.0236 25.3547 73.8901 25.3979C67.6339 25.3979 61.6231 26.8215 56.43 29.3235L49.5196 16.7701C49.1516 16.0367 48.2929 15.7779 47.5978 16.2093C46.9026 16.5975 46.6982 17.5034 47.0662 18.2368L53.8539 30.6608C42.2003 37.3905 34.1858 49.8577 33 64.6112H114.78C113.635 49.9008 105.662 37.4337 93.9671 30.704Z" fill="url(#paint2_linear_120_895)"/>
<path d="M93.0908 30.2223L92.6184 31.0816L93.4683 31.5707C104.581 37.9657 112.27 49.6899 113.686 63.6112H34.0965C35.5518 49.6487 43.2789 37.9224 54.354 31.5268L55.1997 31.0384L54.7315 30.1814L47.9539 17.776C47.8816 17.6247 47.871 17.4654 47.9032 17.337C47.935 17.2104 48.002 17.1289 48.0854 17.0823L48.1055 17.0711L48.1251 17.059C48.231 16.9932 48.3248 16.9903 48.3986 17.0121C48.4746 17.0345 48.5632 17.0938 48.6258 17.2186L48.6344 17.2356L48.6436 17.2523L55.554 29.8058L56.0108 30.6356L56.8641 30.2244C61.9212 27.7878 67.7836 26.3979 73.8901 26.3979L73.8971 26.3979C79.8733 26.3558 85.6523 27.7003 90.999 30.2681L91.8475 30.6756L92.3056 29.8533L99.2978 17.2998L99.3309 17.2403L99.3557 17.1768C99.3848 17.1022 99.4305 17.0683 99.4814 17.0529C99.5359 17.0363 99.6271 17.034 99.7369 17.1021L99.7453 17.1073L99.7539 17.1124C99.9139 17.2074 100.052 17.5152 99.9083 17.8184L93.0908 30.2223ZM88.3056 48.7361C88.3056 51.2376 90.2726 53.3166 92.7404 53.3166C95.2082 53.3166 97.1752 51.2376 97.1752 48.7361C97.1752 46.2185 95.1926 44.1987 92.7404 44.1987C90.2882 44.1987 88.3056 46.2185 88.3056 48.7361ZM50.6868 48.7361C50.6868 51.2376 52.6537 53.3166 55.1215 53.3166C57.6045 53.3166 59.5154 51.2216 59.5154 48.7361C59.5154 46.2343 57.5891 44.1987 55.1215 44.1987C52.6694 44.1987 50.6868 46.2185 50.6868 48.7361Z" stroke="#5A57FF" stroke-width="2"/>
</g>
<defs>
<filter id="filter0_i_120_895" x="0.90332" y="0.372681" width="259.36" height="93.7814" filterUnits="userSpaceOnUse" color-interpolation-filters="sRGB">
<feFlood flood-opacity="0" result="BackgroundImageFix"/>
<feBlend mode="normal" in="SourceGraphic" in2="BackgroundImageFix" result="shape"/>
<feColorMatrix in="SourceAlpha" type="matrix" values="0 0 0 0 0 0 0 0 0 0 0 0 0 0 0 0 0 0 127 0" result="hardAlpha"/>
<feOffset dy="4"/>
<feGaussianBlur stdDeviation="2"/>
<feComposite in2="hardAlpha" operator="arithmetic" k2="-1" k3="1"/>
<feColorMatrix type="matrix" values="0 0 0 0 0 0 0 0 0 0 0 0 0 0 0 0 0 0 0.25 0"/>
<feBlend mode="normal" in2="shape" result="effect1_innerShadow_120_895"/>
</filter>
<filter id="filter1_d_120_895" x="29" y="15.9999" width="89.7803" height="56.6113" filterUnits="userSpaceOnUse" color-interpolation-filters="sRGB">
<feFlood flood-opacity="0" result="BackgroundImageFix"/>
<feColorMatrix in="SourceAlpha" type="matrix" values="0 0 0 0 0 0 0 0 0 0 0 0 0 0 0 0 0 0 127 0" result="hardAlpha"/>
<feOffset dy="4"/>
<feGaussianBlur stdDeviation="2"/>
<feComposite in2="hardAlpha" operator="out"/>
<feColorMatrix type="matrix" values="0 0 0 0 0 0 0 0 0 0 0 0 0 0 0 0 0 0 0.25 0"/>
<feBlend mode="normal" in2="BackgroundImageFix" result="effect1_dropShadow_120_895"/>
<feBlend mode="normal" in="SourceGraphic" in2="effect1_dropShadow_120_895" result="shape"/>
</filter>
<linearGradient id="paint0_linear_120_895" x1="36.2299" y1="4.78815" x2="139.298" y2="110.077" gradientUnits="userSpaceOnUse">
<stop stop-color="#7B56FB"/>
<stop offset="0.0001" stop-color="#7B56FB"/>
<stop offset="1" stop-color="#B7A3FC"/>
</linearGradient>
<linearGradient id="paint1_linear_120_895" x1="143.318" y1="22.2836" x2="291.358" y2="57.7172" gradientUnits="userSpaceOnUse">
<stop stop-color="#7B56FB"/>
<stop offset="1" stop-color="white"/>
</linearGradient>
<linearGradient id="paint2_linear_120_895" x1="105.434" y1="30.8044" x2="-43.7961" y2="130.507" gradientUnits="userSpaceOnUse">
<stop stop-color="#7B56FB"/>
<stop offset="1" stop-color="white"/>
</linearGradient>
</defs>
</svg>
