<svg width="300" height="120" viewBox="0 0 300 120" fill="none" xmlns="http://www.w3.org/2000/svg">
<g filter="url(#filter0_ddd_54_822)">
<rect x="20" y="20" width="240" height="60" rx="18" fill="#182630"/>
<rect x="20" y="20" width="240" height="60" rx="18" fill="url(#paint0_radial_54_822)" fill-opacity="0.3"/>
</g>
<g filter="url(#filter1_d_54_822)">
<path d="M222.296 44.2697L232.084 36.1798L241.873 44.2697" stroke="#00B0CE" stroke-width="4" stroke-linecap="round"/>
</g>
<g filter="url(#filter2_d_54_822)">
<path d="M222.296 64.4944L232.084 56.4045L241.873 64.4944" stroke="#00B0CE" stroke-width="4" stroke-linecap="round"/>
</g>
<g filter="url(#filter3_d_54_822)">
<path d="M222.296 54.382L232.084 46.2921L241.873 54.382" stroke="#00B0CE" stroke-width="4" stroke-linecap="round"/>
</g>
<path d="M79.3332 67.1667L83.4532 70.6667L82.3598 65.98L85.9998 62.8267L81.2065 62.4133L79.3332 58L77.4598 62.4133L72.6665 62.8267L76.2998 65.98L75.2132 70.6667L79.3332 67.1667Z" fill="#859AB5"/>
<path d="M97.3332 67.1667L101.453 70.6667L100.36 65.98L104 62.8267L99.2065 62.4133L97.3332 58L95.4598 62.4133L90.6665 62.8267L94.2998 65.98L93.2132 70.6667L97.3332 67.1667Z" fill="#859AB5"/>
<path d="M115.333 67.1667L119.453 70.6667L118.36 65.98L122 62.8267L117.207 62.4133L115.333 58L113.46 62.4133L108.667 62.8267L112.3 65.98L111.213 70.6667L115.333 67.1667Z" fill="#859AB5"/>
<path d="M133.333 67.1667L137.453 70.6667L136.36 65.98L140 62.8267L135.207 62.4133L133.333 58L131.46 62.4133L126.667 62.8267L130.3 65.98L129.213 70.6667L133.333 67.1667Z" fill="#859AB5"/>
<path d="M156 66.728H150.832V65.464L155.536 58.616H157.328V65.624H158.448V66.728H157.328V69H156V66.728ZM156 65.624V59.88L152.112 65.624H156ZM160.401 67.272H162.257V69H160.401V67.272ZM167.999 69.16C167.53 69.16 167.146 69.144 166.847 69.112C166.559 69.08 166.25 69.016 165.919 68.92C165.567 68.824 165.284 68.6853 165.071 68.504C164.868 68.312 164.698 68.0453 164.559 67.704C164.42 67.384 164.351 66.984 164.351 66.504V61.256C164.351 60.776 164.42 60.3547 164.559 59.992C164.698 59.6293 164.879 59.3413 165.103 59.128C165.306 58.9467 165.572 58.8027 165.903 58.696C166.244 58.5787 166.586 58.504 166.927 58.472C167.311 58.4507 167.668 58.44 167.999 58.44C168.468 58.44 168.847 58.456 169.135 58.488C169.434 58.52 169.748 58.584 170.079 58.68C170.431 58.7867 170.714 58.936 170.927 59.128C171.151 59.32 171.332 59.592 171.471 59.944C171.61 60.296 171.679 60.728 171.679 61.24V66.504C171.679 66.9413 171.61 67.3307 171.471 67.672C171.332 68.0133 171.151 68.28 170.927 68.472C170.714 68.6533 170.442 68.8027 170.111 68.92C169.78 69.0267 169.444 69.0907 169.103 69.112C168.804 69.144 168.436 69.16 167.999 69.16ZM168.031 68.216C168.596 68.216 169.034 68.1787 169.343 68.104C169.652 68.0187 169.876 67.8587 170.015 67.624C170.154 67.3893 170.223 67.0427 170.223 66.584V61.144C170.223 60.6427 170.148 60.2693 169.999 60.024C169.86 59.768 169.636 59.5973 169.327 59.512C169.028 59.4267 168.591 59.384 168.015 59.384C167.428 59.384 166.98 59.4267 166.671 59.512C166.372 59.5973 166.154 59.768 166.015 60.024C165.876 60.2693 165.807 60.6427 165.807 61.144V66.584C165.807 67.0427 165.876 67.3893 166.015 67.624C166.164 67.8587 166.394 68.0187 166.703 68.104C167.012 68.1787 167.455 68.216 168.031 68.216Z" fill="white"/>
<path d="M77.368 31.616H79.16L83.192 42H81.576L80.392 38.848H75.944L74.776 42H73.24L77.368 31.616ZM80.008 37.776L78.248 33.088H78.104L76.344 37.776H80.008ZM84.6855 34.256H86.1095V35.088H86.1255C86.2428 34.4267 87.1228 34.096 88.7655 34.096C89.7468 34.096 90.4882 34.304 90.9895 34.72C91.4908 35.1253 91.7415 35.648 91.7415 36.288V39.472C91.7415 39.9307 91.6722 40.3307 91.5335 40.672C91.4055 41.0133 91.2348 41.28 91.0215 41.472C90.8295 41.6533 90.5628 41.7973 90.2215 41.904C89.8908 42.0107 89.5602 42.08 89.2295 42.112C88.9308 42.144 88.5682 42.16 88.1415 42.16C87.6722 42.16 87.2402 42.1067 86.8455 42C86.4615 41.8827 86.2215 41.7173 86.1255 41.504V45.328H84.6855V34.256ZM88.1735 41.184C88.7282 41.184 89.1495 41.1467 89.4375 41.072C89.7362 40.9867 89.9495 40.8373 90.0775 40.624C90.2055 40.4107 90.2695 40.0853 90.2695 39.648V36.8C90.2695 36.32 90.2055 35.9627 90.0775 35.728C89.9495 35.4933 89.7362 35.3387 89.4375 35.264C89.1495 35.1787 88.7228 35.136 88.1575 35.136C87.5922 35.136 87.1708 35.1787 86.8935 35.264C86.6162 35.3387 86.4188 35.4933 86.3015 35.728C86.1842 35.952 86.1255 36.3093 86.1255 36.8V39.648C86.1255 40.0853 86.1842 40.4107 86.3015 40.624C86.4295 40.8373 86.6375 40.9867 86.9255 41.072C87.2135 41.1467 87.6295 41.184 88.1735 41.184ZM93.9511 34.256H95.3751V35.088H95.3911C95.5085 34.4267 96.3885 34.096 98.0311 34.096C99.0125 34.096 99.7538 34.304 100.255 34.72C100.756 35.1253 101.007 35.648 101.007 36.288V39.472C101.007 39.9307 100.938 40.3307 100.799 40.672C100.671 41.0133 100.5 41.28 100.287 41.472C100.095 41.6533 99.8285 41.7973 99.4871 41.904C99.1565 42.0107 98.8258 42.08 98.4951 42.112C98.1965 42.144 97.8338 42.16 97.4071 42.16C96.9378 42.16 96.5058 42.1067 96.1111 42C95.7271 41.8827 95.4871 41.7173 95.3911 41.504V45.328H93.9511V34.256ZM97.4391 41.184C97.9938 41.184 98.4151 41.1467 98.7031 41.072C99.0018 40.9867 99.2151 40.8373 99.3431 40.624C99.4711 40.4107 99.5351 40.0853 99.5351 39.648V36.8C99.5351 36.32 99.4711 35.9627 99.3431 35.728C99.2151 35.4933 99.0018 35.3387 98.7031 35.264C98.4151 35.1787 97.9885 35.136 97.4231 35.136C96.8578 35.136 96.4365 35.1787 96.1591 35.264C95.8818 35.3387 95.6845 35.4933 95.5671 35.728C95.4498 35.952 95.3911 36.3093 95.3911 36.8V39.648C95.3911 40.0853 95.4498 40.4107 95.5671 40.624C95.6951 40.8373 95.9031 40.9867 96.1911 41.072C96.4791 41.1467 96.8951 41.184 97.4391 41.184ZM109.992 42.16C109.107 42.16 108.051 42.0747 106.824 41.904V40.608C108.062 40.8747 109.15 41.008 110.088 41.008C110.878 41.008 111.454 40.9227 111.816 40.752C112.179 40.5707 112.36 40.24 112.36 39.76V38.416C112.36 37.968 112.232 37.6533 111.976 37.472C111.72 37.2907 111.272 37.2 110.632 37.2H109.416C108.403 37.2 107.683 36.9973 107.256 36.592C106.83 36.1867 106.616 35.5573 106.616 34.704V33.872C106.616 33.3067 106.739 32.848 106.984 32.496C107.24 32.144 107.662 31.8827 108.248 31.712C108.846 31.5413 109.662 31.456 110.696 31.456C111.39 31.456 112.28 31.5147 113.368 31.632V32.8C112.152 32.6187 111.224 32.528 110.584 32.528C109.592 32.528 108.936 32.624 108.616 32.816C108.286 33.0187 108.12 33.3547 108.12 33.824V35.008C108.12 35.3707 108.248 35.6373 108.504 35.808C108.771 35.968 109.224 36.048 109.864 36.048H111.112C111.827 36.048 112.382 36.1333 112.776 36.304C113.182 36.4747 113.464 36.736 113.624 37.088C113.795 37.4293 113.88 37.8933 113.88 38.48V39.232C113.88 39.968 113.742 40.5493 113.464 40.976C113.198 41.4027 112.782 41.7067 112.216 41.888C111.651 42.0693 110.91 42.16 109.992 42.16ZM119.262 42.16C118.6 42.16 118.083 42.0907 117.71 41.952C117.336 41.8027 117.064 41.5573 116.894 41.216C116.734 40.864 116.654 40.3733 116.654 39.744V35.2H114.926V34.256H116.654V31.856H118.11V34.256H120.878V35.2H118.11V39.824C118.11 40.208 118.152 40.496 118.238 40.688C118.334 40.88 118.494 41.0187 118.718 41.104C118.952 41.1787 119.288 41.216 119.726 41.216C119.864 41.216 120.248 41.1733 120.878 41.088V42.032C120.334 42.1173 119.795 42.16 119.262 42.16ZM125.731 42.16C125.048 42.16 124.536 42.1333 124.195 42.08C123.854 42.0373 123.512 41.936 123.171 41.776C122.819 41.616 122.563 41.36 122.403 41.008C122.243 40.6453 122.163 40.16 122.163 39.552V36.864C122.163 36.384 122.222 35.9627 122.339 35.6C122.456 35.2373 122.611 34.9547 122.803 34.752C122.963 34.5707 123.203 34.432 123.523 34.336C123.854 34.2293 124.19 34.16 124.531 34.128C124.915 34.1067 125.315 34.096 125.731 34.096C126.286 34.096 126.702 34.112 126.979 34.144C127.267 34.1653 127.571 34.2187 127.891 34.304C128.222 34.4 128.478 34.544 128.659 34.736C128.84 34.928 128.995 35.2053 129.123 35.568C129.24 35.9413 129.299 36.3733 129.299 36.864V39.552C129.299 40.4587 129.091 41.12 128.675 41.536C128.504 41.7067 128.259 41.84 127.939 41.936C127.619 42.032 127.288 42.096 126.947 42.128C126.542 42.1493 126.136 42.16 125.731 42.16ZM125.731 41.216C126.179 41.216 126.504 41.2053 126.707 41.184C126.91 41.1627 127.107 41.104 127.299 41.008C127.491 40.9227 127.624 40.784 127.699 40.592C127.784 40.3893 127.827 40.112 127.827 39.76V36.624C127.827 36.144 127.768 35.7973 127.651 35.584C127.534 35.36 127.331 35.216 127.043 35.152C126.766 35.0773 126.328 35.04 125.731 35.04C125.134 35.04 124.691 35.0773 124.403 35.152C124.126 35.216 123.928 35.36 123.811 35.584C123.694 35.7973 123.635 36.144 123.635 36.624V39.76C123.635 40.112 123.672 40.3893 123.747 40.592C123.832 40.784 123.971 40.9227 124.163 41.008C124.355 41.104 124.552 41.1627 124.755 41.184C124.958 41.2053 125.283 41.216 125.731 41.216ZM131.545 34.256H132.905V35.52C132.905 35.2747 133.012 35.0453 133.225 34.832C133.438 34.608 133.71 34.432 134.041 34.304C134.372 34.1653 134.697 34.096 135.017 34.096H135.721V35.328H134.921C134.238 35.328 133.742 35.4187 133.433 35.6C133.134 35.7707 132.985 36.0853 132.985 36.544V42H131.545V34.256ZM140.418 42.16C138.05 42.16 136.866 41.3707 136.866 39.792V36.736C136.866 35.7973 137.133 35.1253 137.666 34.72C138.21 34.304 139.085 34.096 140.29 34.096C141.432 34.096 142.253 34.2933 142.754 34.688C143.266 35.0827 143.522 35.7653 143.522 36.736V38.448H138.322V39.616C138.322 40.1493 138.509 40.5333 138.882 40.768C139.256 41.0027 139.832 41.12 140.61 41.12C141.346 41.12 142.216 40.992 143.218 40.736V41.84C142.237 42.0533 141.304 42.16 140.418 42.16ZM142.082 37.504V36.288C142.082 35.8187 141.938 35.4987 141.65 35.328C141.373 35.1467 140.893 35.056 140.21 35.056C139.549 35.056 139.069 35.1467 138.77 35.328C138.472 35.4987 138.322 35.8187 138.322 36.288V37.504H142.082Z" fill="white"/>
<path fill-rule="evenodd" clip-rule="evenodd" d="M59.6499 38.25H63.3749C63.7396 38.25 64.0893 38.3949 64.3472 38.6527C64.605 38.9106 64.7499 39.2603 64.7499 39.625C64.7499 39.9897 64.605 40.3394 64.3472 40.5973C64.0893 40.8551 63.7396 41 63.3749 41H59.6499V38.25Z" fill="white"/>
<path fill-rule="evenodd" clip-rule="evenodd" d="M55.075 38.25C55.3348 38.2484 55.5923 38.2984 55.8326 38.3971C56.073 38.4959 56.2913 38.6413 56.475 38.825C56.6587 39.0087 56.8041 39.227 56.9028 39.4673C57.0015 39.7077 57.0516 39.9652 57.05 40.225C57.051 40.4906 57 40.7539 56.9 41H44.625C44.2603 41 43.9106 40.8551 43.6527 40.5972C43.3949 40.3394 43.25 39.9896 43.25 39.625C43.25 39.2603 43.3949 38.9106 43.6527 38.6527C43.9106 38.3948 44.2603 38.25 44.625 38.25H55.075ZM54.725 29.2V31.6H53.125L51.175 28.25C51.0893 28.1022 51.0337 27.939 51.0111 27.7697C50.9886 27.6005 50.9997 27.4284 51.0437 27.2634C51.0877 27.0984 51.1639 26.9437 51.2677 26.8081C51.3716 26.6725 51.5012 26.5588 51.6491 26.4734C51.7969 26.3879 51.9602 26.3325 52.1295 26.3102C52.2988 26.2879 52.4709 26.2992 52.6358 26.3435C52.8008 26.3877 52.9554 26.4641 53.0908 26.5682C53.2262 26.6722 53.3398 26.802 53.425 26.95L54.725 29.2ZM56.1 31.525L62.925 43.35C63.1073 43.6649 63.1571 44.0394 63.0633 44.391C62.9696 44.7427 62.7399 45.0426 62.425 45.225C62.1101 45.4073 61.7356 45.4571 61.3839 45.3633C61.0323 45.2695 60.7323 45.0399 60.55 44.725L56.425 37.55C56.05 36.85 55.775 36.3 55.6 36C55.1892 35.3 55.0159 34.4859 55.106 33.6793C55.1961 32.8728 55.5448 32.117 56.1 31.525Z" fill="white"/>
<path fill-rule="evenodd" clip-rule="evenodd" d="M50.5001 39.5H47.3251L54.5001 27.075C54.6824 26.76 54.9824 26.5304 55.334 26.4367C55.6857 26.3429 56.0601 26.3926 56.3751 26.575C56.69 26.7573 56.9196 27.0573 57.0134 27.4089C57.1072 27.7606 57.0574 28.135 56.8751 28.45L50.5001 39.5ZM48.8251 42.375L47.5001 44.7C47.4098 44.8559 47.2897 44.9926 47.1466 45.1021C47.0035 45.2116 46.8402 45.2919 46.6661 45.3383C46.492 45.3847 46.3105 45.3964 46.1319 45.3727C45.9532 45.3489 45.781 45.2903 45.6251 45.2C45.4691 45.1097 45.3325 44.9896 45.223 44.8465C45.1135 44.7034 45.0332 44.5401 44.9868 44.366C44.9403 44.1919 44.9287 44.0104 44.9524 43.8317C44.9761 43.6531 45.0348 43.4809 45.1251 43.325L46.1001 41.625C46.4029 41.4743 46.7369 41.3972 47.0751 41.4C47.4278 41.3884 47.777 41.473 48.0853 41.6448C48.3936 41.8165 48.6493 42.069 48.8251 42.375Z" fill="white"/>
<defs>
<filter id="filter0_ddd_54_822" x="0" y="0" width="300" height="120" filterUnits="userSpaceOnUse" color-interpolation-filters="sRGB">
<feFlood flood-opacity="0" result="BackgroundImageFix"/>
<feColorMatrix in="SourceAlpha" type="matrix" values="0 0 0 0 0 0 0 0 0 0 0 0 0 0 0 0 0 0 127 0" result="hardAlpha"/>
<feOffset dx="10" dy="10"/>
<feGaussianBlur stdDeviation="15"/>
<feComposite in2="hardAlpha" operator="out"/>
<feColorMatrix type="matrix" values="0 0 0 0 0 0 0 0 0 0 0 0 0 0 0 0 0 0 0.4 0"/>
<feBlend mode="normal" in2="BackgroundImageFix" result="effect1_dropShadow_54_822"/>
<feColorMatrix in="SourceAlpha" type="matrix" values="0 0 0 0 0 0 0 0 0 0 0 0 0 0 0 0 0 0 127 0" result="hardAlpha"/>
<feOffset dx="3" dy="3"/>
<feGaussianBlur stdDeviation="2"/>
<feComposite in2="hardAlpha" operator="out"/>
<feColorMatrix type="matrix" values="0 0 0 0 0 0 0 0 0 0 0 0 0 0 0 0 0 0 0.1 0"/>
<feBlend mode="normal" in2="effect1_dropShadow_54_822" result="effect2_dropShadow_54_822"/>
<feColorMatrix in="SourceAlpha" type="matrix" values="0 0 0 0 0 0 0 0 0 0 0 0 0 0 0 0 0 0 127 0" result="hardAlpha"/>
<feOffset dx="-4" dy="-4"/>
<feGaussianBlur stdDeviation="5"/>
<feComposite in2="hardAlpha" operator="out"/>
<feColorMatrix type="matrix" values="0 0 0 0 0.2 0 0 0 0 0.316667 0 0 0 0 0.4 0 0 0 0.5 0"/>
<feBlend mode="normal" in2="effect2_dropShadow_54_822" result="effect3_dropShadow_54_822"/>
<feBlend mode="normal" in="SourceGraphic" in2="effect3_dropShadow_54_822" result="shape"/>
</filter>
<filter id="filter1_d_54_822" x="210.296" y="23.5851" width="43.5771" height="32.6846" filterUnits="userSpaceOnUse" color-interpolation-filters="sRGB">
<feFlood flood-opacity="0" result="BackgroundImageFix"/>
<feColorMatrix in="SourceAlpha" type="matrix" values="0 0 0 0 0 0 0 0 0 0 0 0 0 0 0 0 0 0 127 0" result="hardAlpha"/>
<feOffset/>
<feGaussianBlur stdDeviation="5"/>
<feComposite in2="hardAlpha" operator="out"/>
<feColorMatrix type="matrix" values="0 0 0 0 0 0 0 0 0 0.690196 0 0 0 0 0.807843 0 0 0 0.5 0"/>
<feBlend mode="normal" in2="BackgroundImageFix" result="effect1_dropShadow_54_822"/>
<feBlend mode="normal" in="SourceGraphic" in2="effect1_dropShadow_54_822" result="shape"/>
</filter>
<filter id="filter2_d_54_822" x="210.296" y="43.8098" width="43.5771" height="32.6846" filterUnits="userSpaceOnUse" color-interpolation-filters="sRGB">
<feFlood flood-opacity="0" result="BackgroundImageFix"/>
<feColorMatrix in="SourceAlpha" type="matrix" values="0 0 0 0 0 0 0 0 0 0 0 0 0 0 0 0 0 0 127 0" result="hardAlpha"/>
<feOffset/>
<feGaussianBlur stdDeviation="5"/>
<feComposite in2="hardAlpha" operator="out"/>
<feColorMatrix type="matrix" values="0 0 0 0 0 0 0 0 0 0.690196 0 0 0 0 0.807843 0 0 0 0.5 0"/>
<feBlend mode="normal" in2="BackgroundImageFix" result="effect1_dropShadow_54_822"/>
<feBlend mode="normal" in="SourceGraphic" in2="effect1_dropShadow_54_822" result="shape"/>
</filter>
<filter id="filter3_d_54_822" x="210.296" y="33.6974" width="43.5771" height="32.6846" filterUnits="userSpaceOnUse" color-interpolation-filters="sRGB">
<feFlood flood-opacity="0" result="BackgroundImageFix"/>
<feColorMatrix in="SourceAlpha" type="matrix" values="0 0 0 0 0 0 0 0 0 0 0 0 0 0 0 0 0 0 127 0" result="hardAlpha"/>
<feOffset/>
<feGaussianBlur stdDeviation="5"/>
<feComposite in2="hardAlpha" operator="out"/>
<feColorMatrix type="matrix" values="0 0 0 0 0 0 0 0 0 0.690196 0 0 0 0 0.807843 0 0 0 0.5 0"/>
<feBlend mode="normal" in2="BackgroundImageFix" result="effect1_dropShadow_54_822"/>
<feBlend mode="normal" in="SourceGraphic" in2="effect1_dropShadow_54_822" result="shape"/>
</filter>
<radialGradient id="paint0_radial_54_822" cx="0" cy="0" r="1" gradientUnits="userSpaceOnUse" gradientTransform="translate(10.9366 74.3038) rotate(-9.02801) scale(196.024 228.345)">
<stop stop-color="#627EEA"/>
<stop offset="1" stop-opacity="0"/>
</radialGradient>
</defs>
</svg>
