<svg width="58" height="58" viewBox="0 0 58 58" fill="none" xmlns="http://www.w3.org/2000/svg">
<path d="M29 58C45.0163 58 58 45.0163 58 29C58 12.9837 45.0163 0 29 0C12.9837 0 0 12.9837 0 29C0 45.0163 12.9837 58 29 58Z" fill="#627EEA"/>
<path fill-rule="evenodd" clip-rule="evenodd" d="M45.9061 25.6418C45.4475 28.0294 43.7948 29.4746 40.9501 29.9747C42.8175 30.7028 44.086 31.6397 44.754 32.7841C45.4238 33.9285 45.3565 35.3696 44.5538 37.1074C44.1352 37.9949 43.5983 38.7423 42.9394 39.3536C42.3373 39.9279 41.5884 40.4049 40.7371 40.7562C39.9308 41.0818 38.9844 41.303 37.9014 41.4198C36.8203 41.5365 35.7174 41.5654 34.5944 41.505C33.3192 41.4291 32.0513 41.2946 30.7977 41.1024L29.1924 46L25.2738 45.2678L26.8536 40.4471C25.8182 40.2565 24.7855 40.0573 23.7558 39.8495L22.1706 44.6894L18.2519 43.9572L19.8554 39.0596C19.3978 38.9734 18.941 38.885 18.4849 38.7945C17.877 38.6736 17.4111 38.5829 17.0889 38.5238L12 37.5732L13.9402 34.2074L16.7649 34.7335C17.6131 34.8915 18.2119 34.6566 18.5614 34.0288L21.0913 26.3081L21.4971 26.385C21.3673 26.345 21.2334 26.3128 21.0967 26.2888L22.9022 20.7772C22.9678 19.8663 22.3562 19.2893 21.0658 19.0489L18.241 18.5214L19.273 15.3713L24.6604 16.3975C25.747 16.6008 26.5715 16.7478 27.1357 16.8399L28.721 12L32.6396 12.7309L31.0853 17.4746C32.4867 17.7081 33.5242 17.8895 34.2031 18.0158L35.7447 13.3106L39.6633 14.0415L38.078 18.8813C39.3884 19.222 40.5278 19.5875 41.4979 19.979C42.441 20.3564 43.3128 20.8277 44.0897 21.3803C44.8274 21.8981 45.3807 22.5477 45.6986 23.2692C46.0117 23.9877 46.0808 24.7776 45.9061 25.6418ZM37.006 35.088C37.157 34.6264 37.1643 34.1936 37.0278 33.787C36.9055 33.4053 36.684 33.0458 36.3762 32.7292C36.021 32.3893 35.5906 32.0984 35.104 31.8692C34.6089 31.6201 34.0913 31.3975 33.5551 31.2029C32.9612 30.9992 32.3509 30.8239 31.7278 30.6781C31.1546 30.5359 30.5755 30.4076 29.9914 30.2934C29.4439 30.1922 28.8948 30.0961 28.3442 30.0049C27.9383 29.9387 27.533 29.87 27.1284 29.7989L25.0026 36.2914C25.1373 36.3161 25.4503 36.378 25.9399 36.4769C26.79 36.6559 27.6491 36.8095 28.5153 36.9371C29.5087 37.1007 30.5178 37.2041 31.533 37.2462C32.033 37.2727 32.5349 37.2709 33.0346 37.2407C33.4871 37.2071 33.9355 37.1474 34.376 37.0621C34.8455 36.9742 35.2441 36.8437 35.5681 36.6733C35.8957 36.5043 36.1869 36.2859 36.4436 36.0221C36.702 35.7584 36.8895 35.4452 37.0078 35.088H37.006ZM38.2436 24.426C38.3487 24.8177 38.3325 25.2225 38.1963 25.6088C38.078 25.966 37.8942 26.2792 37.6448 26.5457C37.4071 26.8043 37.0882 27.0144 36.7166 27.1571C36.3598 27.2947 35.9885 27.4096 35.6063 27.5005C35.235 27.5871 34.7837 27.6283 34.254 27.6241C33.7262 27.6214 33.2657 27.6104 32.8744 27.5912C32.3924 27.5631 31.9133 27.5113 31.4402 27.4359C30.876 27.3508 30.4464 27.2848 30.1552 27.2367C29.864 27.1887 29.4709 27.1158 28.9722 27.0156C28.6813 26.9568 28.3901 26.8991 28.0985 26.8425L30.0296 20.9461C30.8244 21.0884 31.6204 21.2267 32.4176 21.361C32.7852 21.4228 33.273 21.5314 33.8791 21.6852C34.4852 21.8391 34.9893 21.9875 35.3934 22.1304C35.7956 22.2732 36.227 22.4669 36.6893 22.7087C37.1498 22.9505 37.4974 23.206 37.734 23.4739C37.9706 23.7432 38.1399 24.0592 38.2436 24.426Z" fill="white"/>
</svg>
