<svg width="1225" height="283" viewBox="0 0 1225 283" fill="none" xmlns="http://www.w3.org/2000/svg">
<line x1="0.858887" y1="156.852" x2="1224.22" y2="156.852" stroke="white" stroke-opacity="0.3"/>
<line x1="24.4414" y1="0.0576782" x2="24.4414" y2="282.732" stroke="white" stroke-opacity="0.3"/>
<g filter="url(#filter0_d_63_1121)">
<path d="M23.9414 149.942C34.0519 148.891 43.4979 134.439 51.3199 128.572C60.1963 121.913 62.6693 116.649 73.8274 116.971C79.554 117.136 81.3184 121.665 85.921 124.123C91.1094 126.894 99.1063 121.332 103.137 118.541C110.844 113.205 118.473 107.55 128.248 107.55C139.309 107.55 143.752 105.761 152.436 98.1301C162.698 89.1115 172.271 75.1278 184.181 68.6481C212.867 53.0422 230.938 79.7458 253.719 92.1988C259.854 95.5524 268.494 105.606 272.699 111.563C284.925 128.878 290.843 156.717 310.492 167.212C313.782 168.969 316.83 170.104 320.57 170.352C329.872 170.969 338.904 175.613 348.116 177.33C357.966 179.166 368.532 178.202 378.518 178.202C388.519 178.202 399.352 179.636 408.836 175.847C425.989 168.995 441.543 157.979 459.142 150.639C467.746 147.051 476.369 144.471 483.161 137.73C487.841 133.086 491.423 132.187 497.186 130.316C509.986 126.162 521.931 116.354 535.399 116.971C551.145 117.692 567.833 124.49 583.269 127.961C590.722 129.637 597.794 133.149 604.601 136.683C619.648 144.497 633.61 153.4 649.448 159.885C659.731 164.096 670.554 167.47 679.766 174.016C683.73 176.833 686.492 180.861 690.935 182.912C696.191 185.338 701.199 189.204 706.892 190.414C713.171 191.748 717.683 191.968 723.101 196.345C737.539 208.008 750.745 214.855 770.048 214.313C784.36 213.912 797.635 208.809 810.192 201.317C820.316 195.276 834.722 196.436 846.136 197.392C866.618 199.107 890.044 206.515 909.795 196.258C923.398 189.194 940.167 182.731 951.787 172.271C962.654 162.489 975.006 154.436 985.38 143.661C995.409 133.246 1004.11 128.687 1017.46 124.821C1032.92 120.346 1044.33 107.459 1054.33 94.8155C1063.41 83.3363 1073.8 87.0895 1086.66 84.3486C1089.69 83.705 1094.3 85.3676 1096.07 82.4296C1097.46 80.1213 1103.28 77.9869 1105.64 76.9345C1119.01 70.9851 1128.93 69.8693 1143.44 69.8693C1156.3 69.8693 1169.26 71.4393 1181.9 71.4393" stroke="#FF6A16" stroke-opacity="0.2" stroke-width="3" stroke-linecap="round" shape-rendering="crispEdges"/>
</g>
<path d="M1126.08 76.0489C1126.1 76.3836 1126.11 76.7201 1126.11 77.0582L1125.86 77.0623C1125.87 77.2296 1125.87 77.3972 1125.87 77.5652C1125.87 77.7333 1125.87 77.9009 1125.86 78.0681L1126.11 78.0723C1126.11 78.4104 1126.1 78.7469 1126.08 79.0816L1125.83 79.069C1125.81 79.4038 1125.79 79.7369 1125.76 80.068L1126.01 80.089C1125.98 80.4265 1125.95 80.762 1125.91 81.0954L1125.66 81.0659C1125.62 81.3991 1125.58 81.7302 1125.53 82.059L1125.77 82.0971C1125.72 82.4314 1125.67 82.7634 1125.6 83.0929L1125.36 83.0463C1125.29 83.3756 1125.23 83.7024 1125.15 84.0266L1125.4 84.0818C1125.32 84.4115 1125.24 84.7384 1125.16 85.0626L1124.91 84.9987C1124.83 85.323 1124.74 85.6445 1124.64 85.9629L1124.88 86.0353C1124.78 86.3592 1124.68 86.68 1124.57 86.9975L1124.33 86.9165C1124.23 87.2336 1124.11 87.5474 1123.99 87.8579L1124.23 87.9475C1124.1 88.2632 1123.98 88.5754 1123.85 88.8839L1123.62 88.7856C1123.48 89.0936 1123.35 89.3979 1123.2 89.6984L1123.43 89.8052C1123.29 90.1109 1123.14 90.4125 1122.98 90.71L1122.76 90.5946C1122.61 90.8916 1122.45 91.1844 1122.28 91.4729L1122.5 91.5968C1122.33 91.8906 1122.16 92.18 1121.98 92.4648L1121.77 92.3324C1121.59 92.6166 1121.41 92.896 1121.22 93.1706L1121.43 93.3114C1121.24 93.5909 1121.04 93.8654 1120.84 94.1348L1120.64 93.9857C1120.44 94.2543 1120.24 94.5177 1120.03 94.7758L1120.22 94.9332C1120.01 95.1958 1119.79 95.453 1119.57 95.7045L1119.38 95.539C1119.16 95.7896 1118.93 96.0345 1118.7 96.2734L1118.88 96.447C1118.65 96.6902 1118.41 96.9274 1118.17 97.1584L1117.99 96.9769C1117.75 97.2068 1117.5 97.4304 1117.25 97.6474L1117.42 97.8366C1117.16 98.0575 1116.9 98.2719 1116.64 98.4794L1116.48 98.2828C1116.22 98.489 1115.95 98.6884 1115.68 98.8807L1115.83 99.0845C1115.55 99.2801 1115.27 99.4685 1114.99 99.6496L1114.86 99.4389C1114.58 99.6185 1114.29 99.7907 1114 99.9552L1114.13 100.172C1113.83 100.34 1113.54 100.499 1113.24 100.65L1113.12 100.427C1112.83 100.577 1112.53 100.719 1112.22 100.853L1112.32 101.082C1112.01 101.217 1111.7 101.345 1111.39 101.464L1111.3 101.23C1110.99 101.347 1110.67 101.456 1110.36 101.556L1110.43 101.795C1110.11 101.896 1109.79 101.989 1109.46 102.073L1109.4 101.831C1109.08 101.913 1108.75 101.987 1108.43 102.051L1108.47 102.297C1108.15 102.362 1107.81 102.418 1107.48 102.465L1107.44 102.218C1107.12 102.264 1106.79 102.301 1106.45 102.329L1106.47 102.578C1106.14 102.606 1105.8 102.625 1105.47 102.634L1105.46 102.384C1105.29 102.389 1105.13 102.391 1104.96 102.391C1104.79 102.391 1104.63 102.389 1104.46 102.384L1104.45 102.634C1104.11 102.625 1103.78 102.606 1103.44 102.578L1103.47 102.329C1103.13 102.301 1102.8 102.264 1102.48 102.218L1102.44 102.465C1102.11 102.418 1101.77 102.362 1101.44 102.297L1101.49 102.051C1101.17 101.987 1100.84 101.913 1100.52 101.831L1100.46 102.073C1100.13 101.989 1099.81 101.896 1099.49 101.795L1099.56 101.556C1099.25 101.456 1098.93 101.347 1098.62 101.23L1098.53 101.464C1098.22 101.345 1097.91 101.217 1097.6 101.082L1097.7 100.853C1097.39 100.719 1097.09 100.577 1096.8 100.427L1096.68 100.65C1096.38 100.499 1096.09 100.34 1095.79 100.172L1095.92 99.9552C1095.63 99.7907 1095.34 99.6185 1095.06 99.4389L1094.93 99.6496C1094.65 99.4685 1094.37 99.2801 1094.09 99.0845L1094.24 98.8807C1093.97 98.6884 1093.7 98.489 1093.44 98.2828L1093.28 98.4794C1093.02 98.2719 1092.76 98.0575 1092.5 97.8366L1092.67 97.6474C1092.41 97.4304 1092.17 97.2068 1091.93 96.9769L1091.75 97.1584C1091.51 96.9274 1091.27 96.6902 1091.04 96.447L1091.22 96.2734C1090.99 96.0345 1090.76 95.7896 1090.54 95.539L1090.35 95.7045C1090.13 95.453 1089.91 95.1958 1089.7 94.9332L1089.89 94.7758C1089.68 94.5177 1089.48 94.2543 1089.28 93.9857L1089.08 94.1348C1088.88 93.8654 1088.68 93.5909 1088.49 93.3114L1088.7 93.1706C1088.51 92.896 1088.33 92.6166 1088.15 92.3324L1087.94 92.4648C1087.76 92.18 1087.59 91.8906 1087.42 91.5968L1087.64 91.4729C1087.47 91.1844 1087.31 90.8916 1087.16 90.5946L1086.94 90.71C1086.78 90.4125 1086.63 90.1108 1086.49 89.8052L1086.71 89.6984C1086.57 89.3979 1086.44 89.0936 1086.3 88.7856L1086.07 88.8839C1085.94 88.5754 1085.82 88.2632 1085.69 87.9475L1085.93 87.8578C1085.81 87.5474 1085.69 87.2336 1085.59 86.9165L1085.35 86.9975C1085.24 86.68 1085.14 86.3592 1085.04 86.0353L1085.28 85.9629C1085.18 85.6445 1085.09 85.323 1085 84.9987L1084.76 85.0626C1084.68 84.7384 1084.6 84.4115 1084.52 84.0818L1084.77 84.0266C1084.69 83.7024 1084.62 83.3756 1084.56 83.0463L1084.32 83.0929C1084.25 82.7634 1084.2 82.4314 1084.15 82.0971L1084.39 82.059C1084.34 81.7302 1084.3 81.3991 1084.26 81.0659L1084.01 81.0954C1083.97 80.762 1083.94 80.4265 1083.91 80.089L1084.16 80.068C1084.13 79.7369 1084.11 79.4038 1084.09 79.069L1083.84 79.0816C1083.82 78.7469 1083.81 78.4104 1083.81 78.0723L1084.05 78.0681C1084.05 77.9009 1084.05 77.7333 1084.05 77.5652C1084.05 77.3972 1084.05 77.2296 1084.05 77.0623L1083.81 77.0582C1083.81 76.7201 1083.82 76.3836 1083.84 76.0489L1084.09 76.0615C1084.11 75.7266 1084.13 75.3936 1084.16 75.0625L1083.91 75.0414C1083.94 74.704 1083.97 74.3685 1084.01 74.0351L1084.26 74.0646C1084.3 73.7314 1084.34 73.4003 1084.39 73.0714L1084.15 73.0334C1084.2 72.6991 1084.25 72.3671 1084.32 72.0375L1084.56 72.0841C1084.62 71.7548 1084.69 71.428 1084.77 71.1038L1084.52 71.0486C1084.6 70.719 1084.68 70.392 1084.76 70.0679L1085 70.1317C1085.09 69.8074 1085.18 69.486 1085.28 69.1676L1085.04 69.0951C1085.14 68.7713 1085.24 68.4505 1085.35 68.1329L1085.59 68.214C1085.69 67.8969 1085.81 67.583 1085.93 67.2726L1085.69 67.1829C1085.82 66.8673 1085.94 66.5551 1086.07 66.2466L1086.3 66.3448C1086.44 66.0368 1086.57 65.7325 1086.71 65.4321L1086.49 65.3252C1086.63 65.0196 1086.78 64.718 1086.94 64.4204L1087.16 64.5358C1087.31 64.2389 1087.47 63.946 1087.64 63.6576L1087.42 63.5337C1087.59 63.2398 1087.76 62.9504 1087.94 62.6657L1088.15 62.798C1088.33 62.5139 1088.51 62.2344 1088.7 61.9598L1088.49 61.819C1088.68 61.5396 1088.88 61.265 1089.08 60.9956L1089.28 61.1448C1089.48 60.8762 1089.68 60.6127 1089.89 60.3547L1089.7 60.1973C1089.91 59.9346 1090.13 59.6774 1090.35 59.4259L1090.54 59.5915C1090.76 59.3409 1090.99 59.096 1091.22 58.8571L1091.04 58.6835C1091.27 58.4403 1091.51 58.2031 1091.75 57.9721L1091.93 58.1536C1092.17 57.9237 1092.41 57.7001 1092.67 57.483L1092.5 57.2939C1092.76 57.0729 1093.02 56.8586 1093.28 56.6511L1093.44 56.8477C1093.7 56.6414 1093.97 56.4421 1094.24 56.2498L1094.09 56.046C1094.37 55.8504 1094.65 55.6619 1094.93 55.4809L1095.06 55.6915C1095.34 55.512 1095.63 55.3398 1095.92 55.1753L1095.79 54.9582C1096.09 54.7909 1096.38 54.6315 1096.68 54.48L1096.8 54.7033C1097.09 54.5534 1097.39 54.4115 1097.7 54.2777L1097.6 54.0489C1097.91 53.9132 1098.22 53.7858 1098.53 53.6668L1098.62 53.9007C1098.93 53.7834 1099.25 53.6745 1099.56 53.5742L1099.49 53.3359C1099.81 53.2344 1100.13 53.1416 1100.46 53.0577L1100.52 53.2999C1100.84 53.2174 1101.17 53.1437 1101.49 53.079L1101.44 52.8338C1101.77 52.7685 1102.11 52.7122 1102.44 52.6652L1102.48 52.9127C1102.8 52.8666 1103.13 52.8296 1103.47 52.8017L1103.44 52.5526C1103.78 52.5246 1104.11 52.5057 1104.45 52.4963L1104.46 52.7462C1104.63 52.7416 1104.79 52.7393 1104.96 52.7393C1105.13 52.7393 1105.29 52.7416 1105.46 52.7462L1105.47 52.4963C1105.8 52.5057 1106.14 52.5246 1106.47 52.5526L1106.45 52.8017C1106.79 52.8296 1107.12 52.8666 1107.44 52.9127L1107.48 52.6652C1107.81 52.7122 1108.15 52.7685 1108.47 52.8338L1108.43 53.079C1108.75 53.1437 1109.08 53.2174 1109.4 53.2999L1109.46 53.0577C1109.79 53.1416 1110.11 53.2344 1110.43 53.3359L1110.36 53.5742C1110.67 53.6745 1110.99 53.7834 1111.3 53.9007L1111.39 53.6668C1111.7 53.7858 1112.01 53.9132 1112.32 54.0489L1112.22 54.2777C1112.53 54.4115 1112.83 54.5534 1113.12 54.7033L1113.24 54.48C1113.54 54.6315 1113.83 54.7909 1114.13 54.9582L1114 55.1753C1114.29 55.3398 1114.58 55.512 1114.86 55.6915L1114.99 55.4809C1115.27 55.6619 1115.55 55.8504 1115.83 56.046L1115.68 56.2498C1115.95 56.4421 1116.22 56.6414 1116.48 56.8477L1116.64 56.6511C1116.9 56.8586 1117.16 57.0729 1117.42 57.2939L1117.25 57.483C1117.5 57.7001 1117.75 57.9237 1117.99 58.1536L1118.17 57.9721C1118.41 58.2031 1118.65 58.4403 1118.88 58.6835L1118.7 58.8571C1118.93 59.096 1119.16 59.3409 1119.38 59.5915L1119.57 59.4259C1119.79 59.6774 1120.01 59.9346 1120.22 60.1973L1120.03 60.3547C1120.24 60.6128 1120.44 60.8762 1120.64 61.1448L1120.84 60.9956C1121.04 61.265 1121.24 61.5396 1121.43 61.819L1121.22 61.9598C1121.41 62.2344 1121.59 62.5139 1121.77 62.798L1121.98 62.6657C1122.16 62.9504 1122.33 63.2398 1122.5 63.5337L1122.28 63.6576C1122.45 63.946 1122.61 64.2389 1122.76 64.5358L1122.98 64.4204C1123.14 64.718 1123.29 65.0196 1123.43 65.3252L1123.2 65.4321C1123.35 65.7325 1123.48 66.0368 1123.62 66.3448L1123.85 66.2466C1123.98 66.5551 1124.1 66.8673 1124.23 67.1829L1123.99 67.2726C1124.11 67.583 1124.23 67.8969 1124.33 68.214L1124.57 68.1329C1124.68 68.4505 1124.78 68.7713 1124.88 69.0951L1124.64 69.1676C1124.74 69.486 1124.83 69.8074 1124.91 70.1317L1125.16 70.0679C1125.24 70.392 1125.32 70.719 1125.4 71.0486L1125.15 71.1038C1125.23 71.428 1125.29 71.7548 1125.36 72.0842L1125.6 72.0375C1125.67 72.3671 1125.72 72.6991 1125.77 73.0334L1125.53 73.0714C1125.58 73.4003 1125.62 73.7314 1125.66 74.0646L1125.91 74.0351C1125.95 74.3685 1125.98 74.704 1126.01 75.0414L1125.76 75.0625C1125.79 75.3936 1125.81 75.7266 1125.83 76.0615L1126.08 76.0489Z" stroke="#6F65E4" stroke-width="0.5" stroke-dasharray="1 1"/>
<g filter="url(#filter1_d_63_1121)">
<ellipse cx="1104.96" cy="77.5652" rx="15.3882" ry="18.2371" fill="#FF6A16" fill-opacity="0.5" shape-rendering="crispEdges"/>
</g>
<ellipse cx="1104.96" cy="77.5652" rx="7.69408" ry="9.11854" fill="white"/>
<ellipse cx="1104.96" cy="77.5652" rx="7.69408" ry="9.11854" fill="white"/>
<line x1="1105.46" y1="114.039" x2="1105.46" y2="230.301" stroke="#6F65E4" stroke-dasharray="1 1"/>
<defs>
<filter id="filter0_d_63_1121" x="7.44141" y="47.3874" width="1190.96" height="183.456" filterUnits="userSpaceOnUse" color-interpolation-filters="sRGB">
<feFlood flood-opacity="0" result="BackgroundImageFix"/>
<feColorMatrix in="SourceAlpha" type="matrix" values="0 0 0 0 0 0 0 0 0 0 0 0 0 0 0 0 0 0 127 0" result="hardAlpha"/>
<feOffset/>
<feGaussianBlur stdDeviation="7.5"/>
<feComposite in2="hardAlpha" operator="out"/>
<feColorMatrix type="matrix" values="0 0 0 0 1 0 0 0 0 0.415216 0 0 0 0 0.0862745 0 0 0 0.6 0"/>
<feBlend mode="normal" in2="BackgroundImageFix" result="effect1_dropShadow_63_1121"/>
<feBlend mode="normal" in="SourceGraphic" in2="effect1_dropShadow_63_1121" result="shape"/>
</filter>
<filter id="filter1_d_63_1121" x="1074.57" y="44.3282" width="60.7764" height="66.4742" filterUnits="userSpaceOnUse" color-interpolation-filters="sRGB">
<feFlood flood-opacity="0" result="BackgroundImageFix"/>
<feColorMatrix in="SourceAlpha" type="matrix" values="0 0 0 0 0 0 0 0 0 0 0 0 0 0 0 0 0 0 127 0" result="hardAlpha"/>
<feOffset/>
<feGaussianBlur stdDeviation="7.5"/>
<feComposite in2="hardAlpha" operator="out"/>
<feColorMatrix type="matrix" values="0 0 0 0 1 0 0 0 0 0.415216 0 0 0 0 0.0862745 0 0 0 1 0"/>
<feBlend mode="normal" in2="BackgroundImageFix" result="effect1_dropShadow_63_1121"/>
<feBlend mode="normal" in="SourceGraphic" in2="effect1_dropShadow_63_1121" result="shape"/>
</filter>
</defs>
</svg>
