<svg width="58" height="58" viewBox="0 0 58 58" fill="none" xmlns="http://www.w3.org/2000/svg">
<path d="M29 58C45.0163 58 58 45.0163 58 29C58 12.9837 45.0163 0 29 0C12.9837 0 0 12.9837 0 29C0 45.0163 12.9837 58 29 58Z" fill="#627EEA"/>
<path fill-rule="evenodd" clip-rule="evenodd" d="M35.0818 16.6649C35.635 16.1117 36.532 16.1117 37.0852 16.6649L41.3352 20.9149C41.8885 21.4682 41.8885 22.3652 41.3352 22.9184L37.0852 27.1684C36.532 27.7216 35.635 27.7216 35.0818 27.1684C34.5285 26.6152 34.5285 25.7182 35.0818 25.1649L36.9133 23.3334H23.1236C20.0851 23.3334 17.6668 25.8197 17.6668 29C17.6668 29.7824 17.0326 30.4167 16.2502 30.4167C15.4678 30.4167 14.8335 29.7824 14.8335 29C14.8335 24.3562 18.4209 20.5001 23.1236 20.5001H36.9134L35.0818 18.6684C34.5285 18.1152 34.5285 17.2182 35.0818 16.6649ZM41.7502 27.5833C42.5326 27.5833 43.1668 28.2176 43.1668 29C43.1668 33.7151 39.2392 37.5001 34.6071 37.5001H21.0871L22.9186 39.3316C23.4718 39.8848 23.4718 40.7818 22.9186 41.3351C22.3653 41.8883 21.4683 41.8883 20.9151 41.3351L16.6651 37.0851C16.1119 36.5318 16.1119 35.6348 16.6651 35.0816L20.9151 30.8316C21.4683 30.2784 22.3653 30.2784 22.9186 30.8316C23.4718 31.3848 23.4718 32.2818 22.9186 32.8351L21.0869 34.6668H34.6071C37.7161 34.6668 40.3335 32.1089 40.3335 29C40.3335 28.2176 40.9678 27.5833 41.7502 27.5833Z" fill="white"/>
</svg>
