<svg width="301" height="91" viewBox="0 0 301 91" fill="none" xmlns="http://www.w3.org/2000/svg">
<g filter="url(#filter0_i_28_98)">
<rect x="1.95169" y="1.87274" width="297.417" height="86.7814" rx="13.5" stroke="url(#paint0_linear_28_98)" stroke-width="3"/>
</g>
<path d="M110.03 22.4549C109.892 22.024 109.708 21.6381 109.476 21.2972C109.248 20.9516 108.976 20.658 108.659 20.4165C108.342 20.1703 107.979 19.9833 107.572 19.8554C107.17 19.7276 106.727 19.6637 106.244 19.6637C105.425 19.6637 104.686 19.8744 104.028 20.2958C103.37 20.7172 102.849 21.3351 102.466 22.1495C102.087 22.9591 101.898 23.9511 101.898 25.1253C101.898 26.3043 102.089 27.301 102.473 28.1154C102.856 28.9298 103.382 29.5477 104.05 29.9691C104.717 30.3905 105.477 30.6012 106.329 30.6012C107.12 30.6012 107.809 30.4402 108.396 30.1182C108.988 29.7962 109.445 29.3417 109.767 28.7546C110.094 28.1627 110.257 27.4667 110.257 26.6665L110.825 26.773H106.663V24.962H112.381V26.6168C112.381 27.8384 112.12 28.899 111.599 29.7986C111.083 30.6935 110.368 31.3848 109.454 31.8725C108.545 32.3602 107.504 32.604 106.329 32.604C105.013 32.604 103.858 32.301 102.863 31.6949C101.874 31.0889 101.102 30.2295 100.548 29.1168C99.9941 27.9994 99.7172 26.6736 99.7172 25.1395C99.7172 23.9795 99.8781 22.9378 100.2 22.0145C100.522 21.0912 100.974 20.3076 101.557 19.6637C102.144 19.015 102.833 18.5202 103.623 18.1793C104.419 17.8337 105.288 17.6608 106.23 17.6608C107.016 17.6608 107.747 17.7768 108.425 18.0088C109.106 18.2409 109.712 18.5699 110.243 18.9961C110.778 19.4222 111.22 19.9288 111.571 20.5159C111.921 21.0983 112.158 21.7446 112.281 22.4549H110.03ZM114.766 32.4052V17.8597H123.886V19.7489H116.961V24.1807H123.41V26.0628H116.961V30.5159H123.971V32.4052H114.766ZM125.7 19.7489V17.8597H136.957V19.7489H132.419V32.4052H130.231V19.7489H125.7ZM141.239 17.8597V32.4052H139.044V17.8597H141.239ZM143.318 19.7489V17.8597H154.575V19.7489H150.037V32.4052H147.849V19.7489H143.318ZM174.19 25.1324C174.19 26.6855 173.906 28.0207 173.338 29.1381C172.77 30.2508 171.991 31.1078 171.001 31.7091C170.017 32.3057 168.897 32.604 167.642 32.604C166.383 32.604 165.258 32.3057 164.269 31.7091C163.284 31.1078 162.507 30.2484 161.939 29.131C161.371 28.0136 161.087 26.6807 161.087 25.1324C161.087 23.5794 161.371 22.2465 161.939 21.1338C162.507 20.0164 163.284 19.1594 164.269 18.5628C165.258 17.9615 166.383 17.6608 167.642 17.6608C168.897 17.6608 170.017 17.9615 171.001 18.5628C171.991 19.1594 172.77 20.0164 173.338 21.1338C173.906 22.2465 174.19 23.5794 174.19 25.1324ZM172.017 25.1324C172.017 23.9487 171.825 22.952 171.442 22.1424C171.063 21.328 170.542 20.7124 169.879 20.2958C169.221 19.8744 168.475 19.6637 167.642 19.6637C166.804 19.6637 166.056 19.8744 165.398 20.2958C164.74 20.7124 164.219 21.328 163.835 22.1424C163.456 22.952 163.267 23.9487 163.267 25.1324C163.267 26.3161 163.456 27.3152 163.835 28.1296C164.219 28.9392 164.74 29.5548 165.398 29.9762C166.056 30.3928 166.804 30.6012 167.642 30.6012C168.475 30.6012 169.221 30.3928 169.879 29.9762C170.542 29.5548 171.063 28.9392 171.442 28.1296C171.825 27.3152 172.017 26.3161 172.017 25.1324ZM188.267 17.8597V32.4052H186.25L178.856 21.7375H178.721V32.4052H176.527V17.8597H178.558L185.958 28.5415H186.093V17.8597H188.267ZM119.183 47.4946C118.936 46.7191 118.604 46.0245 118.186 45.4108C117.777 44.7887 117.287 44.2603 116.716 43.8256C116.145 43.3824 115.493 43.0458 114.76 42.8157C114.035 42.5855 113.238 42.4705 112.369 42.4705C110.895 42.4705 109.565 42.8498 108.381 43.6083C107.196 44.3668 106.258 45.479 105.568 46.9449C104.886 48.4023 104.545 50.1878 104.545 52.3015C104.545 54.4236 104.89 56.2177 105.581 57.6836C106.271 59.1495 107.217 60.2617 108.419 61.0202C109.621 61.7787 110.988 62.158 112.523 62.158C113.946 62.158 115.186 61.8682 116.243 61.2887C117.308 60.7091 118.131 59.8909 118.71 58.8341C119.298 57.7688 119.592 56.5159 119.592 55.0756L120.615 55.2674H113.123V52.0074H123.415V54.9861C123.415 57.185 122.946 59.0941 122.008 60.7134C121.079 62.3242 119.792 63.5685 118.148 64.4463C116.511 65.3242 114.636 65.7631 112.523 65.7631C110.153 65.7631 108.074 65.2177 106.284 64.1267C104.503 63.0358 103.113 61.489 102.116 59.4861C101.119 57.4748 100.621 55.0884 100.621 52.327C100.621 50.239 100.91 48.364 101.49 46.702C102.069 45.0401 102.883 43.6296 103.932 42.4705C104.988 41.3029 106.229 40.4123 107.652 39.7986C109.084 39.1765 110.648 38.8654 112.344 38.8654C113.758 38.8654 115.075 39.0742 116.294 39.4918C117.521 39.9094 118.612 40.5017 119.567 41.2688C120.53 42.0358 121.327 42.9478 121.957 44.0046C122.588 45.0529 123.014 46.2162 123.236 47.4946H119.183ZM135.674 65.8015C133.833 65.8015 132.226 65.3796 130.854 64.5358C129.482 63.6921 128.417 62.5117 127.658 60.9946C126.899 59.4776 126.52 57.7049 126.52 55.6765C126.52 53.6395 126.899 51.8583 127.658 50.3327C128.417 48.8071 129.482 47.6225 130.854 46.7787C132.226 45.935 133.833 45.5131 135.674 45.5131C137.515 45.5131 139.121 45.935 140.493 46.7787C141.865 47.6225 142.931 48.8071 143.689 50.3327C144.448 51.8583 144.827 53.6395 144.827 55.6765C144.827 57.7049 144.448 59.4776 143.689 60.9946C142.931 62.5117 141.865 63.6921 140.493 64.5358C139.121 65.3796 137.515 65.8015 135.674 65.8015ZM135.686 62.5927C136.88 62.5927 137.868 62.2773 138.652 61.6466C139.436 61.0159 140.016 60.1765 140.391 59.1282C140.774 58.0799 140.966 56.925 140.966 55.6637C140.966 54.4108 140.774 53.2603 140.391 52.212C140.016 51.1552 139.436 50.3071 138.652 49.6679C137.868 49.0287 136.88 48.7091 135.686 48.7091C134.485 48.7091 133.488 49.0287 132.695 49.6679C131.911 50.3071 131.327 51.1552 130.944 52.212C130.569 53.2603 130.381 54.4108 130.381 55.6637C130.381 56.925 130.569 58.0799 130.944 59.1282C131.327 60.1765 131.911 61.0159 132.695 61.6466C133.488 62.2773 134.485 62.5927 135.686 62.5927ZM156.645 65.8015C154.804 65.8015 153.198 65.3796 151.825 64.5358C150.453 63.6921 149.388 62.5117 148.629 60.9946C147.871 59.4776 147.492 57.7049 147.492 55.6765C147.492 53.6395 147.871 51.8583 148.629 50.3327C149.388 48.8071 150.453 47.6225 151.825 46.7787C153.198 45.935 154.804 45.5131 156.645 45.5131C158.486 45.5131 160.092 45.935 161.465 46.7787C162.837 47.6225 163.902 48.8071 164.661 50.3327C165.419 51.8583 165.798 53.6395 165.798 55.6765C165.798 57.7049 165.419 59.4776 164.661 60.9946C163.902 62.5117 162.837 63.6921 161.465 64.5358C160.092 65.3796 158.486 65.8015 156.645 65.8015ZM156.658 62.5927C157.851 62.5927 158.84 62.2773 159.624 61.6466C160.408 61.0159 160.987 60.1765 161.362 59.1282C161.746 58.0799 161.938 56.925 161.938 55.6637C161.938 54.4108 161.746 53.2603 161.362 52.212C160.987 51.1552 160.408 50.3071 159.624 49.6679C158.84 49.0287 157.851 48.7091 156.658 48.7091C155.456 48.7091 154.459 49.0287 153.666 49.6679C152.882 50.3071 152.298 51.1552 151.915 52.212C151.54 53.2603 151.352 54.4108 151.352 55.6637C151.352 56.925 151.54 58.0799 151.915 59.1282C152.298 60.1765 152.882 61.0159 153.666 61.6466C154.459 62.2773 155.456 62.5927 156.658 62.5927ZM177.578 73.1779C176.018 73.1779 174.676 72.9733 173.551 72.5642C172.435 72.1552 171.523 71.614 170.815 70.9407C170.108 70.2674 169.58 69.5302 169.23 68.729L172.516 67.3739C172.746 67.7489 173.053 68.1452 173.436 68.5628C173.828 68.989 174.357 69.3512 175.021 69.6495C175.695 69.9478 176.56 70.0969 177.616 70.0969C179.065 70.0969 180.263 69.7432 181.209 69.0358C182.155 68.337 182.628 67.2205 182.628 65.6864V61.8256H182.385C182.155 62.2432 181.822 62.7077 181.388 63.2191C180.962 63.7304 180.374 64.1736 179.624 64.5486C178.874 64.9236 177.898 65.1111 176.696 65.1111C175.145 65.1111 173.747 64.7489 172.503 64.0245C171.267 63.2915 170.287 62.2134 169.562 60.7901C168.847 59.3583 168.489 57.5983 168.489 55.5103C168.489 53.4222 168.842 51.6324 169.55 50.1409C170.266 48.6495 171.246 47.5074 172.49 46.7148C173.734 45.9137 175.145 45.5131 176.722 45.5131C177.94 45.5131 178.925 45.7177 179.675 46.1267C180.425 46.5273 181.008 46.9961 181.426 47.533C181.852 48.0699 182.18 48.5429 182.41 48.952H182.692V45.7688H186.437V65.8398C186.437 67.5273 186.045 68.9123 185.261 69.9946C184.477 71.077 183.416 71.8782 182.078 72.398C180.749 72.9179 179.249 73.1779 177.578 73.1779ZM177.54 61.9407C178.639 61.9407 179.568 61.685 180.327 61.1736C181.094 60.6537 181.673 59.9123 182.065 58.9492C182.466 57.9776 182.666 56.8142 182.666 55.4591C182.666 54.1381 182.47 52.9748 182.078 51.9691C181.686 50.9634 181.111 50.1793 180.352 49.6168C179.594 49.0458 178.656 48.7603 177.54 48.7603C176.389 48.7603 175.43 49.0586 174.663 49.6552C173.896 50.2432 173.317 51.0444 172.925 52.0586C172.541 53.0728 172.349 54.2063 172.349 55.4591C172.349 56.7461 172.545 57.8753 172.937 58.8469C173.33 59.8185 173.909 60.577 174.676 61.1225C175.452 61.6679 176.406 61.9407 177.54 61.9407ZM194.666 39.2233V65.4052H190.844V39.2233H194.666ZM207.552 65.8015C205.617 65.8015 203.951 65.3881 202.553 64.5614C201.164 63.7262 200.09 62.5543 199.332 61.0458C198.582 59.5287 198.207 57.7517 198.207 55.7148C198.207 53.7034 198.582 51.9307 199.332 50.3966C200.09 48.8625 201.147 47.6651 202.502 46.8043C203.866 45.9435 205.459 45.5131 207.283 45.5131C208.391 45.5131 209.465 45.6963 210.505 46.0628C211.545 46.4293 212.478 47.0046 213.305 47.7887C214.131 48.5728 214.783 49.5912 215.261 50.8441C215.738 52.0884 215.977 53.6012 215.977 55.3824V56.7375H200.367V53.8739H212.231C212.231 52.8682 212.026 51.9776 211.617 51.202C211.208 50.4179 210.633 49.8 209.891 49.3483C209.158 48.8966 208.298 48.6708 207.309 48.6708C206.235 48.6708 205.298 48.935 204.496 49.4634C203.704 49.9833 203.09 50.6651 202.656 51.5088C202.229 52.3441 202.016 53.2517 202.016 54.2319V56.4691C202.016 57.7816 202.246 58.898 202.707 59.8185C203.175 60.739 203.827 61.4421 204.663 61.9279C205.498 62.4052 206.474 62.6438 207.59 62.6438C208.315 62.6438 208.975 62.5415 209.572 62.337C210.168 62.1239 210.684 61.8086 211.119 61.3909C211.553 60.9733 211.886 60.4577 212.116 59.8441L215.734 60.4961C215.444 61.5614 214.924 62.4946 214.174 63.2958C213.432 64.0884 212.499 64.7063 211.374 65.1495C210.258 65.5841 208.984 65.8015 207.552 65.8015ZM228.612 65.4052V39.2233H237.944C239.981 39.2233 241.669 39.5941 243.007 40.3355C244.345 41.077 245.346 42.0912 246.011 43.3782C246.676 44.6566 247.008 46.0969 247.008 47.6992C247.008 49.31 246.671 50.7588 245.998 52.0458C245.333 53.3242 244.328 54.3384 242.981 55.0884C241.643 55.8299 239.96 56.2006 237.931 56.2006H231.514V52.8512H237.573C238.86 52.8512 239.904 52.6296 240.706 52.1864C241.507 51.7347 242.095 51.1211 242.47 50.3455C242.845 49.5699 243.032 48.6878 243.032 47.6992C243.032 46.7105 242.845 45.8327 242.47 45.0657C242.095 44.2986 241.502 43.6978 240.693 43.2631C239.892 42.8284 238.835 42.6111 237.522 42.6111H232.562V65.4052H228.612ZM254.435 39.2233V65.4052H250.612V39.2233H254.435ZM264.572 65.8398C263.327 65.8398 262.202 65.6097 261.197 65.1495C260.191 64.6807 259.394 64.0032 258.806 63.1168C258.227 62.2304 257.937 61.1438 257.937 59.8569C257.937 58.7489 258.15 57.837 258.576 57.1211C259.002 56.4052 259.577 55.8384 260.302 55.4208C261.026 55.0032 261.836 54.6878 262.731 54.4748C263.626 54.2617 264.538 54.0998 265.467 53.989C266.643 53.8526 267.597 53.7418 268.33 53.6566C269.063 53.5628 269.596 53.4137 269.928 53.2091C270.261 53.0046 270.427 52.6722 270.427 52.212V52.1225C270.427 51.006 270.111 50.1409 269.481 49.5273C268.859 48.9137 267.93 48.6069 266.694 48.6069C265.407 48.6069 264.393 48.8924 263.651 49.4634C262.918 50.0259 262.411 50.6523 262.13 51.3427L258.538 50.5245C258.964 49.3313 259.586 48.3682 260.404 47.6353C261.231 46.8938 262.181 46.3569 263.255 46.0245C264.329 45.6836 265.458 45.5131 266.643 45.5131C267.427 45.5131 268.258 45.6069 269.136 45.7944C270.022 45.9733 270.849 46.3057 271.616 46.7915C272.391 47.2773 273.026 47.9719 273.521 48.8753C274.015 49.7702 274.262 50.9336 274.262 52.3654V65.4052H270.529V62.7205H270.376C270.128 63.2148 269.758 63.7006 269.263 64.1779C268.769 64.6552 268.134 65.0515 267.359 65.3668C266.583 65.6821 265.654 65.8398 264.572 65.8398ZM265.403 62.7716C266.459 62.7716 267.363 62.5628 268.113 62.1452C268.871 61.7276 269.447 61.1821 269.839 60.5088C270.239 59.827 270.44 59.0983 270.44 58.3228V55.7915C270.303 55.9279 270.039 56.0557 269.647 56.175C269.263 56.2858 268.825 56.3838 268.33 56.4691C267.836 56.5458 267.354 56.6182 266.886 56.6864C266.417 56.7461 266.025 56.7972 265.709 56.8398C264.968 56.9336 264.29 57.0912 263.677 57.3128C263.072 57.5344 262.586 57.854 262.219 58.2716C261.861 58.6807 261.682 59.2262 261.682 59.908C261.682 60.854 262.032 61.5699 262.731 62.0557C263.43 62.533 264.32 62.7716 265.403 62.7716ZM280.346 72.7688C279.775 72.7688 279.255 72.7219 278.787 72.6282C278.318 72.5429 277.969 72.4492 277.738 72.3469L278.659 69.2148C279.358 69.4023 279.98 69.4833 280.525 69.4577C281.071 69.4321 281.552 69.2276 281.97 68.8441C282.396 68.4605 282.771 67.8341 283.095 66.9648L283.568 65.6608L276.383 45.7688H280.474L285.447 61.0074H285.652L290.625 45.7688H294.728L286.636 68.0259C286.261 69.0486 285.784 69.9137 285.204 70.6211C284.625 71.337 283.934 71.8739 283.133 72.2319C282.332 72.5898 281.403 72.7688 280.346 72.7688Z" fill="url(#paint1_linear_28_98)"/>
<path d="M110.03 22.4549L109.077 22.7585L109.299 23.4549H110.03V22.4549ZM109.476 21.2972L108.64 21.8466L108.644 21.8532L108.649 21.8598L109.476 21.2972ZM108.659 20.4165L108.046 21.2065L108.053 21.2122L108.659 20.4165ZM107.572 19.8554L107.27 20.8085L107.273 20.8095L107.572 19.8554ZM104.028 20.2958L104.567 21.1379L104.028 20.2958ZM102.466 22.1495L101.561 21.7234L101.56 21.7257L102.466 22.1495ZM102.473 28.1154L103.378 27.6893L102.473 28.1154ZM104.05 29.9691L104.583 29.1234L104.583 29.1234L104.05 29.9691ZM108.396 30.1182L107.918 29.2398L107.915 29.2414L108.396 30.1182ZM109.767 28.7546L108.891 28.2713L108.89 28.2738L109.767 28.7546ZM110.257 26.6665L110.441 25.6836L109.257 25.4616V26.6665H110.257ZM110.825 26.773V27.773L111.009 25.7902L110.825 26.773ZM106.663 26.773H105.663V27.773H106.663V26.773ZM106.663 24.962V23.962H105.663V24.962H106.663ZM112.381 24.962H113.381V23.962H112.381V24.962ZM111.599 29.7986L110.734 29.2976L110.733 29.299L111.599 29.7986ZM109.454 31.8725L108.984 30.9903L108.982 30.9913L109.454 31.8725ZM102.863 31.6949L102.341 32.5477L102.343 32.5488L102.863 31.6949ZM100.548 29.1168L99.6522 29.561L99.6529 29.5625L100.548 29.1168ZM100.2 22.0145L101.144 22.3438L100.2 22.0145ZM101.557 19.6637L100.815 18.9926L100.815 18.9929L101.557 19.6637ZM103.623 18.1793L104.019 19.0976L104.022 19.0965L103.623 18.1793ZM108.425 18.0088L108.1 18.9548L108.102 18.9555L108.425 18.0088ZM110.243 18.9961L109.616 19.7756L109.62 19.7783L110.243 18.9961ZM111.571 20.5159L110.712 21.0284L110.714 21.0315L111.571 20.5159ZM112.281 22.4549V23.4549H113.469L113.266 22.2841L112.281 22.4549ZM110.982 22.1512C110.819 21.6372 110.594 21.1626 110.302 20.7346L108.649 21.8598C108.822 22.1136 108.966 22.4108 109.077 22.7585L110.982 22.1512ZM110.311 20.7478C110.024 20.3112 109.675 19.9334 109.265 19.6208L108.053 21.2122C108.277 21.3826 108.473 21.5919 108.64 21.8466L110.311 20.7478ZM109.272 19.6265C108.855 19.3029 108.385 19.0626 107.872 18.9014L107.273 20.8095C107.574 20.904 107.828 21.0377 108.046 21.2065L109.272 19.6265ZM107.875 18.9024C107.362 18.7393 106.815 18.6637 106.244 18.6637V20.6637C106.639 20.6637 106.978 20.7159 107.27 20.8085L107.875 18.9024ZM106.244 18.6637C105.244 18.6637 104.316 18.9241 103.489 19.4536L104.567 21.1379C105.057 20.8247 105.606 20.6637 106.244 20.6637V18.6637ZM103.489 19.4536C102.649 19.9912 102.012 20.7651 101.561 21.7234L103.37 22.5755C103.686 21.905 104.091 21.4431 104.567 21.1379L103.489 19.4536ZM101.56 21.7257C101.103 22.7028 100.898 23.8486 100.898 25.1253H102.898C102.898 24.0536 103.071 23.2155 103.372 22.5732L101.56 21.7257ZM100.898 25.1253C100.898 26.4079 101.106 27.5592 101.568 28.5414L103.378 27.6893C103.073 27.0428 102.898 26.2007 102.898 25.1253H100.898ZM101.568 28.5414C102.021 29.5034 102.665 30.2779 103.516 30.8147L104.583 29.1234C104.098 28.8174 103.692 28.3562 103.378 27.6893L101.568 28.5414ZM103.516 30.8147C104.356 31.345 105.304 31.6012 106.329 31.6012V29.6012C105.65 29.6012 105.078 29.436 104.583 29.1234L103.516 30.8147ZM106.329 31.6012C107.258 31.6012 108.118 31.4113 108.877 30.995L107.915 29.2414C107.5 29.4691 106.982 29.6012 106.329 29.6012V31.6012ZM108.874 30.9967C109.633 30.5837 110.229 29.9917 110.644 29.2354L108.89 28.2738C108.661 28.6917 108.343 29.0088 107.918 29.2398L108.874 30.9967ZM110.642 29.2378C111.065 28.473 111.257 27.6046 111.257 26.6665H109.257C109.257 27.3288 109.123 27.8525 108.891 28.2713L110.642 29.2378ZM110.073 27.6494L110.641 27.7559L111.009 25.7902L110.441 25.6836L110.073 27.6494ZM110.825 25.773H106.663V27.773H110.825V25.773ZM107.663 26.773V24.962H105.663V26.773H107.663ZM106.663 25.962H112.381V23.962H106.663V25.962ZM111.381 24.962V26.6168H113.381V24.962H111.381ZM111.381 26.6168C111.381 27.6935 111.152 28.575 110.734 29.2976L112.465 30.2997C113.088 29.223 113.381 27.9833 113.381 26.6168H111.381ZM110.733 29.299C110.311 30.0314 109.733 30.5904 108.984 30.9903L109.925 32.7547C111.004 32.1792 111.856 31.3556 112.466 30.2982L110.733 29.299ZM108.982 30.9913C108.237 31.3908 107.362 31.604 106.329 31.604V33.604C107.646 33.604 108.854 33.3296 109.927 32.7537L108.982 30.9913ZM106.329 31.604C105.172 31.604 104.202 31.3395 103.384 30.841L102.343 32.5488C103.514 33.2624 104.854 33.604 106.329 33.604V31.604ZM103.386 30.8421C102.568 30.3411 101.92 29.6283 101.443 28.6711L99.6529 29.5625C100.284 30.8307 101.18 31.8366 102.341 32.5477L103.386 30.8421ZM101.444 28.6726C100.972 27.7214 100.717 26.5543 100.717 25.1395H98.7172C98.7172 26.7929 99.0158 28.2774 99.6522 29.561L101.444 28.6726ZM100.717 25.1395C100.717 24.0712 100.865 23.1436 101.144 22.3438L99.2559 21.6853C98.8908 22.732 98.7172 23.8877 98.7172 25.1395H100.717ZM101.144 22.3438C101.428 21.5308 101.816 20.8675 102.298 20.3344L100.815 18.9929C100.132 19.7478 99.6163 20.6516 99.2559 21.6853L101.144 22.3438ZM102.298 20.3347C102.791 19.7905 103.362 19.3809 104.019 19.0976L103.227 17.261C102.303 17.6596 101.497 18.2395 100.815 18.9926L102.298 20.3347ZM104.022 19.0965C104.681 18.81 105.413 18.6608 106.23 18.6608V16.6608C105.163 16.6608 104.157 16.8573 103.225 17.2621L104.022 19.0965ZM106.23 18.6608C106.916 18.6608 107.537 18.7619 108.1 18.9548L108.749 17.0628C107.958 16.7917 107.115 16.6608 106.23 16.6608V18.6608ZM108.102 18.9555C108.68 19.1522 109.182 19.4267 109.616 19.7756L110.869 18.2166C110.243 17.7132 109.532 17.3295 108.747 17.0622L108.102 18.9555ZM109.62 19.7783C110.061 20.1294 110.423 20.5447 110.712 21.0284L112.43 20.0035C112.017 19.313 111.495 18.7149 110.866 18.2138L109.62 19.7783ZM110.714 21.0315C110.997 21.5016 111.192 22.0298 111.296 22.6257L113.266 22.2841C113.123 21.4594 112.846 20.6951 112.428 20.0004L110.714 21.0315ZM112.281 21.4549H110.03V23.4549H112.281V21.4549ZM114.766 32.4052H113.766V33.4052H114.766V32.4052ZM114.766 17.8597V16.8597H113.766V17.8597H114.766ZM123.886 17.8597H124.886V16.8597H123.886V17.8597ZM123.886 19.7489V20.7489H124.886V19.7489H123.886ZM116.961 19.7489V18.7489H115.961V19.7489H116.961ZM116.961 24.1807H115.961V25.1807H116.961V24.1807ZM123.41 24.1807H124.41V23.1807H123.41V24.1807ZM123.41 26.0628V27.0628H124.41V26.0628H123.41ZM116.961 26.0628V25.0628H115.961V26.0628H116.961ZM116.961 30.5159H115.961V31.5159H116.961V30.5159ZM123.971 30.5159H124.971V29.5159H123.971V30.5159ZM123.971 32.4052V33.4052H124.971V32.4052H123.971ZM115.766 32.4052V17.8597H113.766V32.4052H115.766ZM114.766 18.8597H123.886V16.8597H114.766V18.8597ZM122.886 17.8597V19.7489H124.886V17.8597H122.886ZM123.886 18.7489H116.961V20.7489H123.886V18.7489ZM115.961 19.7489V24.1807H117.961V19.7489H115.961ZM116.961 25.1807H123.41V23.1807H116.961V25.1807ZM122.41 24.1807V26.0628H124.41V24.1807H122.41ZM123.41 25.0628H116.961V27.0628H123.41V25.0628ZM115.961 26.0628V30.5159H117.961V26.0628H115.961ZM116.961 31.5159H123.971V29.5159H116.961V31.5159ZM122.971 30.5159V32.4052H124.971V30.5159H122.971ZM123.971 31.4052H114.766V33.4052H123.971V31.4052ZM125.7 19.7489H124.7V20.7489H125.7V19.7489ZM125.7 17.8597V16.8597H124.7V17.8597H125.7ZM136.957 17.8597H137.957V16.8597H136.957V17.8597ZM136.957 19.7489V20.7489H137.957V19.7489H136.957ZM132.419 19.7489V18.7489H131.419V19.7489H132.419ZM132.419 32.4052V33.4052H133.419V32.4052H132.419ZM130.231 32.4052H129.231V33.4052H130.231V32.4052ZM130.231 19.7489H131.231V18.7489H130.231V19.7489ZM126.7 19.7489V17.8597H124.7V19.7489H126.7ZM125.7 18.8597H136.957V16.8597H125.7V18.8597ZM135.957 17.8597V19.7489H137.957V17.8597H135.957ZM136.957 18.7489H132.419V20.7489H136.957V18.7489ZM131.419 19.7489V32.4052H133.419V19.7489H131.419ZM132.419 31.4052H130.231V33.4052H132.419V31.4052ZM131.231 32.4052V19.7489H129.231V32.4052H131.231ZM130.231 18.7489H125.7V20.7489H130.231V18.7489ZM141.239 17.8597H142.239V16.8597H141.239V17.8597ZM141.239 32.4052V33.4052H142.239V32.4052H141.239ZM139.044 32.4052H138.044V33.4052H139.044V32.4052ZM139.044 17.8597V16.8597H138.044V17.8597H139.044ZM140.239 17.8597V32.4052H142.239V17.8597H140.239ZM141.239 31.4052H139.044V33.4052H141.239V31.4052ZM140.044 32.4052V17.8597H138.044V32.4052H140.044ZM139.044 18.8597H141.239V16.8597H139.044V18.8597ZM143.318 19.7489H142.318V20.7489H143.318V19.7489ZM143.318 17.8597V16.8597H142.318V17.8597H143.318ZM154.575 17.8597H155.575V16.8597H154.575V17.8597ZM154.575 19.7489V20.7489H155.575V19.7489H154.575ZM150.037 19.7489V18.7489H149.037V19.7489H150.037ZM150.037 32.4052V33.4052H151.037V32.4052H150.037ZM147.849 32.4052H146.849V33.4052H147.849V32.4052ZM147.849 19.7489H148.849V18.7489H147.849V19.7489ZM144.318 19.7489V17.8597H142.318V19.7489H144.318ZM143.318 18.8597H154.575V16.8597H143.318V18.8597ZM153.575 17.8597V19.7489H155.575V17.8597H153.575ZM154.575 18.7489H150.037V20.7489H154.575V18.7489ZM149.037 19.7489V32.4052H151.037V19.7489H149.037ZM150.037 31.4052H147.849V33.4052H150.037V31.4052ZM148.849 32.4052V19.7489H146.849V32.4052H148.849ZM147.849 18.7489H143.318V20.7489H147.849V18.7489ZM173.338 29.1381L174.229 29.5929L174.229 29.5914L173.338 29.1381ZM171.001 31.7091L171.52 32.5644L171.521 32.5637L171.001 31.7091ZM164.269 31.7091L163.747 32.5626L163.752 32.5655L164.269 31.7091ZM161.939 29.131L162.83 28.6778L161.939 29.131ZM161.939 21.1338L162.83 21.5886L162.83 21.5871L161.939 21.1338ZM164.269 18.5628L164.787 19.4181L164.788 19.4174L164.269 18.5628ZM171.001 18.5628L170.48 19.4163L170.485 19.4192L171.001 18.5628ZM173.338 21.1338L172.447 21.5871L172.447 21.5886L173.338 21.1338ZM171.442 22.1424L170.535 22.5641L170.538 22.5705L171.442 22.1424ZM169.879 20.2958L169.34 21.138L169.347 21.1424L169.879 20.2958ZM165.398 20.2958L165.933 21.1407L165.937 21.1379L165.398 20.2958ZM163.835 22.1424L162.931 21.7163L162.929 21.7186L163.835 22.1424ZM163.835 28.1296L162.929 28.5513L162.932 28.5577L163.835 28.1296ZM165.398 29.9762L164.859 30.8183L164.863 30.8211L165.398 29.9762ZM169.879 29.9762L170.414 30.8211L170.416 30.8201L169.879 29.9762ZM171.442 28.1296L170.537 27.7035L170.536 27.7058L171.442 28.1296ZM173.19 25.1324C173.19 26.5648 172.928 27.7374 172.447 28.6849L174.229 29.5914C174.884 28.3039 175.19 26.8061 175.19 25.1324H173.19ZM172.447 28.6833C171.957 29.6444 171.301 30.3571 170.482 30.8545L171.521 32.5637C172.681 31.8585 173.583 30.8571 174.229 29.5929L172.447 28.6833ZM170.483 30.8538C169.669 31.3473 168.731 31.604 167.642 31.604V33.604C169.063 33.604 170.365 33.2641 171.52 32.5644L170.483 30.8538ZM167.642 31.604C166.548 31.604 165.605 31.347 164.785 30.8527L163.752 32.5655C164.911 33.2644 166.218 33.604 167.642 33.604V31.604ZM164.79 30.8556C163.976 30.3592 163.322 29.6448 162.83 28.6778L161.048 29.5843C161.692 30.852 162.591 31.8565 163.747 32.5626L164.79 30.8556ZM162.83 28.6778C162.348 27.7299 162.087 26.5596 162.087 25.1324H160.087C160.087 26.8019 160.393 28.2972 161.048 29.5843L162.83 28.6778ZM162.087 25.1324C162.087 23.6998 162.349 22.5304 162.83 21.5886L161.048 20.6791C160.393 21.9627 160.087 23.459 160.087 25.1324H162.087ZM162.83 21.5871C163.322 20.6206 163.975 19.9096 164.787 19.4181L163.75 17.7075C162.592 18.4092 161.692 19.4123 161.048 20.6806L162.83 21.5871ZM164.788 19.4174C165.607 18.9195 166.549 18.6608 167.642 18.6608V16.6608C166.216 16.6608 164.909 17.0035 163.749 17.7082L164.788 19.4174ZM167.642 18.6608C168.73 18.6608 169.666 18.9191 170.48 19.4163L171.523 17.7093C170.367 17.0039 169.064 16.6608 167.642 16.6608V18.6608ZM170.485 19.4192C171.301 19.911 171.956 20.6218 172.447 21.5871L174.229 20.6806C173.584 19.411 172.681 18.4078 171.518 17.7064L170.485 19.4192ZM172.447 21.5886C172.928 22.5304 173.19 23.6998 173.19 25.1324H175.19C175.19 23.459 174.884 21.9627 174.229 20.6791L172.447 21.5886ZM173.017 25.1324C173.017 23.8461 172.809 22.6935 172.346 21.7143L170.538 22.5705C170.841 23.2105 171.017 24.0513 171.017 25.1324H173.017ZM172.349 21.7206C171.901 20.7579 171.261 19.9828 170.411 19.4491L169.347 21.1424C169.824 21.442 170.225 21.8981 170.535 22.5641L172.349 21.7206ZM170.419 19.4536C169.589 18.9222 168.653 18.6637 167.642 18.6637V20.6637C168.298 20.6637 168.854 20.8265 169.34 21.1379L170.419 19.4536ZM167.642 18.6637C166.627 18.6637 165.689 18.9216 164.859 19.4536L165.937 21.1379C166.422 20.8271 166.981 20.6637 167.642 20.6637V18.6637ZM164.863 19.4509C164.02 19.9842 163.382 20.7573 162.931 21.7163L164.74 22.5684C165.055 21.8986 165.459 21.4407 165.933 21.1407L164.863 19.4509ZM162.929 21.7186C162.472 22.6966 162.267 23.8476 162.267 25.1324H164.267C164.267 24.0499 164.441 23.2074 164.741 22.5661L162.929 21.7186ZM162.267 25.1324C162.267 26.4176 162.472 27.5698 162.929 28.5513L164.742 27.7079C164.441 27.0605 164.267 26.2147 164.267 25.1324H162.267ZM162.932 28.5577C163.383 29.5114 164.02 30.2817 164.859 30.8183L165.937 29.134C165.459 28.8279 165.054 28.3671 164.739 27.7015L162.932 28.5577ZM164.863 30.8211C165.693 31.3468 166.63 31.6012 167.642 31.6012V29.6012C166.978 29.6012 166.419 29.4389 165.933 29.1313L164.863 30.8211ZM167.642 31.6012C168.651 31.6012 169.585 31.3462 170.414 30.8211L169.344 29.1313C168.858 29.4395 168.3 29.6012 167.642 29.6012V31.6012ZM170.416 30.8201C171.261 30.2831 171.9 29.5109 172.348 28.5533L170.536 27.7058C170.226 28.3676 169.824 28.8265 169.343 29.1323L170.416 30.8201ZM172.346 28.5556C172.809 27.5729 173.017 26.419 173.017 25.1324H171.017C171.017 26.2132 170.841 27.0574 170.537 27.7035L172.346 28.5556ZM188.267 17.8597H189.267V16.8597H188.267V17.8597ZM188.267 32.4052V33.4052H189.267V32.4052H188.267ZM186.25 32.4052L185.428 32.9748L185.726 33.4052H186.25V32.4052ZM178.856 21.7375L179.678 21.1679L179.38 20.7375H178.856V21.7375ZM178.721 21.7375V20.7375H177.721V21.7375H178.721ZM178.721 32.4052V33.4052H179.721V32.4052H178.721ZM176.527 32.4052H175.527V33.4052H176.527V32.4052ZM176.527 17.8597V16.8597H175.527V17.8597H176.527ZM178.558 17.8597L179.38 17.2902L179.082 16.8597H178.558V17.8597ZM185.958 28.5415L185.136 29.111L185.435 29.5415H185.958V28.5415ZM186.093 28.5415V29.5415H187.093V28.5415H186.093ZM186.093 17.8597V16.8597H185.093V17.8597H186.093ZM187.267 17.8597V32.4052H189.267V17.8597H187.267ZM188.267 31.4052H186.25V33.4052H188.267V31.4052ZM187.071 31.8355L179.678 21.1679L178.034 22.3072L185.428 32.9748L187.071 31.8355ZM178.856 20.7375H178.721V22.7375H178.856V20.7375ZM177.721 21.7375V32.4052H179.721V21.7375H177.721ZM178.721 31.4052H176.527V33.4052H178.721V31.4052ZM177.527 32.4052V17.8597H175.527V32.4052H177.527ZM176.527 18.8597H178.558V16.8597H176.527V18.8597ZM177.736 18.4292L185.136 29.111L186.78 27.972L179.38 17.2902L177.736 18.4292ZM185.958 29.5415H186.093V27.5415H185.958V29.5415ZM187.093 28.5415V17.8597H185.093V28.5415H187.093ZM186.093 18.8597H188.267V16.8597H186.093V18.8597ZM119.183 47.4946L118.23 47.7983L118.452 48.4946H119.183V47.4946ZM118.186 45.4108L117.35 45.9602L117.355 45.9669L117.359 45.9735L118.186 45.4108ZM116.716 43.8256L116.103 44.6156L116.11 44.6213L116.716 43.8256ZM114.76 42.8157L114.457 43.7687L114.46 43.7697L114.76 42.8157ZM108.381 43.6083L108.92 44.4504H108.92L108.381 43.6083ZM105.568 46.9449L104.663 46.5189L104.662 46.5212L105.568 46.9449ZM105.581 57.6836L106.485 57.2575L105.581 57.6836ZM108.419 61.0202L108.953 60.1746L108.419 61.0202ZM116.243 61.2887L115.765 60.4102L115.762 60.4119L116.243 61.2887ZM118.71 58.8341L117.835 58.3509L117.833 58.3533L118.71 58.8341ZM119.592 55.0756L119.776 54.0927L118.592 53.8707V55.0756H119.592ZM120.615 55.2674V56.2674L120.799 54.2845L120.615 55.2674ZM113.123 55.2674H112.123V56.2674H113.123V55.2674ZM113.123 52.0074V51.0074H112.123V52.0074H113.123ZM123.415 52.0074H124.415V51.0074H123.415V52.0074ZM122.008 60.7134L121.143 60.2124L121.142 60.2138L122.008 60.7134ZM118.148 64.4463L117.677 63.5641L117.675 63.5651L118.148 64.4463ZM106.284 64.1267L105.762 64.9795L105.763 64.9806L106.284 64.1267ZM102.116 59.4861L101.22 59.9303L101.221 59.9318L102.116 59.4861ZM101.49 46.702L102.434 47.0313L101.49 46.702ZM103.932 42.4705L103.19 41.7994L103.19 41.7997L103.932 42.4705ZM107.652 39.7986L108.048 40.7169L108.05 40.7158L107.652 39.7986ZM116.294 39.4918L115.97 40.4378L115.972 40.4385L116.294 39.4918ZM119.567 41.2688L118.94 42.0483L118.944 42.051L119.567 41.2688ZM121.957 44.0046L121.098 44.517L121.1 44.5201L121.957 44.0046ZM123.236 47.4946V48.4946H124.424L124.221 47.3239L123.236 47.4946ZM120.136 47.191C119.862 46.3323 119.49 45.5489 119.013 44.8482L117.359 45.9735C117.718 46.5 118.01 47.1059 118.23 47.7983L120.136 47.191ZM119.021 44.8614C118.553 44.1484 117.986 43.5356 117.321 43.0299L116.11 44.6213C116.588 44.9849 117.001 45.429 117.35 45.9602L119.021 44.8614ZM117.329 43.0356C116.658 42.5151 115.899 42.1251 115.059 41.8616L114.46 43.7697C115.087 43.9665 115.631 44.2498 116.103 44.6156L117.329 43.0356ZM115.063 41.8626C114.227 41.5973 113.327 41.4705 112.369 41.4705V43.4705C113.15 43.4705 113.843 43.5738 114.457 43.7687L115.063 41.8626ZM112.369 41.4705C110.713 41.4705 109.195 41.8994 107.841 42.7661L108.92 44.4504C109.935 43.8001 111.076 43.4705 112.369 43.4705V41.4705ZM107.841 42.7661C106.475 43.6408 105.421 44.909 104.663 46.5189L106.473 47.371C107.095 46.049 107.917 45.0928 108.92 44.4504L107.841 42.7661ZM104.662 46.5212C103.902 48.146 103.545 50.0853 103.545 52.3015H105.545C105.545 50.2903 105.87 48.6587 106.474 47.3687L104.662 46.5212ZM103.545 52.3015C103.545 54.5272 103.907 56.4759 104.676 58.1096L106.485 57.2575C105.874 55.9594 105.545 54.32 105.545 52.3015H103.545ZM104.676 58.1096C105.436 59.7231 106.501 60.9919 107.885 61.8658L108.953 60.1746C107.934 59.5314 107.106 58.5759 106.485 57.2575L104.676 58.1096ZM107.885 61.8658C109.259 62.7332 110.815 63.158 112.523 63.158V61.158C111.162 61.158 109.982 60.8242 108.953 60.1746L107.885 61.8658ZM112.523 63.158C114.083 63.158 115.495 62.8393 116.724 62.1655L115.762 60.4119C114.877 60.8971 113.808 61.158 112.523 61.158V63.158ZM116.721 62.1671C117.953 61.4966 118.915 60.5409 119.587 59.315L117.833 58.3533C117.346 59.241 116.663 59.9217 115.765 60.4102L116.721 62.1671ZM119.586 59.3174C120.269 58.0791 120.592 56.6539 120.592 55.0756H118.592C118.592 56.378 118.327 57.4585 117.835 58.3509L119.586 59.3174ZM119.408 56.0585L120.431 56.2502L120.799 54.2845L119.776 54.0927L119.408 56.0585ZM120.615 54.2674H113.123V56.2674H120.615V54.2674ZM114.123 55.2674V52.0074H112.123V55.2674H114.123ZM113.123 53.0074H123.415V51.0074H113.123V53.0074ZM122.415 52.0074V54.9861H124.415V52.0074H122.415ZM122.415 54.9861C122.415 57.0401 121.978 58.7701 121.143 60.2124L122.874 61.2144C123.914 59.418 124.415 57.3299 124.415 54.9861H122.415ZM121.142 60.2138C120.307 61.6621 119.157 62.7741 117.677 63.5641L118.618 65.3286C120.428 64.3629 121.852 62.9863 122.875 61.213L121.142 60.2138ZM117.675 63.5651C116.203 64.3548 114.494 64.7631 112.523 64.7631V66.7631C114.778 66.7631 116.82 66.2936 118.62 65.3276L117.675 63.5651ZM112.523 64.7631C110.312 64.7631 108.418 64.2562 106.804 63.2729L105.763 64.9806C107.73 66.1791 109.994 66.7631 112.523 66.7631V64.7631ZM106.806 63.274C105.196 62.2881 103.931 60.8877 103.011 59.0404L101.221 59.9318C102.296 62.0902 103.809 63.7836 105.762 64.9795L106.806 63.274ZM103.012 59.0419C102.097 57.1968 101.621 54.9691 101.621 52.327H99.6206C99.6206 55.2077 100.141 57.7528 101.22 59.9303L103.012 59.0419ZM101.621 52.327C101.621 50.3307 101.898 48.5697 102.434 47.0313L100.546 46.3728C99.923 48.1582 99.6206 50.1472 99.6206 52.327H101.621ZM102.434 47.0313C102.975 45.4797 103.725 44.1894 104.673 43.1413L103.19 41.7997C102.041 43.0697 101.164 44.6005 100.546 46.3728L102.434 47.0313ZM104.673 43.1415C105.635 42.0784 106.758 41.2729 108.048 40.7169L107.256 38.8803C105.699 39.5516 104.342 40.5274 103.19 41.7994L104.673 43.1415ZM108.05 40.7158C109.346 40.1528 110.773 39.8654 112.344 39.8654V37.8654C110.522 37.8654 108.821 38.2001 107.253 38.8815L108.05 40.7158ZM112.344 39.8654C113.659 39.8654 114.865 40.0593 115.97 40.4378L116.618 38.5458C115.285 38.0891 113.858 37.8654 112.344 37.8654V39.8654ZM115.972 40.4385C117.095 40.8208 118.082 41.3585 118.94 42.0483L120.193 40.4893C119.142 39.645 117.947 38.9981 116.616 38.5451L115.972 40.4385ZM118.944 42.051C119.813 42.7431 120.53 43.5636 121.098 44.517L122.816 43.4921C122.124 42.3319 121.247 41.3286 120.19 40.4866L118.944 42.051ZM121.1 44.5201C121.663 45.4561 122.049 46.5014 122.25 47.6654L124.221 47.3239C123.98 45.931 123.512 44.6496 122.814 43.4891L121.1 44.5201ZM123.236 46.4946H119.183V48.4946H123.236V46.4946ZM127.658 60.9946L128.552 60.5474L127.658 60.9946ZM130.854 46.7787L131.378 47.6306L130.854 46.7787ZM140.493 46.7787L139.969 47.6306L140.493 46.7787ZM143.689 60.9946L142.795 60.5474L143.689 60.9946ZM140.493 64.5358L141.017 65.3877L140.493 64.5358ZM138.652 61.6466L138.026 60.8674L138.652 61.6466ZM140.391 59.1282L139.452 58.7846L139.449 58.7913L140.391 59.1282ZM140.391 52.212L139.449 52.5464L139.452 52.5555L140.391 52.212ZM138.652 49.6679L138.02 50.443L138.652 49.6679ZM132.695 49.6679L132.067 48.8895L132.063 48.8929L132.695 49.6679ZM130.944 52.212L130.004 51.8708L130.002 51.8751L130.944 52.212ZM130.944 59.1282L130.002 59.465L130.004 59.4717L130.944 59.1282ZM132.695 61.6466L132.068 62.4259L132.072 62.4291L132.695 61.6466ZM135.674 64.8015C133.991 64.8015 132.571 64.4176 131.378 63.684L130.33 65.3877C131.881 66.3415 133.675 66.8015 135.674 66.8015V64.8015ZM131.378 63.684C130.173 62.9432 129.232 61.9069 128.552 60.5474L126.764 61.4419C127.601 63.1165 128.791 64.441 130.33 65.3877L131.378 63.684ZM128.552 60.5474C127.876 59.1939 127.52 57.5798 127.52 55.6765H125.52C125.52 57.83 125.923 59.7613 126.764 61.4419L128.552 60.5474ZM127.52 55.6765C127.52 53.7641 127.876 52.1406 128.553 50.7779L126.763 49.8875C125.923 51.5759 125.52 53.515 125.52 55.6765H127.52ZM128.553 50.7779C129.234 49.4099 130.175 48.3705 131.378 47.6306L130.33 45.9269C128.789 46.8745 127.599 48.2044 126.763 49.8875L128.553 50.7779ZM131.378 47.6306C132.571 46.8969 133.991 46.5131 135.674 46.5131V44.5131C133.675 44.5131 131.881 44.973 130.33 45.9269L131.378 47.6306ZM135.674 46.5131C137.357 46.5131 138.776 46.8969 139.969 47.6306L141.017 45.9269C139.466 44.973 137.673 44.5131 135.674 44.5131V46.5131ZM139.969 47.6306C141.173 48.3705 142.114 49.4099 142.794 50.7779L144.585 49.8875C143.748 48.2044 142.558 46.8745 141.017 45.9269L139.969 47.6306ZM142.794 50.7779C143.471 52.1406 143.827 53.7641 143.827 55.6765H145.827C145.827 53.515 145.424 51.5759 144.585 49.8875L142.794 50.7779ZM143.827 55.6765C143.827 57.5798 143.472 59.1939 142.795 60.5474L144.584 61.4419C145.424 59.7613 145.827 57.83 145.827 55.6765H143.827ZM142.795 60.5474C142.115 61.9069 141.174 62.9432 139.969 63.684L141.017 65.3877C142.557 64.441 143.746 63.1165 144.584 61.4419L142.795 60.5474ZM139.969 63.684C138.776 64.4176 137.357 64.8015 135.674 64.8015V66.8015C137.673 66.8015 139.466 66.3415 141.017 65.3877L139.969 63.684ZM135.686 63.5927C137.063 63.5927 138.286 63.2248 139.279 62.4258L138.026 60.8674C137.451 61.3298 136.696 61.5927 135.686 61.5927V63.5927ZM139.279 62.4258C140.222 61.6675 140.902 60.6679 141.333 59.465L139.449 58.7913C139.13 59.685 138.651 60.3644 138.026 60.8674L139.279 62.4258ZM141.33 59.4717C141.759 58.3 141.966 57.0272 141.966 55.6637H139.966C139.966 56.8229 139.79 57.8597 139.452 58.7846L141.33 59.4717ZM141.966 55.6637C141.966 54.3079 141.759 53.0394 141.33 51.8684L139.452 52.5555C139.79 53.4812 139.966 54.5138 139.966 55.6637H141.966ZM141.333 51.8776C140.904 50.6675 140.225 49.66 139.284 48.8929L138.02 50.443C138.648 50.9543 139.128 51.6428 139.449 52.5464L141.333 51.8776ZM139.284 48.8929C138.291 48.083 137.067 47.7091 135.686 47.7091V49.7091C136.693 49.7091 137.446 49.9744 138.02 50.443L139.284 48.8929ZM135.686 47.7091C134.299 47.7091 133.068 48.0821 132.067 48.8895L133.323 50.4463C133.907 49.9753 134.67 49.7091 135.686 49.7091V47.7091ZM132.063 48.8929C131.124 49.6586 130.442 50.6636 130.004 51.8708L131.884 52.5531C132.212 51.6467 132.698 50.9557 133.327 50.443L132.063 48.8929ZM130.002 51.8751C129.584 53.0442 129.381 54.3103 129.381 55.6637H131.381C131.381 54.5114 131.553 53.4764 131.885 52.5488L130.002 51.8751ZM129.381 55.6637C129.381 57.0247 129.584 58.2953 130.002 59.465L131.885 58.7913C131.554 57.8645 131.381 56.8253 131.381 55.6637H129.381ZM130.004 59.4717C130.443 60.6717 131.127 61.6689 132.068 62.4258L133.322 60.8674C132.695 60.363 132.211 59.6812 131.883 58.7846L130.004 59.4717ZM132.072 62.4291C133.073 63.2257 134.302 63.5927 135.686 63.5927V61.5927C134.667 61.5927 133.902 61.3289 133.318 60.8641L132.072 62.4291ZM148.629 60.9946L149.524 60.5474L148.629 60.9946ZM151.825 46.7787L152.349 47.6306L151.825 46.7787ZM161.465 46.7787L160.941 47.6306L161.465 46.7787ZM164.661 60.9946L163.766 60.5474L164.661 60.9946ZM161.465 64.5358L161.988 65.3877L161.465 64.5358ZM159.624 61.6466L158.997 60.8674L159.624 61.6466ZM161.362 59.1282L160.423 58.7846L160.421 58.7913L161.362 59.1282ZM161.362 52.212L160.42 52.5464L160.423 52.5555L161.362 52.212ZM159.624 49.6679L158.992 50.443L159.624 49.6679ZM153.666 49.6679L153.039 48.8895L153.034 48.8929L153.666 49.6679ZM151.915 52.212L150.975 51.8708L150.973 51.8751L151.915 52.212ZM151.915 59.1282L150.973 59.465L150.976 59.4717L151.915 59.1282ZM153.666 61.6466L153.04 62.4259L153.044 62.4291L153.666 61.6466ZM156.645 64.8015C154.962 64.8015 153.542 64.4176 152.349 63.684L151.302 65.3877C152.853 66.3415 154.646 66.8015 156.645 66.8015V64.8015ZM152.349 63.684C151.145 62.9432 150.204 61.9069 149.524 60.5474L147.735 61.4419C148.572 63.1165 149.762 64.441 151.302 65.3877L152.349 63.684ZM149.524 60.5474C148.847 59.1939 148.492 57.5798 148.492 55.6765H146.492C146.492 57.83 146.895 59.7613 147.735 61.4419L149.524 60.5474ZM148.492 55.6765C148.492 53.7641 148.847 52.1406 149.525 50.7779L147.734 49.8875C146.895 51.5759 146.492 53.515 146.492 55.6765H148.492ZM149.525 50.7779C150.205 49.4099 151.146 48.3705 152.349 47.6306L151.302 45.9269C149.761 46.8745 148.571 48.2044 147.734 49.8875L149.525 50.7779ZM152.349 47.6306C153.542 46.8969 154.962 46.5131 156.645 46.5131V44.5131C154.646 44.5131 152.853 44.973 151.302 45.9269L152.349 47.6306ZM156.645 46.5131C158.328 46.5131 159.748 46.8969 160.941 47.6306L161.988 45.9269C160.437 44.973 158.644 44.5131 156.645 44.5131V46.5131ZM160.941 47.6306C162.144 48.3705 163.085 49.4099 163.765 50.7779L165.556 49.8875C164.719 48.2044 163.529 46.8745 161.988 45.9269L160.941 47.6306ZM163.765 50.7779C164.443 52.1406 164.798 53.7641 164.798 55.6765H166.798C166.798 53.515 166.396 51.5759 165.556 49.8875L163.765 50.7779ZM164.798 55.6765C164.798 57.5798 164.443 59.1939 163.766 60.5474L165.555 61.4419C166.395 59.7613 166.798 57.83 166.798 55.6765H164.798ZM163.766 60.5474C163.087 61.9069 162.146 62.9432 160.941 63.684L161.988 65.3877C163.528 64.441 164.718 63.1165 165.555 61.4419L163.766 60.5474ZM160.941 63.684C159.748 64.4176 158.328 64.8015 156.645 64.8015V66.8015C158.644 66.8015 160.437 66.3415 161.988 65.3877L160.941 63.684ZM156.658 63.5927C158.035 63.5927 159.257 63.2248 160.251 62.4258L158.997 60.8674C158.422 61.3298 157.667 61.5927 156.658 61.5927V63.5927ZM160.251 62.4258C161.193 61.6675 161.874 60.6679 162.304 59.465L160.421 58.7913C160.101 59.685 159.622 60.3644 158.997 60.8674L160.251 62.4258ZM162.302 59.4717C162.73 58.3 162.938 57.0272 162.938 55.6637H160.938C160.938 56.8229 160.762 57.8597 160.423 58.7846L162.302 59.4717ZM162.938 55.6637C162.938 54.3079 162.73 53.0394 162.302 51.8684L160.423 52.5555C160.762 53.4812 160.938 54.5138 160.938 55.6637H162.938ZM162.305 51.8776C161.875 50.6675 161.197 49.66 160.256 48.8929L158.992 50.443C159.619 50.9543 160.099 51.6428 160.42 52.5464L162.305 51.8776ZM160.256 48.8929C159.262 48.083 158.038 47.7091 156.658 47.7091V49.7091C157.664 49.7091 158.417 49.9744 158.992 50.443L160.256 48.8929ZM156.658 47.7091C155.271 47.7091 154.04 48.0821 153.039 48.8895L154.294 50.4463C154.878 49.9753 155.642 49.7091 156.658 49.7091V47.7091ZM153.034 48.8929C152.095 49.6586 151.413 50.6636 150.975 51.8708L152.855 52.5531C153.184 51.6467 153.669 50.9557 154.298 50.443L153.034 48.8929ZM150.973 51.8751C150.555 53.0442 150.352 54.3103 150.352 55.6637H152.352C152.352 54.5114 152.525 53.4764 152.857 52.5488L150.973 51.8751ZM150.352 55.6637C150.352 57.0247 150.555 58.2953 150.973 59.465L152.857 58.7913C152.525 57.8645 152.352 56.8253 152.352 55.6637H150.352ZM150.976 59.4717C151.415 60.6717 152.099 61.6689 153.04 62.4258L154.293 60.8674C153.666 60.363 153.182 59.6812 152.854 58.7846L150.976 59.4717ZM153.044 62.4291C154.045 63.2257 155.274 63.5927 156.658 63.5927V61.5927C155.638 61.5927 154.873 61.3289 154.289 60.8641L153.044 62.4291ZM173.551 72.5642L173.207 73.5032L173.209 73.504L173.551 72.5642ZM170.815 70.9407L171.505 70.2163L170.815 70.9407ZM169.23 68.729L168.849 67.8046L167.906 68.1936L168.313 69.1288L169.23 68.729ZM172.516 67.3739L173.368 66.8509L172.922 66.1245L172.134 66.4494L172.516 67.3739ZM173.436 68.5628L172.7 69.2392L172.7 69.2399L173.436 68.5628ZM175.021 69.6495L174.612 70.5618L174.616 70.5638L175.021 69.6495ZM181.209 69.0358L180.615 68.2315L180.61 68.235L181.209 69.0358ZM182.628 61.8256H183.628V60.8256H182.628V61.8256ZM182.385 61.8256V60.8256H181.794L181.509 61.343L182.385 61.8256ZM181.388 63.2191L180.626 62.5714L180.62 62.5789L181.388 63.2191ZM179.624 64.5486L179.176 63.6542L179.624 64.5486ZM172.503 64.0245L171.993 64.8846L172 64.8887L172.503 64.0245ZM169.562 60.7901L168.668 61.2373L168.671 61.2437L169.562 60.7901ZM169.55 50.1409L168.648 49.7082L168.646 49.7124L169.55 50.1409ZM172.49 46.7148L173.027 47.5582L173.031 47.5556L172.49 46.7148ZM179.675 46.1267L179.196 47.0047L179.204 47.0088L179.675 46.1267ZM181.426 47.533L180.637 48.147L180.643 48.1546L181.426 47.533ZM182.41 48.952L181.539 49.4423L181.826 49.952H182.41V48.952ZM182.692 48.952V49.952H183.692V48.952H182.692ZM182.692 45.7688V44.7688H181.692V45.7688H182.692ZM186.437 45.7688H187.437V44.7688H186.437V45.7688ZM185.261 69.9946L184.451 69.408L185.261 69.9946ZM182.078 72.398L181.716 71.4659L181.714 71.4667L182.078 72.398ZM180.327 61.1736L180.886 62.0028L180.888 62.0014L180.327 61.1736ZM182.065 58.9492L181.141 58.568L181.139 58.5721L182.065 58.9492ZM180.352 49.6168L179.751 50.4157L179.757 50.42L180.352 49.6168ZM174.663 49.6552L175.272 50.4488L175.277 50.4445L174.663 49.6552ZM172.925 52.0586L171.992 51.698L171.989 51.7049L172.925 52.0586ZM172.937 58.8469L173.865 58.4727L172.937 58.8469ZM174.676 61.1225L174.097 61.9374L174.101 61.9404L174.676 61.1225ZM177.578 72.1779C176.102 72.1779 174.881 71.9837 173.893 71.6245L173.209 73.504C174.471 73.963 175.935 74.1779 177.578 74.1779V72.1779ZM173.895 71.6253C172.88 71.2533 172.094 70.777 171.505 70.2163L170.126 71.665C170.952 72.4509 171.989 73.057 173.207 73.5032L173.895 71.6253ZM171.505 70.2163C170.883 69.6242 170.437 68.9945 170.147 68.3292L168.313 69.1288C168.722 70.0658 169.333 70.9106 170.126 71.665L171.505 70.2163ZM169.611 69.6535L172.897 68.2984L172.134 66.4494L168.849 67.8046L169.611 69.6535ZM171.663 67.8969C171.935 68.3397 172.284 68.7871 172.7 69.2392L174.173 67.8864C173.821 67.5033 173.556 67.1581 173.368 66.8509L171.663 67.8969ZM172.7 69.2399C173.204 69.788 173.854 70.2219 174.612 70.5618L175.431 68.7371C174.859 68.4805 174.452 68.19 174.172 67.8858L172.7 69.2399ZM174.616 70.5638C175.46 70.9376 176.476 71.0969 177.616 71.0969V69.0969C176.643 69.0969 175.929 68.958 175.426 68.7352L174.616 70.5638ZM177.616 71.0969C179.231 71.0969 180.653 70.7004 181.808 69.8367L180.61 68.235C179.873 68.7861 178.899 69.0969 177.616 69.0969V71.0969ZM181.803 69.8402C183.079 68.8977 183.628 67.432 183.628 65.6864H181.628C181.628 67.009 181.231 67.7763 180.615 68.2315L181.803 69.8402ZM183.628 65.6864V61.8256H181.628V65.6864H183.628ZM182.628 60.8256H182.385V62.8256H182.628V60.8256ZM181.509 61.343C181.321 61.6836 181.033 62.0922 180.626 62.5714L182.15 63.8667C182.612 63.3232 182.988 62.8028 183.261 62.3082L181.509 61.343ZM180.62 62.5789C180.301 62.9606 179.834 63.3254 179.176 63.6542L180.071 65.443C180.913 65.0218 181.622 64.5003 182.156 63.8593L180.62 62.5789ZM179.176 63.6542C178.612 63.9363 177.805 64.1111 176.696 64.1111V66.1111C177.99 66.1111 179.135 65.9109 180.071 65.443L179.176 63.6542ZM176.696 64.1111C175.308 64.1111 174.086 63.7889 173.006 63.1603L172 64.8887C173.409 65.7089 174.982 66.1111 176.696 66.1111V64.1111ZM173.013 63.1644C171.958 62.5386 171.102 61.6104 170.454 60.3365L168.671 61.2437C169.472 62.8164 170.576 64.0444 171.993 64.8846L173.013 63.1644ZM170.457 60.3429C169.828 59.0856 169.489 57.4886 169.489 55.5103H167.489C167.489 57.7081 167.865 59.631 168.668 61.2373L170.457 60.3429ZM169.489 55.5103C169.489 53.5323 169.824 51.8964 170.453 50.5695L168.646 49.7124C167.861 51.3684 167.489 53.312 167.489 55.5103H169.489ZM170.451 50.5737C171.096 49.2294 171.959 48.2388 173.027 47.5582L171.953 45.8714C170.533 46.7761 169.435 48.0695 168.648 49.7082L170.451 50.5737ZM173.031 47.5556C174.104 46.8653 175.324 46.5131 176.722 46.5131V44.5131C174.966 44.5131 173.365 44.962 171.949 45.874L173.031 47.5556ZM176.722 46.5131C177.84 46.5131 178.642 46.7026 179.196 47.0046L180.154 45.2488C179.207 44.7327 178.041 44.5131 176.722 44.5131V46.5131ZM179.204 47.0088C179.86 47.3593 180.324 47.7447 180.637 48.1469L182.215 46.9191C181.693 46.2474 180.99 45.6953 180.146 45.2447L179.204 47.0088ZM180.643 48.1546C181.05 48.6672 181.344 49.095 181.539 49.4423L183.282 48.4618C183.017 47.9909 182.655 47.4726 182.209 46.9113L180.643 48.1546ZM182.41 49.952H182.692V47.952H182.41V49.952ZM183.692 48.952V45.7688H181.692V48.952H183.692ZM182.692 46.7688H186.437V44.7688H182.692V46.7688ZM185.437 45.7688V65.8398H187.437V45.7688H185.437ZM185.437 65.8398C185.437 67.3724 185.083 68.5364 184.451 69.408L186.071 70.5813C187.008 69.2881 187.437 67.6823 187.437 65.8398H185.437ZM184.451 69.408C183.789 70.3229 182.889 71.0103 181.716 71.4659L182.44 73.3302C183.944 72.746 185.166 71.8311 186.071 70.5813L184.451 69.408ZM181.714 71.4667C180.518 71.9342 179.145 72.1779 177.578 72.1779V74.1779C179.352 74.1779 180.979 73.9017 182.442 73.3294L181.714 71.4667ZM177.54 62.9407C178.798 62.9407 179.931 62.6463 180.886 62.0028L179.768 60.3444C179.205 60.7236 178.481 60.9407 177.54 60.9407V62.9407ZM180.888 62.0014C181.838 61.3574 182.534 60.4492 182.992 59.3262L181.139 58.5721C180.812 59.3753 180.35 59.9501 179.766 60.3458L180.888 62.0014ZM182.99 59.3303C183.452 58.2084 183.666 56.9088 183.666 55.4591H181.666C181.666 56.7197 181.479 57.7468 181.141 58.568L182.99 59.3303ZM183.666 55.4591C183.666 54.0408 183.456 52.75 183.01 51.6059L181.146 52.3323C181.484 53.1995 181.666 54.2354 181.666 55.4591H183.666ZM183.01 51.6059C182.559 50.4505 181.878 49.5035 180.948 48.8136L179.757 50.42C180.343 50.8551 180.813 51.4763 181.146 52.3323L183.01 51.6059ZM180.954 48.8179C179.993 48.0944 178.834 47.7603 177.54 47.7603V49.7603C178.479 49.7603 179.195 49.9971 179.751 50.4157L180.954 48.8179ZM177.54 47.7603C176.209 47.7603 175.023 48.1087 174.049 48.8658L175.277 50.4445C175.838 50.0084 176.569 49.7603 177.54 49.7603V47.7603ZM174.055 48.8615C173.124 49.5749 172.442 50.5344 171.992 51.698L173.857 52.4191C174.192 51.5543 174.668 50.9115 175.272 50.4488L174.055 48.8615ZM171.989 51.7049C171.557 52.8482 171.349 54.104 171.349 55.4591H173.349C173.349 54.3086 173.525 53.2973 173.86 52.4123L171.989 51.7049ZM171.349 55.4591C171.349 56.8459 171.561 58.1068 172.01 59.2211L173.865 58.4727C173.53 57.6438 173.349 56.6462 173.349 55.4591H171.349ZM172.01 59.2211C172.465 60.3491 173.157 61.269 174.097 61.9374L175.256 60.3075C174.661 59.885 174.194 59.2879 173.865 58.4727L172.01 59.2211ZM174.101 61.9404C175.076 62.626 176.241 62.9407 177.54 62.9407V60.9407C176.571 60.9407 175.828 60.7099 175.251 60.3045L174.101 61.9404ZM194.666 39.2233H195.666V38.2233H194.666V39.2233ZM194.666 65.4052V66.4052H195.666V65.4052H194.666ZM190.844 65.4052H189.844V66.4052H190.844V65.4052ZM190.844 39.2233V38.2233H189.844V39.2233H190.844ZM193.666 39.2233V65.4052H195.666V39.2233H193.666ZM194.666 64.4052H190.844V66.4052H194.666V64.4052ZM191.844 65.4052V39.2233H189.844V65.4052H191.844ZM190.844 40.2233H194.666V38.2233H190.844V40.2233ZM202.553 64.5614L202.038 65.4185L202.044 65.4221L202.553 64.5614ZM199.332 61.0458L198.435 61.489L198.438 61.495L199.332 61.0458ZM199.332 50.3966L198.435 49.9534L198.433 49.9574L199.332 50.3966ZM202.502 46.8043L201.968 45.9587L201.966 45.9602L202.502 46.8043ZM210.505 46.0628L210.837 45.1197L210.505 46.0628ZM213.305 47.7887L212.616 48.5142L213.305 47.7887ZM215.261 50.8441L214.326 51.2001L214.327 51.2022L215.261 50.8441ZM215.977 56.7375V57.7375H216.977V56.7375H215.977ZM200.367 56.7375H199.367V57.7375H200.367V56.7375ZM200.367 53.8739V52.8739H199.367V53.8739H200.367ZM212.231 53.8739V54.8739H213.231V53.8739H212.231ZM211.617 51.202L210.731 51.6646L210.733 51.6686L211.617 51.202ZM209.891 49.3483L209.367 50.1997L209.371 50.2023L209.891 49.3483ZM204.496 49.4634L205.045 50.2996L205.047 50.2982L204.496 49.4634ZM202.656 51.5088L201.767 51.0509L201.765 51.0544L202.656 51.5088ZM202.707 59.8185L201.812 60.2657L201.816 60.2723L202.707 59.8185ZM204.663 61.9279L204.16 62.7923L204.166 62.7961L204.663 61.9279ZM209.572 62.337L209.896 63.283L209.908 63.2787L209.572 62.337ZM211.119 61.3909L210.426 60.6698L211.119 61.3909ZM212.116 59.8441L212.293 58.8599L211.472 58.712L211.179 59.4929L212.116 59.8441ZM215.734 60.4961L216.699 60.7585L216.985 59.7055L215.911 59.5119L215.734 60.4961ZM214.174 63.2958L213.444 62.6124L213.444 62.6126L214.174 63.2958ZM211.374 65.1495L211.737 66.0813L211.741 66.0799L211.374 65.1495ZM207.552 64.8015C205.762 64.8015 204.279 64.4201 203.062 63.7007L202.044 65.4221C203.623 66.3561 205.473 66.8015 207.552 66.8015V64.8015ZM203.069 63.7044C201.848 62.9708 200.902 61.9435 200.225 60.5965L198.438 61.495C199.278 63.1651 200.48 64.4816 202.038 65.4184L203.069 63.7044ZM200.228 60.6026C199.559 59.2486 199.207 57.6289 199.207 55.7148H197.207C197.207 57.8745 197.605 59.8088 198.435 61.489L200.228 60.6026ZM199.207 55.7148C199.207 53.8288 199.558 52.2109 200.23 50.8358L198.433 49.9574C197.606 51.6506 197.207 53.5781 197.207 55.7148H199.207ZM200.228 50.8399C200.911 49.4586 201.848 48.4045 203.038 47.6484L201.966 45.9602C200.446 46.9257 199.269 48.2665 198.435 49.9534L200.228 50.8399ZM203.036 47.6499C204.22 46.9027 205.623 46.5131 207.283 46.5131V44.5131C205.296 44.5131 203.512 44.9843 201.968 45.9587L203.036 47.6499ZM207.283 46.5131C208.279 46.5131 209.24 46.6773 210.173 47.006L210.837 45.1197C209.69 44.7154 208.504 44.5131 207.283 44.5131V46.5131ZM210.173 47.006C211.075 47.3241 211.888 47.8235 212.616 48.5142L213.993 47.0631C213.068 46.1856 212.014 45.5345 210.837 45.1197L210.173 47.006ZM212.616 48.5142C213.317 49.1785 213.893 50.0627 214.326 51.2001L216.195 50.4881C215.674 49.1197 214.946 47.9671 213.993 47.0631L212.616 48.5142ZM214.327 51.2022C214.748 52.3009 214.977 53.6848 214.977 55.3824H216.977C216.977 53.5175 216.727 51.8759 216.194 50.486L214.327 51.2022ZM214.977 55.3824V56.7375H216.977V55.3824H214.977ZM215.977 55.7375H200.367V57.7375H215.977V55.7375ZM201.367 56.7375V53.8739H199.367V56.7375H201.367ZM200.367 54.8739H212.231V52.8739H200.367V54.8739ZM213.231 53.8739C213.231 52.7297 212.997 51.6747 212.502 50.7355L210.733 51.6686C211.055 52.2805 211.231 53.0067 211.231 53.8739H213.231ZM212.504 50.7395C212.012 49.7971 211.312 49.0426 210.412 48.4943L209.371 50.2023C209.954 50.5575 210.404 51.0387 210.731 51.6646L212.504 50.7395ZM210.416 48.497C209.503 47.9344 208.455 47.6708 207.309 47.6708V49.6708C208.14 49.6708 208.814 49.8589 209.367 50.1996L210.416 48.497ZM207.309 47.6708C206.063 47.6708 204.929 47.9799 203.946 48.6286L205.047 50.2982C205.666 49.8901 206.407 49.6708 207.309 49.6708V47.6708ZM203.948 48.6272C203.011 49.2418 202.28 50.054 201.767 51.0509L203.544 51.9668C203.9 51.2762 204.397 50.7247 205.045 50.2996L203.948 48.6272ZM201.765 51.0544C201.264 52.0368 201.016 53.1011 201.016 54.2319H203.016C203.016 53.4024 203.195 52.6514 203.546 51.9633L201.765 51.0544ZM201.016 54.2319V56.4691H203.016V54.2319H201.016ZM201.016 56.4691C201.016 57.8953 201.266 59.1735 201.812 60.2657L203.601 59.3713C203.227 58.6226 203.016 57.6678 203.016 56.4691H201.016ZM201.816 60.2723C202.365 61.3517 203.147 62.2031 204.16 62.7923L205.165 61.0635C204.508 60.6811 203.986 60.1262 203.598 59.3647L201.816 60.2723ZM204.166 62.7961C205.176 63.3727 206.328 63.6438 207.59 63.6438V61.6438C206.619 61.6438 205.82 61.4376 205.159 61.0596L204.166 62.7961ZM207.59 63.6438C208.409 63.6438 209.181 63.5281 209.896 63.2829L209.247 61.391C208.769 61.5549 208.22 61.6438 207.59 61.6438V63.6438ZM209.908 63.2787C210.631 63.0206 211.27 62.6325 211.811 62.1121L210.426 60.6698C210.098 60.9846 209.706 61.2272 209.235 61.3952L209.908 63.2787ZM211.811 62.1121C212.363 61.5821 212.774 60.9364 213.052 60.1952L211.179 59.4929C210.997 59.979 210.743 60.3646 210.426 60.6698L211.811 62.1121ZM211.938 60.8282L215.556 61.4802L215.911 59.5119L212.293 58.8599L211.938 60.8282ZM214.769 60.2336C214.521 61.1426 214.082 61.931 213.444 62.6124L214.904 63.9792C215.766 63.0583 216.366 61.9803 216.699 60.7585L214.769 60.2336ZM213.444 62.6126C212.815 63.285 212.011 63.824 211.008 64.2191L211.741 66.0799C212.988 65.5886 214.05 64.8917 214.904 63.9789L213.444 62.6126ZM211.011 64.2176C210.031 64.5994 208.883 64.8015 207.552 64.8015V66.8015C209.084 66.8015 210.485 66.5689 211.737 66.0813L211.011 64.2176ZM228.612 65.4052H227.612V66.4052H228.612V65.4052ZM228.612 39.2233V38.2233H227.612V39.2233H228.612ZM246.011 43.3782L245.122 43.8371L245.124 43.8395L246.011 43.3782ZM245.998 52.0458L245.112 51.5822L245.111 51.5844L245.998 52.0458ZM242.981 55.0884L243.466 55.9631L243.468 55.962L242.981 55.0884ZM231.514 56.2006H230.514V57.2006H231.514V56.2006ZM231.514 52.8512V51.8512H230.514V52.8512H231.514ZM240.706 52.1864L241.19 53.0615L241.197 53.0575L240.706 52.1864ZM240.693 43.2631L240.216 44.1421L240.22 44.1442L240.693 43.2631ZM232.562 42.6111V41.6111H231.562V42.6111H232.562ZM232.562 65.4052V66.4052H233.562V65.4052H232.562ZM229.612 65.4052V39.2233H227.612V65.4052H229.612ZM228.612 40.2233H237.944V38.2233H228.612V40.2233ZM237.944 40.2233C239.866 40.2233 241.373 40.5737 242.522 41.2102L243.491 39.4609C241.964 38.6144 240.097 38.2233 237.944 38.2233V40.2233ZM242.522 41.2102C243.698 41.8617 244.554 42.7357 245.122 43.8371L246.899 42.9192C246.139 41.4468 244.992 40.2924 243.491 39.4609L242.522 41.2102ZM245.124 43.8395C245.706 44.9601 246.008 46.2393 246.008 47.6992H248.008C248.008 45.9546 247.645 44.3531 246.898 42.9168L245.124 43.8395ZM246.008 47.6992C246.008 49.1664 245.703 50.4534 245.112 51.5822L246.884 52.5093C247.64 51.0643 248.008 49.4535 248.008 47.6992H246.008ZM245.111 51.5844C244.543 52.6769 243.683 53.553 242.495 54.2148L243.468 55.962C244.973 55.1237 246.124 53.9715 246.885 52.5071L245.111 51.5844ZM242.496 54.2137C241.347 54.8505 239.844 55.2006 237.931 55.2006V57.2006C240.076 57.2006 241.939 56.8092 243.466 55.9631L242.496 54.2137ZM237.931 55.2006H231.514V57.2006H237.931V55.2006ZM232.514 56.2006V52.8512H230.514V56.2006H232.514ZM231.514 53.8512H237.573V51.8512H231.514V53.8512ZM237.573 53.8512C238.965 53.8512 240.192 53.6131 241.19 53.0614L240.221 51.3114C239.617 51.646 238.756 51.8512 237.573 51.8512V53.8512ZM241.197 53.0575C242.163 52.5128 242.9 51.7526 243.37 50.7808L241.569 49.9102C241.289 50.4895 240.851 50.9566 240.214 51.3153L241.197 53.0575ZM243.37 50.7808C243.82 49.8508 244.032 48.8163 244.032 47.6992H242.032C242.032 48.5593 241.87 49.2891 241.569 49.9102L243.37 50.7808ZM244.032 47.6992C244.032 46.5823 243.82 45.5503 243.368 44.6265L241.571 45.5049C241.87 46.1151 242.032 46.8388 242.032 47.6992H244.032ZM243.368 44.6265C242.894 43.6566 242.145 42.9078 241.166 42.382L240.22 44.1442C240.86 44.4877 241.296 44.9407 241.571 45.5049L243.368 44.6265ZM241.17 42.3841C240.172 41.8428 238.933 41.6111 237.522 41.6111V43.6111C238.737 43.6111 239.611 43.8141 240.216 44.1421L241.17 42.3841ZM237.522 41.6111H232.562V43.6111H237.522V41.6111ZM231.562 42.6111V65.4052H233.562V42.6111H231.562ZM232.562 64.4052H228.612V66.4052H232.562V64.4052ZM254.435 39.2233H255.435V38.2233H254.435V39.2233ZM254.435 65.4052V66.4052H255.435V65.4052H254.435ZM250.612 65.4052H249.612V66.4052H250.612V65.4052ZM250.612 39.2233V38.2233H249.612V39.2233H250.612ZM253.435 39.2233V65.4052H255.435V39.2233H253.435ZM254.435 64.4052H250.612V66.4052H254.435V64.4052ZM251.612 65.4052V39.2233H249.612V65.4052H251.612ZM250.612 40.2233H254.435V38.2233H250.612V40.2233ZM261.197 65.1495L260.774 66.0559L260.781 66.0588L261.197 65.1495ZM258.806 63.1168L257.969 63.6641L257.973 63.6696L258.806 63.1168ZM258.576 57.1211L259.435 57.6325L258.576 57.1211ZM260.302 55.4208L260.801 56.2871L260.302 55.4208ZM265.467 53.989L265.351 52.9956L265.348 52.996L265.467 53.989ZM268.33 53.6566L268.446 54.6499L268.457 54.6485L268.33 53.6566ZM269.928 53.2091L270.452 54.0608L269.928 53.2091ZM269.481 49.5273L268.779 50.2393L268.783 50.244L269.481 49.5273ZM263.651 49.4634L264.26 50.2567L264.261 50.2557L263.651 49.4634ZM262.13 51.3427L261.908 52.3177L262.736 52.5062L263.056 51.7199L262.13 51.3427ZM258.538 50.5245L257.596 50.1881L257.217 51.2493L258.316 51.4995L258.538 50.5245ZM260.404 47.6353L261.071 48.3801L261.072 48.3797L260.404 47.6353ZM263.255 46.0245L263.551 46.9798L263.557 46.9776L263.255 46.0245ZM269.136 45.7944L268.927 46.7724L268.938 46.7746L269.136 45.7944ZM271.616 46.7915L271.081 47.6363L271.085 47.639L271.616 46.7915ZM273.521 48.8753L272.643 49.3553L272.645 49.3588L273.521 48.8753ZM274.262 65.4052V66.4052H275.262V65.4052H274.262ZM270.529 65.4052H269.529V66.4052H270.529V65.4052ZM270.529 62.7205H271.529V61.7205H270.529V62.7205ZM270.376 62.7205V61.7205H269.758L269.481 62.2733L270.376 62.7205ZM269.263 64.1779L268.569 63.4585L269.263 64.1779ZM267.359 65.3668L266.982 64.4404L267.359 65.3668ZM268.113 62.1452L267.631 61.2692L267.626 61.2715L268.113 62.1452ZM269.839 60.5088L268.977 60.0023L268.975 60.0057L269.839 60.5088ZM270.44 55.7915H271.44V53.3773L269.732 55.0844L270.44 55.7915ZM269.647 56.175L269.924 57.1357L269.931 57.1338L269.938 57.1317L269.647 56.175ZM268.33 56.4691L268.484 57.4572L268.492 57.456L268.5 57.4545L268.33 56.4691ZM266.886 56.6864L267.012 57.6784L267.021 57.6773L267.03 57.676L266.886 56.6864ZM265.709 56.8398L265.835 57.8319L265.843 57.8308L265.709 56.8398ZM263.677 57.3128L263.337 56.3723L263.333 56.3738L263.677 57.3128ZM262.219 58.2716L261.468 57.612L261.467 57.6131L262.219 58.2716ZM262.731 62.0557L262.16 62.8769L262.167 62.8815L262.731 62.0557ZM264.572 64.8398C263.453 64.8398 262.472 64.6336 261.613 64.2402L260.781 66.0588C261.932 66.5858 263.202 66.8398 264.572 66.8398V64.8398ZM261.619 64.2431C260.773 63.8486 260.121 63.2901 259.639 62.5639L257.973 63.6696C258.667 64.7162 259.609 65.5128 260.774 66.0558L261.619 64.2431ZM259.643 62.5695C259.191 61.8779 258.937 60.9916 258.937 59.8569H256.937C256.937 61.296 257.262 62.5829 257.969 63.664L259.643 62.5695ZM258.937 59.8569C258.937 58.8713 259.127 58.1508 259.435 57.6325L257.717 56.6096C257.173 57.5232 256.937 58.6265 256.937 59.8569H258.937ZM259.435 57.6325C259.773 57.0644 260.225 56.6195 260.801 56.2871L259.802 54.5544C258.93 55.0572 258.231 55.746 257.717 56.6096L259.435 57.6325ZM260.801 56.2871C261.434 55.9223 262.152 55.6405 262.962 55.4476L262.499 53.5019C261.52 53.7352 260.618 54.084 259.802 54.5544L260.801 56.2871ZM262.962 55.4476C263.819 55.2435 264.693 55.0882 265.585 54.9819L265.348 52.996C264.382 53.1113 263.432 53.2798 262.499 53.5019L262.962 55.4476ZM265.582 54.9823C266.758 54.8459 267.713 54.7351 268.446 54.6499L268.215 52.6633C267.482 52.7485 266.527 52.8593 265.351 52.9956L265.582 54.9823ZM268.457 54.6485C269.227 54.55 269.934 54.3799 270.452 54.0608L269.404 52.3575C269.258 52.4475 268.899 52.5757 268.203 52.6647L268.457 54.6485ZM270.452 54.0608C271.138 53.639 271.427 52.9465 271.427 52.212H269.427C269.427 52.2672 269.422 52.3048 269.417 52.328C269.415 52.3394 269.412 52.3473 269.411 52.3521C269.409 52.3569 269.408 52.3591 269.408 52.3592C269.408 52.3593 269.408 52.3582 269.41 52.3563C269.411 52.3544 269.412 52.3527 269.414 52.3513C269.417 52.348 269.415 52.3506 269.404 52.3575L270.452 54.0608ZM271.427 52.212V52.1225H269.427V52.212H271.427ZM271.427 52.1225C271.427 50.8126 271.051 49.6599 270.178 48.8106L268.783 50.244C269.172 50.622 269.427 51.1994 269.427 52.1225H271.427ZM270.183 48.8153C269.308 47.9522 268.083 47.6069 266.694 47.6069V49.6069C267.777 49.6069 268.409 49.8752 268.779 50.2393L270.183 48.8153ZM266.694 47.6069C265.268 47.6069 264.013 47.9229 263.041 48.6711L264.261 50.2557C264.773 49.8618 265.546 49.6069 266.694 49.6069V47.6069ZM263.042 48.6701C262.202 49.315 261.566 50.0756 261.204 50.9654L263.056 51.7199C263.256 51.2291 263.634 50.7368 264.26 50.2567L263.042 48.6701ZM262.352 50.3676L258.76 49.5494L258.316 51.4995L261.908 52.3177L262.352 50.3676ZM259.479 50.8608C259.858 49.8003 260.395 48.9859 261.071 48.3801L259.737 46.8904C258.777 47.7506 258.069 48.8623 257.596 50.1881L259.479 50.8608ZM261.072 48.3797C261.79 47.7357 262.613 47.27 263.551 46.9798L262.959 45.0692C261.749 45.4437 260.672 46.0519 259.736 46.8908L261.072 48.3797ZM263.557 46.9776C264.529 46.6693 265.555 46.5131 266.643 46.5131V44.5131C265.361 44.5131 264.129 44.6978 262.952 45.0713L263.557 46.9776ZM266.643 46.5131C267.347 46.5131 268.108 46.5974 268.927 46.7723L269.344 44.8164C268.408 44.6163 267.506 44.5131 266.643 44.5131V46.5131ZM268.938 46.7746C269.704 46.9293 270.416 47.2156 271.081 47.6363L272.151 45.9467C271.281 45.3958 270.34 45.0174 269.334 44.8141L268.938 46.7746ZM271.085 47.639C271.698 48.023 272.221 48.5829 272.643 49.3553L274.398 48.3953C273.832 47.3609 273.085 46.5316 272.147 45.944L271.085 47.639ZM272.645 49.3588C273.032 50.0582 273.262 51.0386 273.262 52.3654H275.262C275.262 50.8286 274.998 49.4822 274.396 48.3918L272.645 49.3588ZM273.262 52.3654V65.4052H275.262V52.3654H273.262ZM274.262 64.4052H270.529V66.4052H274.262V64.4052ZM271.529 65.4052V62.7205H269.529V65.4052H271.529ZM270.529 61.7205H270.376V63.7205H270.529V61.7205ZM269.481 62.2733C269.295 62.6449 269.001 63.0415 268.569 63.4585L269.958 64.8973C270.515 64.3597 270.962 63.7847 271.27 63.1677L269.481 62.2733ZM268.569 63.4585C268.184 63.8301 267.664 64.163 266.982 64.4404L267.735 66.2932C268.604 65.94 269.354 65.4803 269.958 64.8973L268.569 63.4585ZM266.982 64.4404C266.355 64.6952 265.561 64.8398 264.572 64.8398V66.8398C265.747 66.8398 266.811 66.6691 267.735 66.2932L266.982 64.4404ZM265.403 63.7716C266.591 63.7716 267.67 63.5364 268.599 63.0189L267.626 61.2715C267.056 61.5892 266.328 61.7716 265.403 61.7716V63.7716ZM268.595 63.0212C269.494 62.5262 270.21 61.8589 270.703 61.012L268.975 60.0057C268.684 60.5054 268.249 60.929 267.631 61.2692L268.595 63.0212ZM270.701 61.0154C271.19 60.1832 271.44 59.2801 271.44 58.3228H269.44C269.44 58.9166 269.289 59.4709 268.977 60.0023L270.701 61.0154ZM271.44 58.3228V55.7915H269.44V58.3228H271.44ZM269.732 55.0844C269.773 55.0435 269.782 55.0516 269.704 55.0895C269.632 55.124 269.52 55.1684 269.356 55.2184L269.938 57.1317C270.348 57.0069 270.823 56.8225 271.147 56.4986L269.732 55.0844ZM269.369 55.2143C269.029 55.3127 268.627 55.4031 268.16 55.4836L268.5 57.4545C269.022 57.3646 269.498 57.259 269.924 57.1357L269.369 55.2143ZM268.177 55.4809C267.686 55.5571 267.207 55.6291 266.742 55.6968L267.03 57.676C267.502 57.6073 267.986 57.5344 268.484 57.4572L268.177 55.4809ZM266.759 55.6944C266.289 55.7542 265.894 55.8057 265.576 55.8488L265.843 57.8308C266.155 57.7887 266.545 57.7379 267.012 57.6784L266.759 55.6944ZM265.584 55.8477C264.78 55.9494 264.029 56.1223 263.337 56.3723L264.016 58.2534C264.552 58.0601 265.156 57.9177 265.835 57.8319L265.584 55.8477ZM263.333 56.3738C262.596 56.6437 261.961 57.0498 261.468 57.612L262.971 58.9312C263.211 58.6582 263.547 58.4251 264.021 58.2518L263.333 56.3738ZM261.467 57.6131C260.912 58.2473 260.682 59.0477 260.682 59.908H262.682C262.682 59.4047 262.811 59.1141 262.972 58.9301L261.467 57.6131ZM260.682 59.908C260.682 61.1389 261.159 62.181 262.16 62.8768L263.302 61.2346C262.905 60.9588 262.682 60.5692 262.682 59.908H260.682ZM262.167 62.8815C263.073 63.5002 264.175 63.7716 265.403 63.7716V61.7716C264.466 61.7716 263.787 61.5658 263.295 61.2299L262.167 62.8815ZM278.787 72.6282L278.983 71.6476L278.974 71.6459L278.966 71.6443L278.787 72.6282ZM277.738 72.3469L276.779 72.065L276.532 72.9051L277.332 73.2607L277.738 72.3469ZM278.659 69.2148L278.918 68.249L277.975 67.9959L277.699 68.9329L278.659 69.2148ZM280.525 69.4577L280.479 68.4588L280.525 69.4577ZM281.97 68.8441L281.301 68.1007L281.294 68.1075L281.97 68.8441ZM283.095 66.9648L284.032 67.3139L284.035 67.3058L283.095 66.9648ZM283.568 65.6608L284.508 66.0018L284.631 65.6616L284.508 65.3211L283.568 65.6608ZM276.383 45.7688V44.7688H274.959L275.443 46.1085L276.383 45.7688ZM280.474 45.7688L281.425 45.4585L281.2 44.7688H280.474V45.7688ZM285.447 61.0074L284.497 61.3177L284.722 62.0074H285.447V61.0074ZM285.652 61.0074V62.0074H286.377L286.602 61.3177L285.652 61.0074ZM290.625 45.7688V44.7688H289.899L289.674 45.4585L290.625 45.7688ZM294.728 45.7688L295.668 46.1105L296.156 44.7688H294.728V45.7688ZM286.636 68.0259L287.575 68.3701L287.576 68.3676L286.636 68.0259ZM285.204 70.6211L284.431 69.9873L284.427 69.9919L285.204 70.6211ZM283.133 72.2319L282.725 71.3188L283.133 72.2319ZM280.346 71.7688C279.829 71.7688 279.376 71.7262 278.983 71.6476L278.591 73.6087C279.135 73.7176 279.722 73.7688 280.346 73.7688V71.7688ZM278.966 71.6443C278.519 71.5631 278.264 71.486 278.145 71.4331L277.332 73.2607C277.673 73.4123 278.117 73.5228 278.608 73.612L278.966 71.6443ZM278.698 72.6289L279.618 69.4968L277.699 68.9329L276.779 72.065L278.698 72.6289ZM278.4 70.1807C279.168 70.3867 279.896 70.4883 280.572 70.4566L280.479 68.4588C280.063 68.4783 279.548 68.4179 278.918 68.249L278.4 70.1807ZM280.572 70.4566C281.361 70.4196 282.063 70.116 282.646 69.5806L281.294 68.1075C281.041 68.3391 280.78 68.4447 280.479 68.4588L280.572 70.4566ZM282.639 69.5874C283.237 69.0491 283.683 68.2511 284.032 67.3139L282.158 66.6157C281.859 67.4171 281.555 67.872 281.301 68.1008L282.639 69.5874ZM284.035 67.3058L284.508 66.0018L282.628 65.3198L282.155 66.6238L284.035 67.3058ZM284.508 65.3211L277.324 45.4291L275.443 46.1085L282.627 66.0005L284.508 65.3211ZM276.383 46.7688H280.474V44.7688H276.383V46.7688ZM279.524 46.079L284.497 61.3177L286.398 60.6972L281.425 45.4585L279.524 46.079ZM285.447 62.0074H285.652V60.0074H285.447V62.0074ZM286.602 61.3177L291.575 46.079L289.674 45.4585L284.701 60.6972L286.602 61.3177ZM290.625 46.7688H294.728V44.7688H290.625V46.7688ZM293.789 45.4271L285.696 67.6842L287.576 68.3676L295.668 46.1105L293.789 45.4271ZM285.697 67.6816C285.354 68.6188 284.927 69.3812 284.431 69.9873L285.978 71.2548C286.64 70.4461 287.169 69.4784 287.575 68.3701L285.697 67.6816ZM284.427 69.9919C283.941 70.5917 283.376 71.0283 282.725 71.3188L283.541 73.1449C284.493 72.7195 285.308 72.0823 285.982 71.2503L284.427 69.9919ZM282.725 71.3188C282.076 71.609 281.291 71.7688 280.346 71.7688V73.7688C281.516 73.7688 282.588 73.5707 283.541 73.1449L282.725 71.3188Z" fill="#6E4DE0" fill-opacity="0.66"/>
<path fill-rule="evenodd" clip-rule="evenodd" d="M49.3844 17.9536C42.9144 20.3136 37.4012 25.4752 34.3305 32.0071C33.2593 34.2606 32.488 36.651 32.0167 39.1328C30.8455 45.2841 31.6596 51.8465 34.3162 57.4496C36.0444 61.1038 38.5296 64.3621 41.529 66.9049C44.3712 69.3106 47.6705 71.1073 51.184 72.0969C55.6117 73.3607 60.3249 73.3302 64.7812 72.2491C68.8088 71.2595 72.6224 69.204 75.6646 66.2197C78.8781 63.068 81.1777 58.9265 82.3917 54.4653C83.7198 49.6083 83.8912 44.4162 83.0633 39.4222C74.7362 39.4222 66.3951 39.4222 58.0683 39.4222C58.0683 43.1068 58.0683 46.7914 58.0683 50.4761C62.8958 50.4761 67.7234 50.4761 72.551 50.4761C71.9939 54.0086 70.0229 57.2364 67.2378 59.231C65.481 60.4948 63.4672 61.3017 61.3819 61.6976C59.2966 62.0783 57.1257 62.1239 55.0404 61.6824C52.9123 61.2256 50.8984 60.2816 49.1273 58.957C46.2994 56.8405 44.1427 53.7497 43.0429 50.2629C41.9146 46.7153 41.9003 42.7718 43.0429 39.2394C43.8428 36.7424 45.1568 34.4432 46.8993 32.5552C49.0417 30.2105 51.8268 28.5356 54.8404 27.8505C57.4113 27.2719 60.125 27.3784 62.6388 28.1854C64.7812 28.8706 66.7522 30.1343 68.3661 31.7787C69.9943 30.043 71.6226 28.3072 73.2508 26.5715C74.1077 25.6427 75.0076 24.7443 75.836 23.7851C73.3651 21.349 70.4514 19.3848 67.2806 18.1363C61.5676 15.8829 55.1403 15.8372 49.3844 17.9536Z" fill="white"/>
<path fill-rule="evenodd" clip-rule="evenodd" d="M49.3903 17.9299C55.0698 15.8483 61.4418 15.8932 67.0931 18.0946C70.2295 19.3226 73.0976 21.2394 75.5559 23.6505C74.7365 24.5939 73.8464 25.4775 72.9987 26.391C71.3881 28.0982 69.7774 29.8054 68.1668 31.5125C66.5703 29.8952 64.6206 28.6673 62.5013 27.9784C60.0148 27.1847 57.3304 27.0649 54.7873 27.6489C51.8203 28.3228 49.0653 29.9701 46.9319 32.2763C45.2083 34.1183 43.9084 36.3946 43.1173 38.8505C40.2492 36.4844 37.3811 34.1333 34.4989 31.7672C37.5366 25.3277 42.9901 20.2511 49.3903 17.9299Z" fill="#EA4335"/>
<path fill-rule="evenodd" clip-rule="evenodd" d="M32.0371 39.3266C32.5276 36.9419 33.3302 34.6161 34.445 32.4375C37.4621 34.7633 40.4794 37.0744 43.5115 39.4002C42.3224 42.8301 42.3224 46.6426 43.5115 50.0578C40.4942 52.3835 37.4771 54.7094 34.4598 57.0205C31.6655 51.6181 30.8183 45.2736 32.0371 39.3266Z" fill="#FBBC05"/>
<path fill-rule="evenodd" clip-rule="evenodd" d="M58.5463 39.9193C66.7183 39.9193 74.9043 39.9193 83.0766 39.9193C83.8892 44.8838 83.7071 50.061 82.4175 54.9192C81.2261 59.3676 78.9693 63.4972 75.8154 66.6399C73.0541 64.317 70.2927 61.9942 67.5313 59.6713C70.2646 57.6824 72.199 54.4638 72.7457 50.9415C68.0079 50.9415 63.2701 50.9415 58.5323 50.9415C58.5463 47.2674 58.5463 43.5933 58.5463 39.9193Z" fill="#4285F4"/>
<path fill-rule="evenodd" clip-rule="evenodd" d="M34.4989 57.7006C37.3789 55.3463 40.2589 52.977 43.1388 50.6076C44.2454 54.0417 46.3734 57.0857 49.1824 59.1702C50.9416 60.4748 52.9561 61.4045 55.0558 61.8544C57.1271 62.3043 59.2693 62.2443 61.3548 61.8694C63.4261 61.4795 65.4265 60.6847 67.1714 59.4401C69.9663 61.7344 72.7611 64.0287 75.5559 66.3231C72.5342 69.2772 68.7462 71.2866 64.7455 72.2614C60.3192 73.326 55.6375 73.3561 51.2396 72.1115C47.7495 71.1367 44.4724 69.3822 41.6491 66.9979C38.6841 64.5086 36.2156 61.2996 34.4989 57.7006Z" fill="#34A853"/>
<defs>
<filter id="filter0_i_28_98" x="0.451691" y="0.372742" width="300.417" height="93.7814" filterUnits="userSpaceOnUse" color-interpolation-filters="sRGB">
<feFlood flood-opacity="0" result="BackgroundImageFix"/>
<feBlend mode="normal" in="SourceGraphic" in2="BackgroundImageFix" result="shape"/>
<feColorMatrix in="SourceAlpha" type="matrix" values="0 0 0 0 0 0 0 0 0 0 0 0 0 0 0 0 0 0 127 0" result="hardAlpha"/>
<feOffset dy="4"/>
<feGaussianBlur stdDeviation="2"/>
<feComposite in2="hardAlpha" operator="arithmetic" k2="-1" k3="1"/>
<feColorMatrix type="matrix" values="0 0 0 0 0 0 0 0 0 0 0 0 0 0 0 0 0 0 0.25 0"/>
<feBlend mode="normal" in2="shape" result="effect1_innerShadow_28_98"/>
</filter>
<linearGradient id="paint0_linear_28_98" x1="41.3706" y1="4.78821" x2="143.019" y2="125.065" gradientUnits="userSpaceOnUse">
<stop stop-color="#7B56FB"/>
<stop offset="0.0001" stop-color="#7B56FB"/>
<stop offset="1" stop-color="#B7A3FC"/>
</linearGradient>
<linearGradient id="paint1_linear_28_98" x1="121.745" y1="22.2837" x2="381.246" y2="150.336" gradientUnits="userSpaceOnUse">
<stop stop-color="#7B56FB"/>
<stop offset="1" stop-color="white"/>
</linearGradient>
</defs>
</svg>
