<svg width="300" height="120" viewBox="0 0 300 120" fill="none" xmlns="http://www.w3.org/2000/svg">
<g filter="url(#filter0_ddd_54_812)">
<rect x="20" y="20" width="240" height="60" rx="18" fill="#182630"/>
<rect x="20" y="20" width="240" height="60" rx="18" fill="url(#paint0_radial_54_812)" fill-opacity="0.3"/>
</g>
<g filter="url(#filter1_d_54_812)">
<path d="M224.472 44.2699L234.26 36.18L244.049 44.2699" stroke="#FF6A16" stroke-width="4" stroke-linecap="round"/>
</g>
<g filter="url(#filter2_d_54_812)">
<path d="M224.472 64.4946L234.26 56.4047L244.049 64.4946" stroke="#FF6A16" stroke-width="4" stroke-linecap="round"/>
</g>
<g filter="url(#filter3_d_54_812)">
<path d="M224.472 54.3822L234.26 46.2924L244.049 54.3822" stroke="#FF6A16" stroke-width="4" stroke-linecap="round"/>
</g>
<path d="M78.808 42.16C78.3173 42.16 77.88 42.1387 77.496 42.096C77.1227 42.0533 76.728 41.9733 76.312 41.856C75.8427 41.728 75.448 41.568 75.128 41.376C74.808 41.1733 74.5467 40.9013 74.344 40.56C74.1307 40.1973 74.024 39.792 74.024 39.344V34.432C74.024 33.8347 74.1787 33.3227 74.488 32.896C74.7973 32.4693 75.224 32.16 75.768 31.968C76.2907 31.7867 76.7867 31.6587 77.256 31.584C77.736 31.4987 78.2533 31.456 78.808 31.456C80.1307 31.456 81.3253 31.5413 82.392 31.712V32.912C81.9867 32.816 81.4053 32.7307 80.648 32.656C79.9013 32.5707 79.2987 32.528 78.84 32.528C76.6533 32.528 75.56 33.1573 75.56 34.416V39.312C75.56 39.6533 75.6613 39.952 75.864 40.208C76.0773 40.464 76.3653 40.6507 76.728 40.768C77.0693 40.896 77.4107 40.9867 77.752 41.04C78.0933 41.0827 78.4773 41.104 78.904 41.104C79.6187 41.104 80.3813 41.008 81.192 40.816V37.184H78.76V36.096H82.632V41.68C81.2453 42 79.9707 42.16 78.808 42.16ZM88.1843 42.16C87.5016 42.16 86.9896 42.1333 86.6483 42.08C86.3069 42.0373 85.9656 41.936 85.6243 41.776C85.2723 41.616 85.0163 41.36 84.8563 41.008C84.6963 40.6453 84.6163 40.16 84.6163 39.552V36.864C84.6163 36.384 84.6749 35.9627 84.7923 35.6C84.9096 35.2373 85.0643 34.9547 85.2563 34.752C85.4163 34.5707 85.6563 34.432 85.9763 34.336C86.3069 34.2293 86.6429 34.16 86.9843 34.128C87.3683 34.1067 87.7683 34.096 88.1843 34.096C88.7389 34.096 89.1549 34.112 89.4323 34.144C89.7203 34.1653 90.0243 34.2187 90.3443 34.304C90.6749 34.4 90.9309 34.544 91.1123 34.736C91.2936 34.928 91.4483 35.2053 91.5763 35.568C91.6936 35.9413 91.7523 36.3733 91.7523 36.864V39.552C91.7523 40.4587 91.5443 41.12 91.1283 41.536C90.9576 41.7067 90.7123 41.84 90.3923 41.936C90.0723 42.032 89.7416 42.096 89.4003 42.128C88.9949 42.1493 88.5896 42.16 88.1843 42.16ZM88.1843 41.216C88.6323 41.216 88.9576 41.2053 89.1603 41.184C89.3629 41.1627 89.5603 41.104 89.7523 41.008C89.9443 40.9227 90.0776 40.784 90.1523 40.592C90.2376 40.3893 90.2803 40.112 90.2803 39.76V36.624C90.2803 36.144 90.2216 35.7973 90.1043 35.584C89.9869 35.36 89.7843 35.216 89.4963 35.152C89.2189 35.0773 88.7816 35.04 88.1843 35.04C87.5869 35.04 87.1443 35.0773 86.8563 35.152C86.5789 35.216 86.3816 35.36 86.2643 35.584C86.1469 35.7973 86.0883 36.144 86.0883 36.624V39.76C86.0883 40.112 86.1256 40.3893 86.2003 40.592C86.2856 40.784 86.4243 40.9227 86.6163 41.008C86.8083 41.104 87.0056 41.1627 87.2083 41.184C87.4109 41.2053 87.7363 41.216 88.1843 41.216ZM97.278 42.16C96.5953 42.16 96.0833 42.1333 95.742 42.08C95.4007 42.0373 95.0593 41.936 94.718 41.776C94.366 41.616 94.11 41.36 93.95 41.008C93.79 40.6453 93.71 40.16 93.71 39.552V36.864C93.71 36.384 93.7687 35.9627 93.886 35.6C94.0033 35.2373 94.158 34.9547 94.35 34.752C94.51 34.5707 94.75 34.432 95.07 34.336C95.4007 34.2293 95.7367 34.16 96.078 34.128C96.462 34.1067 96.862 34.096 97.278 34.096C97.8327 34.096 98.2487 34.112 98.526 34.144C98.814 34.1653 99.118 34.2187 99.438 34.304C99.7687 34.4 100.025 34.544 100.206 34.736C100.387 34.928 100.542 35.2053 100.67 35.568C100.787 35.9413 100.846 36.3733 100.846 36.864V39.552C100.846 40.4587 100.638 41.12 100.222 41.536C100.051 41.7067 99.806 41.84 99.486 41.936C99.166 42.032 98.8353 42.096 98.494 42.128C98.0887 42.1493 97.6833 42.16 97.278 42.16ZM97.278 41.216C97.726 41.216 98.0513 41.2053 98.254 41.184C98.4567 41.1627 98.654 41.104 98.846 41.008C99.038 40.9227 99.1713 40.784 99.246 40.592C99.3313 40.3893 99.374 40.112 99.374 39.76V36.624C99.374 36.144 99.3153 35.7973 99.198 35.584C99.0807 35.36 98.878 35.216 98.59 35.152C98.3127 35.0773 97.8753 35.04 97.278 35.04C96.6807 35.04 96.238 35.0773 95.95 35.152C95.6727 35.216 95.4753 35.36 95.358 35.584C95.2407 35.7973 95.182 36.144 95.182 36.624V39.76C95.182 40.112 95.2193 40.3893 95.294 40.592C95.3793 40.784 95.518 40.9227 95.71 41.008C95.902 41.104 96.0993 41.1627 96.302 41.184C96.5047 41.2053 96.83 41.216 97.278 41.216ZM106.02 45.52C104.964 45.52 104.073 45.4613 103.348 45.344V44.32C104.628 44.4693 105.561 44.544 106.148 44.544C106.884 44.544 107.417 44.4267 107.748 44.192C108.089 43.9573 108.26 43.568 108.26 43.024V41.168C108.238 41.5093 108.004 41.76 107.556 41.92C107.118 42.08 106.564 42.16 105.892 42.16C105.092 42.16 104.468 42.0853 104.02 41.936C103.582 41.7867 103.268 41.5413 103.076 41.2C102.894 40.8587 102.804 40.3947 102.804 39.808V36.656C102.804 35.7387 103.049 35.0827 103.54 34.688C104.041 34.2933 104.857 34.096 105.988 34.096C107.332 34.096 108.121 34.4 108.356 35.008V34.256H109.7V42.736C109.7 43.4507 109.566 44.0107 109.3 44.416C109.033 44.8213 108.633 45.104 108.1 45.264C107.566 45.4347 106.873 45.52 106.02 45.52ZM106.196 41.2C106.953 41.2 107.486 41.1093 107.796 40.928C108.105 40.7467 108.26 40.4053 108.26 39.904V36.4C108.26 36.048 108.201 35.7813 108.084 35.6C107.977 35.4187 107.774 35.2907 107.476 35.216C107.177 35.1307 106.74 35.088 106.164 35.088C105.62 35.088 105.209 35.1253 104.932 35.2C104.665 35.2747 104.478 35.408 104.372 35.6C104.276 35.7813 104.228 36.048 104.228 36.4V39.904C104.228 40.2667 104.281 40.5387 104.388 40.72C104.494 40.9013 104.686 41.0293 104.964 41.104C105.241 41.168 105.652 41.2 106.196 41.2ZM112.201 30.8H113.641V42H112.201V30.8ZM119.403 42.16C117.035 42.16 115.851 41.3707 115.851 39.792V36.736C115.851 35.7973 116.117 35.1253 116.651 34.72C117.195 34.304 118.069 34.096 119.275 34.096C120.416 34.096 121.237 34.2933 121.739 34.688C122.251 35.0827 122.507 35.7653 122.507 36.736V38.448H117.307V39.616C117.307 40.1493 117.493 40.5333 117.867 40.768C118.24 41.0027 118.816 41.12 119.595 41.12C120.331 41.12 121.2 40.992 122.203 40.736V41.84C121.221 42.0533 120.288 42.16 119.403 42.16ZM121.067 37.504V36.288C121.067 35.8187 120.923 35.4987 120.635 35.328C120.357 35.1467 119.877 35.056 119.195 35.056C118.533 35.056 118.053 35.1467 117.755 35.328C117.456 35.4987 117.307 35.8187 117.307 36.288V37.504H121.067ZM128.485 31.616H131.877C132.357 31.616 132.741 31.6267 133.029 31.648C133.327 31.6693 133.642 31.7173 133.973 31.792C134.314 31.8667 134.586 31.9787 134.789 32.128C135.002 32.2773 135.183 32.48 135.333 32.736C135.471 32.9813 135.541 33.2907 135.541 33.664V35.824C135.541 36.688 135.205 37.312 134.533 37.696C133.871 38.0693 132.89 38.256 131.589 38.256H130.037V42H128.485V31.616ZM131.797 37.28C132.469 37.28 133.007 37.1573 133.413 36.912C133.818 36.6667 134.021 36.2773 134.021 35.744V33.856C134.021 33.568 133.946 33.3333 133.797 33.152C133.647 32.96 133.434 32.8267 133.157 32.752C132.89 32.688 132.666 32.6453 132.485 32.624C132.303 32.6027 132.063 32.592 131.765 32.592H130.021V37.28H131.797ZM137.514 30.8H138.954V42H137.514V30.8ZM143.835 42.16C143.099 42.16 142.528 42.0907 142.123 41.952C141.728 41.8133 141.44 41.568 141.259 41.216C141.088 40.864 141.003 40.3573 141.003 39.696C141.003 39.1093 141.083 38.656 141.243 38.336C141.414 38.0053 141.696 37.7707 142.091 37.632C142.496 37.4933 143.067 37.424 143.803 37.424H146.123V36.192C146.123 35.904 146.064 35.6853 145.947 35.536C145.84 35.376 145.654 35.264 145.387 35.2C145.131 35.136 144.752 35.104 144.251 35.104C143.451 35.104 142.566 35.168 141.595 35.296V34.24C142.651 34.144 143.606 34.096 144.459 34.096C145.355 34.096 146.016 34.1653 146.443 34.304C146.87 34.432 147.163 34.6613 147.323 34.992C147.483 35.3227 147.563 35.8347 147.563 36.528V42H146.171V41.264C146.054 41.8613 145.275 42.16 143.835 42.16ZM144.075 41.216C144.598 41.216 145.04 41.1787 145.403 41.104C145.883 41.008 146.123 40.784 146.123 40.432V38.32H143.899C143.44 38.32 143.11 38.3573 142.907 38.432C142.704 38.496 142.571 38.624 142.507 38.816C142.443 39.008 142.411 39.3173 142.411 39.744C142.411 40.128 142.448 40.4267 142.523 40.64C142.598 40.8427 142.731 40.992 142.923 41.088C143.115 41.1733 143.403 41.216 143.787 41.216H144.075ZM151.901 42.112L148.909 34.256H150.477L152.637 40.576H152.669L154.621 34.256H156.077L152.189 45.328H150.685L151.901 42.112Z" fill="white"/>
<path d="M154.448 69.16C153.584 69.16 152.565 69.064 151.392 68.872V67.72C152.629 67.976 153.664 68.104 154.496 68.104C155.147 68.104 155.621 68.0133 155.92 67.832C156.229 67.64 156.384 67.3307 156.384 66.904V64.84C156.384 64.392 156.192 64.104 155.808 63.976C155.627 63.9227 155.456 63.8907 155.296 63.88C155.147 63.8587 154.949 63.848 154.704 63.848H151.632V58.616H157.616V59.704H153.072V62.856H155.472C155.899 62.856 156.277 62.9093 156.608 63.016C156.939 63.112 157.232 63.2827 157.488 63.528C157.755 63.7947 157.888 64.1413 157.888 64.568V66.936C157.888 67.3093 157.819 67.64 157.68 67.928C157.552 68.2053 157.376 68.424 157.152 68.584C156.949 68.7333 156.688 68.856 156.368 68.952C156.059 69.048 155.749 69.1067 155.44 69.128C155.056 69.1493 154.725 69.16 154.448 69.16ZM160.401 67.272H162.257V69H160.401V67.272ZM167.999 69.16C167.53 69.16 167.146 69.144 166.847 69.112C166.559 69.08 166.25 69.016 165.919 68.92C165.567 68.824 165.284 68.6853 165.071 68.504C164.868 68.312 164.698 68.0453 164.559 67.704C164.42 67.384 164.351 66.984 164.351 66.504V61.256C164.351 60.776 164.42 60.3547 164.559 59.992C164.698 59.6293 164.879 59.3413 165.103 59.128C165.306 58.9467 165.572 58.8027 165.903 58.696C166.244 58.5787 166.586 58.504 166.927 58.472C167.311 58.4507 167.668 58.44 167.999 58.44C168.468 58.44 168.847 58.456 169.135 58.488C169.434 58.52 169.748 58.584 170.079 58.68C170.431 58.7867 170.714 58.936 170.927 59.128C171.151 59.32 171.332 59.592 171.471 59.944C171.61 60.296 171.679 60.728 171.679 61.24V66.504C171.679 66.9413 171.61 67.3307 171.471 67.672C171.332 68.0133 171.151 68.28 170.927 68.472C170.714 68.6533 170.442 68.8027 170.111 68.92C169.78 69.0267 169.444 69.0907 169.103 69.112C168.804 69.144 168.436 69.16 167.999 69.16ZM168.031 68.216C168.596 68.216 169.034 68.1787 169.343 68.104C169.652 68.0187 169.876 67.8587 170.015 67.624C170.154 67.3893 170.223 67.0427 170.223 66.584V61.144C170.223 60.6427 170.148 60.2693 169.999 60.024C169.86 59.768 169.636 59.5973 169.327 59.512C169.028 59.4267 168.591 59.384 168.015 59.384C167.428 59.384 166.98 59.4267 166.671 59.512C166.372 59.5973 166.154 59.768 166.015 60.024C165.876 60.2693 165.807 60.6427 165.807 61.144V66.584C165.807 67.0427 165.876 67.3893 166.015 67.624C166.164 67.8587 166.394 68.0187 166.703 68.104C167.012 68.1787 167.455 68.216 168.031 68.216Z" fill="white"/>
<path d="M61.6667 67.5L65.7867 71L64.6933 66.3133L68.3333 63.16L63.54 62.7466L61.6667 58.3333L59.7933 62.7466L55 63.16L58.6333 66.3133L57.5467 71L61.6667 67.5Z" fill="#859AB5"/>
<path d="M79.3332 67.1667L83.4532 70.6667L82.3598 65.98L85.9998 62.8267L81.2065 62.4133L79.3332 58L77.4598 62.4133L72.6665 62.8267L76.2998 65.98L75.2132 70.6667L79.3332 67.1667Z" fill="#859AB5"/>
<path d="M97.3332 67.1667L101.453 70.6667L100.36 65.98L104 62.8267L99.2065 62.4133L97.3332 58L95.4598 62.4133L90.6665 62.8267L94.2998 65.98L93.2132 70.6667L97.3332 67.1667Z" fill="#859AB5"/>
<path d="M115.333 67.1667L119.453 70.6667L118.36 65.98L122 62.8267L117.207 62.4133L115.333 58L113.46 62.4133L108.667 62.8267L112.3 65.98L111.213 70.6667L115.333 67.1667Z" fill="#859AB5"/>
<path d="M133.333 67.1667L137.453 70.6667L136.36 65.98L140 62.8267L135.207 62.4133L133.333 58L131.46 62.4133L126.667 62.8267L130.3 65.98L129.213 70.6667L133.333 67.1667Z" fill="#859AB5"/>
<path d="M54.2954 35.1473L44.0723 46.0401C44.4441 47.1919 45.6256 48 46.9461 48C47.5208 48 48.024 47.8692 48.4551 47.6077L61.0299 41.0702L54.2954 35.1473Z" fill="#EA4335"/>
<path d="M66.3473 33.6145L60.9576 30.8019L55.2095 35.9686L61.0297 41.0702L66.4189 38.3233C67.3532 37.8653 68 36.9498 68 35.9686C67.9279 34.9875 67.2816 34.072 66.3473 33.6145Z" fill="#FBBC04"/>
<path d="M54.2707 36.8185L60.9583 30.8018L48.5272 24.3924C48.0961 24.1308 47.5208 24 46.9461 24C45.5813 24 44.3596 24.8503 44.0723 25.9623L54.2707 36.8185Z" fill="#34A853"/>
<path d="M44.0716 25.9623C44 26.1583 44 26.4203 44 26.6814V45.3215C44 45.5826 44 45.779 44.0721 46.0406L55.2105 35.9687L44.0716 25.9623Z" fill="#4285F4"/>
<defs>
<filter id="filter0_ddd_54_812" x="0" y="0" width="300" height="120" filterUnits="userSpaceOnUse" color-interpolation-filters="sRGB">
<feFlood flood-opacity="0" result="BackgroundImageFix"/>
<feColorMatrix in="SourceAlpha" type="matrix" values="0 0 0 0 0 0 0 0 0 0 0 0 0 0 0 0 0 0 127 0" result="hardAlpha"/>
<feOffset dx="10" dy="10"/>
<feGaussianBlur stdDeviation="15"/>
<feComposite in2="hardAlpha" operator="out"/>
<feColorMatrix type="matrix" values="0 0 0 0 0 0 0 0 0 0 0 0 0 0 0 0 0 0 0.4 0"/>
<feBlend mode="normal" in2="BackgroundImageFix" result="effect1_dropShadow_54_812"/>
<feColorMatrix in="SourceAlpha" type="matrix" values="0 0 0 0 0 0 0 0 0 0 0 0 0 0 0 0 0 0 127 0" result="hardAlpha"/>
<feOffset dx="3" dy="3"/>
<feGaussianBlur stdDeviation="2"/>
<feComposite in2="hardAlpha" operator="out"/>
<feColorMatrix type="matrix" values="0 0 0 0 0 0 0 0 0 0 0 0 0 0 0 0 0 0 0.1 0"/>
<feBlend mode="normal" in2="effect1_dropShadow_54_812" result="effect2_dropShadow_54_812"/>
<feColorMatrix in="SourceAlpha" type="matrix" values="0 0 0 0 0 0 0 0 0 0 0 0 0 0 0 0 0 0 127 0" result="hardAlpha"/>
<feOffset dx="-4" dy="-4"/>
<feGaussianBlur stdDeviation="5"/>
<feComposite in2="hardAlpha" operator="out"/>
<feColorMatrix type="matrix" values="0 0 0 0 0.2 0 0 0 0 0.316667 0 0 0 0 0.4 0 0 0 0.5 0"/>
<feBlend mode="normal" in2="effect2_dropShadow_54_812" result="effect3_dropShadow_54_812"/>
<feBlend mode="normal" in="SourceGraphic" in2="effect3_dropShadow_54_812" result="shape"/>
</filter>
<filter id="filter1_d_54_812" x="212.472" y="23.5853" width="43.5771" height="32.6846" filterUnits="userSpaceOnUse" color-interpolation-filters="sRGB">
<feFlood flood-opacity="0" result="BackgroundImageFix"/>
<feColorMatrix in="SourceAlpha" type="matrix" values="0 0 0 0 0 0 0 0 0 0 0 0 0 0 0 0 0 0 127 0" result="hardAlpha"/>
<feOffset/>
<feGaussianBlur stdDeviation="5"/>
<feComposite in2="hardAlpha" operator="out"/>
<feColorMatrix type="matrix" values="0 0 0 0 1 0 0 0 0 0.415216 0 0 0 0 0.0862745 0 0 0 0.5 0"/>
<feBlend mode="normal" in2="BackgroundImageFix" result="effect1_dropShadow_54_812"/>
<feBlend mode="normal" in="SourceGraphic" in2="effect1_dropShadow_54_812" result="shape"/>
</filter>
<filter id="filter2_d_54_812" x="212.472" y="43.8101" width="43.5771" height="32.6846" filterUnits="userSpaceOnUse" color-interpolation-filters="sRGB">
<feFlood flood-opacity="0" result="BackgroundImageFix"/>
<feColorMatrix in="SourceAlpha" type="matrix" values="0 0 0 0 0 0 0 0 0 0 0 0 0 0 0 0 0 0 127 0" result="hardAlpha"/>
<feOffset/>
<feGaussianBlur stdDeviation="5"/>
<feComposite in2="hardAlpha" operator="out"/>
<feColorMatrix type="matrix" values="0 0 0 0 1 0 0 0 0 0.415216 0 0 0 0 0.0862745 0 0 0 0.5 0"/>
<feBlend mode="normal" in2="BackgroundImageFix" result="effect1_dropShadow_54_812"/>
<feBlend mode="normal" in="SourceGraphic" in2="effect1_dropShadow_54_812" result="shape"/>
</filter>
<filter id="filter3_d_54_812" x="212.472" y="33.6977" width="43.5771" height="32.6846" filterUnits="userSpaceOnUse" color-interpolation-filters="sRGB">
<feFlood flood-opacity="0" result="BackgroundImageFix"/>
<feColorMatrix in="SourceAlpha" type="matrix" values="0 0 0 0 0 0 0 0 0 0 0 0 0 0 0 0 0 0 127 0" result="hardAlpha"/>
<feOffset/>
<feGaussianBlur stdDeviation="5"/>
<feComposite in2="hardAlpha" operator="out"/>
<feColorMatrix type="matrix" values="0 0 0 0 1 0 0 0 0 0.415216 0 0 0 0 0.0862745 0 0 0 0.5 0"/>
<feBlend mode="normal" in2="BackgroundImageFix" result="effect1_dropShadow_54_812"/>
<feBlend mode="normal" in="SourceGraphic" in2="effect1_dropShadow_54_812" result="shape"/>
</filter>
<radialGradient id="paint0_radial_54_812" cx="0" cy="0" r="1" gradientUnits="userSpaceOnUse" gradientTransform="translate(10.9366 74.3038) rotate(-9.02801) scale(196.024 228.345)">
<stop stop-color="#FF6A16"/>
<stop offset="1" stop-opacity="0"/>
</radialGradient>
</defs>
</svg>
