<svg width="53" height="58" viewBox="0 0 53 58" fill="none" xmlns="http://www.w3.org/2000/svg">
<path fill-rule="evenodd" clip-rule="evenodd" d="M18.3844 1.95357C11.9143 4.31359 6.40121 9.47511 3.33043 16.007C2.25927 18.2605 1.48799 20.651 1.01665 23.1327C-0.154514 29.284 0.659598 35.8464 3.31615 41.4496C5.04438 45.1037 7.52955 48.3621 10.5289 50.9048C13.3712 53.3105 16.6704 55.1072 20.184 56.0969C24.6116 57.3607 29.3249 57.3301 33.7811 56.2491C37.8088 55.2594 41.6223 53.2039 44.6646 50.2196C47.8781 47.0679 50.1777 42.9265 51.3917 38.4653C52.7197 33.6082 52.8912 28.4162 52.0633 23.4221C43.7362 23.4221 35.3951 23.4221 27.0682 23.4221C27.0682 27.1067 27.0682 30.7914 27.0682 34.4761C31.8958 34.4761 36.7234 34.4761 41.5509 34.4761C40.9939 38.0085 39.0229 41.2364 36.2378 43.2309C34.481 44.4947 32.4671 45.3017 30.3819 45.6976C28.2966 46.0782 26.1256 46.1239 24.0404 45.6823C21.9122 45.2256 19.8983 44.2815 18.1273 42.9569C15.2993 40.8405 13.1427 37.7497 12.0429 34.2629C10.9146 30.7153 10.9003 26.7717 12.0429 23.2394C12.8427 20.7423 14.1567 18.4432 15.8992 16.5552C18.0416 14.2104 20.8267 12.5355 23.8404 11.8504C26.4112 11.2718 29.125 11.3784 31.6388 12.1853C33.7811 12.8705 35.7521 14.1342 37.3661 15.7787C38.9943 14.0429 40.6225 12.3071 42.2508 10.5714C43.1077 9.64265 44.0075 8.74426 44.8359 7.78503C42.365 5.34892 39.4514 3.38474 36.2806 2.13623C30.5675 -0.117161 24.1403 -0.162879 18.3844 1.95357Z" fill="white"/>
<path fill-rule="evenodd" clip-rule="evenodd" d="M18.3902 1.92982C24.0698 -0.151806 30.4417 -0.106841 36.093 2.09454C39.2295 3.32251 42.0976 5.23936 44.5559 7.65041C43.7364 8.59386 42.8464 9.4774 41.9986 10.3909C40.388 12.0981 38.7774 13.8053 37.1668 15.5125C35.5702 13.8952 33.6205 12.6672 31.5013 11.9783C29.0147 11.1846 26.3303 11.0648 23.7872 11.6488C20.8203 12.3228 18.0653 13.97 15.9318 16.2763C14.2082 18.1183 12.9084 20.3945 12.1172 22.8504C9.24916 20.4844 6.38109 18.1332 3.4989 15.7671C6.53651 9.32763 11.9901 4.25102 18.3902 1.92982Z" fill="#EA4335"/>
<path fill-rule="evenodd" clip-rule="evenodd" d="M1.03707 23.3265C1.52757 20.9419 2.33019 18.616 3.44496 16.4374C6.46211 18.7632 9.47934 21.0743 12.5114 23.4001C11.3224 26.83 11.3224 30.6426 12.5114 34.0577C9.4942 36.3835 6.47704 38.7093 3.45981 41.0204C0.665511 35.618 -0.181688 29.2736 1.03707 23.3265Z" fill="#FBBC05"/>
<path fill-rule="evenodd" clip-rule="evenodd" d="M27.5462 23.9192C35.7182 23.9192 43.9042 23.9192 52.0766 23.9192C52.8891 28.8838 52.7071 34.0609 51.4174 38.9192C50.226 43.3675 47.9692 47.4971 44.8154 50.6398C42.054 48.317 39.2926 45.9941 36.5312 43.6712C39.2646 41.6823 41.1989 38.4637 41.7456 34.9414C37.0078 34.9414 32.27 34.9414 27.5322 34.9414C27.5462 31.2674 27.5462 27.5932 27.5462 23.9192Z" fill="#4285F4"/>
<path fill-rule="evenodd" clip-rule="evenodd" d="M3.4989 41.7005C6.37886 39.3462 9.25882 36.9769 12.1387 34.6075C13.2453 38.0416 15.3733 41.0857 18.1824 43.1701C19.9416 44.4747 21.9561 45.4045 24.0558 45.8543C26.1271 46.3042 28.2693 46.2442 30.3548 45.8693C32.4261 45.4794 34.4265 44.6847 36.1714 43.44C38.9663 45.7343 41.7611 48.0287 44.5559 50.323C41.5341 53.2772 37.7462 55.2866 33.7454 56.2613C29.3191 57.3259 24.6374 57.356 20.2395 56.1114C16.7495 55.1367 13.4723 53.3822 10.6491 50.9979C7.68406 48.5086 5.21555 45.2995 3.4989 41.7005Z" fill="#34A853"/>
</svg>
