<svg width="221" height="151" viewBox="0 0 221 151" fill="none" xmlns="http://www.w3.org/2000/svg">
<g filter="url(#filter0_d_56_1005)">
<path d="M66.72 83.7336C64.3733 83.7336 62.1067 83.467 59.92 82.9336C57.7333 82.4003 55.9333 81.707 54.52 80.8536L57.56 73.9736C58.8933 74.747 60.3733 75.3736 62 75.8536C63.6533 76.307 65.2533 76.5336 66.8 76.5336C67.7067 76.5336 68.4133 76.4803 68.92 76.3736C69.4533 76.2403 69.84 76.067 70.08 75.8536C70.32 75.6136 70.44 75.3336 70.44 75.0136C70.44 74.507 70.16 74.107 69.6 73.8136C69.04 73.5203 68.2933 73.2803 67.36 73.0936C66.4533 72.8803 65.4533 72.667 64.36 72.4536C63.2667 72.2136 62.16 71.907 61.04 71.5336C59.9467 71.1603 58.9333 70.667 58 70.0536C57.0933 69.4403 56.36 68.6403 55.8 67.6536C55.24 66.6403 54.96 65.387 54.96 63.8936C54.96 62.1603 55.44 60.587 56.4 59.1736C57.3867 57.7336 58.84 56.587 60.76 55.7336C62.7067 54.8803 65.12 54.4536 68 54.4536C69.8933 54.4536 71.76 54.6536 73.6 55.0536C75.44 55.4536 77.0933 56.067 78.56 56.8936L75.72 63.7336C74.3333 63.0403 72.9867 62.5203 71.68 62.1736C70.4 61.827 69.1467 61.6536 67.92 61.6536C67.0133 61.6536 66.2933 61.7336 65.76 61.8936C65.2267 62.0536 64.84 62.267 64.6 62.5336C64.3867 62.8003 64.28 63.0936 64.28 63.4136C64.28 63.8936 64.56 64.2803 65.12 64.5736C65.68 64.8403 66.4133 65.067 67.32 65.2536C68.2533 65.4403 69.2667 65.6403 70.36 65.8536C71.48 66.067 72.5867 66.3603 73.68 66.7336C74.7733 67.107 75.7733 67.6003 76.68 68.2136C77.6133 68.827 78.36 69.627 78.92 70.6136C79.48 71.6003 79.76 72.827 79.76 74.2936C79.76 76.0003 79.2667 77.5736 78.28 79.0136C77.32 80.427 75.88 81.5736 73.96 82.4536C72.04 83.307 69.6267 83.7336 66.72 83.7336ZM87.2584 83.0936L79.6584 61.2136H88.2184L93.9784 78.9736H89.8584L95.8984 61.2136H103.578L109.338 78.9736H105.338L111.298 61.2136H119.218L111.618 83.0936H102.818L98.2184 69.0136H100.858L96.0584 83.0936H87.2584ZM133.42 83.0936V79.2136L132.78 78.1736V70.8136C132.78 69.747 132.446 68.9336 131.78 68.3736C131.14 67.8136 130.086 67.5336 128.62 67.5336C127.633 67.5336 126.633 67.6936 125.62 68.0136C124.606 68.307 123.74 68.7203 123.02 69.2536L120.14 63.2936C121.42 62.4936 122.953 61.8803 124.74 61.4536C126.526 61.027 128.273 60.8136 129.98 60.8136C133.74 60.8136 136.646 61.6536 138.7 63.3336C140.78 65.0136 141.82 67.6803 141.82 71.3336V83.0936H133.42ZM127.22 83.4936C125.433 83.4936 123.94 83.187 122.74 82.5736C121.54 81.9603 120.633 81.147 120.02 80.1336C119.406 79.0936 119.1 77.947 119.1 76.6936C119.1 75.2803 119.46 74.0803 120.18 73.0936C120.9 72.107 121.993 71.3603 123.46 70.8536C124.953 70.347 126.833 70.0936 129.1 70.0936H133.66V74.4536H130.54C129.58 74.4536 128.873 74.6136 128.42 74.9336C127.993 75.227 127.78 75.6803 127.78 76.2936C127.78 76.8003 127.966 77.227 128.34 77.5736C128.74 77.8936 129.273 78.0536 129.94 78.0536C130.553 78.0536 131.113 77.8936 131.62 77.5736C132.153 77.227 132.54 76.6936 132.78 75.9736L133.94 78.6536C133.593 80.2803 132.86 81.4936 131.74 82.2936C130.62 83.0936 129.113 83.4936 127.22 83.4936ZM160.327 83.4936C158.433 83.4936 156.86 83.0936 155.607 82.2936C154.38 81.467 153.473 80.227 152.887 78.5736C152.3 76.8936 152.007 74.7603 152.007 72.1736C152.007 69.5336 152.273 67.387 152.807 65.7336C153.367 64.0536 154.26 62.8136 155.487 62.0136C156.713 61.2136 158.327 60.8136 160.327 60.8136C162.247 60.8136 164.007 61.2803 165.607 62.2136C167.207 63.1203 168.487 64.427 169.447 66.1336C170.407 67.8136 170.887 69.827 170.887 72.1736C170.887 74.5203 170.407 76.547 169.447 78.2536C168.487 79.9336 167.207 81.227 165.607 82.1336C164.007 83.0403 162.247 83.4936 160.327 83.4936ZM145.727 90.8536V61.2136H154.327V64.1736L154.367 72.1736L154.767 80.1736V90.8536H145.727ZM158.167 76.4536C158.833 76.4536 159.433 76.2936 159.967 75.9736C160.5 75.6536 160.927 75.1736 161.247 74.5336C161.567 73.8936 161.727 73.107 161.727 72.1736C161.727 71.2136 161.567 70.4136 161.247 69.7736C160.927 69.1336 160.5 68.6536 159.967 68.3336C159.433 68.0136 158.833 67.8536 158.167 67.8536C157.5 67.8536 156.9 68.0136 156.367 68.3336C155.833 68.6536 155.407 69.1336 155.087 69.7736C154.767 70.4136 154.607 71.2136 154.607 72.1736C154.607 73.107 154.767 73.8936 155.087 74.5336C155.407 75.1736 155.833 75.6536 156.367 75.9736C156.9 76.2936 157.5 76.4536 158.167 76.4536Z" fill="#F0DCFF"/>
<path d="M59.92 82.9336L60.157 81.9621L59.92 82.9336ZM54.52 80.8536L53.6053 80.4495L53.2495 81.2547L54.0031 81.7097L54.52 80.8536ZM57.56 73.9736L58.0617 73.1086L57.0964 72.5487L56.6453 73.5695L57.56 73.9736ZM62 75.8536L61.717 76.8127L61.7262 76.8155L61.7356 76.818L62 75.8536ZM68.92 76.3736L69.126 77.3522L69.1444 77.3483L69.1625 77.3438L68.92 76.3736ZM70.08 75.8536L70.7444 76.601L70.7663 76.5815L70.7871 76.5607L70.08 75.8536ZM69.6 73.8136L69.136 74.6995H69.136L69.6 73.8136ZM67.36 73.0936L67.131 74.067L67.1474 74.0709L67.1639 74.0742L67.36 73.0936ZM64.36 72.4536L64.1456 73.4304L64.157 73.4329L64.1685 73.4351L64.36 72.4536ZM61.04 71.5336L60.7168 72.48L60.7238 72.4823L61.04 71.5336ZM58 70.0536L57.4396 70.882L57.4508 70.8893L58 70.0536ZM55.8 67.6536L54.9247 68.1373L54.9303 68.1472L55.8 67.6536ZM56.4 59.1736L55.5751 58.6084L55.5728 58.6117L56.4 59.1736ZM60.76 55.7336L60.3585 54.8177L60.3539 54.8198L60.76 55.7336ZM73.6 55.0536L73.3876 56.0308L73.6 55.0536ZM78.56 56.8936L79.4836 57.2771L79.8237 56.458L79.051 56.0225L78.56 56.8936ZM75.72 63.7336L75.2728 64.6281L76.2322 65.1078L76.6436 64.1171L75.72 63.7336ZM71.68 62.1736L71.4186 63.1389L71.4236 63.1402L71.68 62.1736ZM65.76 61.8936L65.4727 60.9358H65.4727L65.76 61.8936ZM64.6 62.5336L63.8567 61.8647L63.8373 61.8863L63.8191 61.9089L64.6 62.5336ZM65.12 64.5736L64.656 65.4595L64.6729 65.4683L64.6901 65.4765L65.12 64.5736ZM67.32 65.2536L67.1183 66.2331L67.1239 66.2342L67.32 65.2536ZM70.36 65.8536L70.1685 66.8351L70.1729 66.836L70.36 65.8536ZM73.68 66.7336L73.3569 67.68L73.68 66.7336ZM76.68 68.2136L76.1196 69.042L76.1308 69.0493L76.68 68.2136ZM78.92 70.6136L78.0503 71.1072H78.0503L78.92 70.6136ZM78.28 79.0136L77.4551 78.4484L77.4528 78.4517L78.28 79.0136ZM73.96 82.4536L74.3662 83.3675L74.3767 83.3627L73.96 82.4536ZM66.72 82.7336C64.4498 82.7336 62.2628 82.4757 60.157 81.9621L59.683 83.9051C61.9505 84.4582 64.2969 84.7336 66.72 84.7336V82.7336ZM60.157 81.9621C58.0357 81.4447 56.3382 80.7833 55.0369 79.9976L54.0031 81.7097C55.5285 82.6306 57.431 83.3559 59.683 83.9051L60.157 81.9621ZM55.4347 81.2578L58.4747 74.3778L56.6453 73.5695L53.6053 80.4495L55.4347 81.2578ZM57.0583 74.8387C58.467 75.6557 60.0215 76.3124 61.717 76.8127L62.283 74.8945C60.7252 74.4348 59.3197 73.8382 58.0617 73.1086L57.0583 74.8387ZM61.7356 76.818C63.4658 77.2925 65.1549 77.5336 66.8 77.5336V75.5336C65.3517 75.5336 63.8408 75.3215 62.2644 74.8892L61.7356 76.818ZM66.8 77.5336C67.7326 77.5336 68.5194 77.4799 69.126 77.3522L68.714 75.3951C68.3073 75.4807 67.6807 75.5336 66.8 75.5336V77.5336ZM69.1625 77.3438C69.7554 77.1955 70.3264 76.9726 70.7444 76.601L69.4156 75.1062C69.3536 75.1614 69.1512 75.285 68.6775 75.4035L69.1625 77.3438ZM70.7871 76.5607C71.202 76.1458 71.44 75.6162 71.44 75.0136H69.44C69.44 75.0511 69.438 75.0814 69.3729 75.1465L70.7871 76.5607ZM71.44 75.0136C71.44 74.037 70.8566 73.343 70.064 72.9278L69.136 74.6995C69.3147 74.7931 69.3855 74.871 69.4108 74.9071C69.4285 74.9324 69.44 74.9572 69.44 75.0136H71.44ZM70.064 72.9278C69.3886 72.574 68.5407 72.31 67.5561 72.113L67.1639 74.0742C68.046 74.2506 68.6914 74.4666 69.136 74.6995L70.064 72.9278ZM67.589 72.1202C66.6678 71.9034 65.6551 71.6875 64.5515 71.4721L64.1685 73.4351C65.2516 73.6465 66.2389 73.8571 67.131 74.067L67.589 72.1202ZM64.5744 71.4769C63.5173 71.2448 62.4446 70.9477 61.3562 70.5849L60.7238 72.4823C61.8754 72.8662 63.016 73.1824 64.1456 73.4304L64.5744 71.4769ZM61.3631 70.5873C60.3468 70.2402 59.4097 69.7834 58.5492 69.2179L57.4508 70.8893C58.4569 71.5505 59.5466 72.0804 60.7169 72.48L61.3631 70.5873ZM58.5603 69.2253C57.7859 68.7015 57.1566 68.0178 56.6697 67.16L54.9303 68.1472C55.5634 69.2628 56.4008 70.1791 57.4397 70.8819L58.5603 69.2253ZM56.6752 67.1699C56.2174 66.3415 55.96 65.2655 55.96 63.8936H53.96C53.96 65.5084 54.2626 66.9391 54.9248 68.1373L56.6752 67.1699ZM55.96 63.8936C55.96 62.3576 56.3815 60.9805 57.2272 59.7355L55.5728 58.6117C54.4985 60.1934 53.96 61.963 53.96 63.8936H55.96ZM57.2249 59.7389C58.0874 58.4801 59.3807 57.441 61.1661 56.6474L60.3539 54.8198C58.2993 55.7329 56.6859 56.9872 55.5751 58.6084L57.2249 59.7389ZM61.1615 56.6495C62.9451 55.8676 65.212 55.4536 68 55.4536V53.4536C65.0281 53.4536 62.4682 53.893 60.3585 54.8178L61.1615 56.6495ZM68 55.4536C69.8223 55.4536 71.6177 55.6461 73.3876 56.0308L73.8124 54.0765C71.9023 53.6612 69.9644 53.4536 68 53.4536V55.4536ZM73.3876 56.0308C75.1413 56.4121 76.699 56.9926 78.069 57.7648L79.051 56.0225C77.4877 55.1413 75.7387 54.4952 73.8124 54.0765L73.3876 56.0308ZM77.6364 56.5102L74.7964 63.3502L76.6436 64.1171L79.4836 57.2771L77.6364 56.5102ZM76.1672 62.8392C74.7283 62.1197 73.3178 61.5735 71.9364 61.2071L71.4236 63.1402C72.6556 63.467 73.9384 63.9609 75.2728 64.6281L76.1672 62.8392ZM71.9414 61.2084C70.5831 60.8405 69.2418 60.6536 67.92 60.6536V62.6536C69.0515 62.6536 70.2169 62.8134 71.4186 63.1389L71.9414 61.2084ZM67.92 60.6536C66.9689 60.6536 66.1391 60.7359 65.4727 60.9358L66.0473 62.8515C66.4476 62.7314 67.0578 62.6536 67.92 62.6536V60.6536ZM65.4727 60.9358C64.8527 61.1218 64.2693 61.4062 63.8567 61.8647L65.3433 63.2026C65.4107 63.1277 65.6007 62.9855 66.0473 62.8515L65.4727 60.9358ZM63.8191 61.9089C63.4742 62.3401 63.28 62.8507 63.28 63.4136H65.28C65.28 63.3365 65.2992 63.2605 65.3809 63.1583L63.8191 61.9089ZM63.28 63.4136C63.28 64.3854 63.8882 65.0573 64.656 65.4595L65.584 63.6878C65.3984 63.5906 65.3248 63.5115 65.2999 63.4771C65.2842 63.4554 65.28 63.4442 65.28 63.4136H63.28ZM64.6901 65.4765C65.349 65.7903 66.1674 66.0373 67.1183 66.2331L67.5217 64.2742C66.6593 64.0966 66.011 63.8903 65.5499 63.6708L64.6901 65.4765ZM67.1239 66.2342C68.059 66.4212 69.0739 66.6215 70.1685 66.8351L70.5515 64.8721C69.4595 64.6591 68.4477 64.4594 67.5161 64.273L67.1239 66.2342ZM70.1729 66.836C71.2461 67.0404 72.3074 67.3216 73.3569 67.68L74.0031 65.7873C72.866 65.399 71.7139 65.0935 70.5471 64.8713L70.1729 66.836ZM73.3569 67.68C74.3709 68.0262 75.2905 68.481 76.1197 69.0419L77.2403 67.3853C76.2562 66.7196 75.1758 66.1877 74.0031 65.7873L73.3569 67.68ZM76.1308 69.0493C76.9296 69.5742 77.5672 70.2561 78.0503 71.1072L79.7897 70.12C79.1528 68.9978 78.2971 68.0797 77.2292 67.3779L76.1308 69.0493ZM78.0503 71.1072C78.5034 71.9056 78.76 72.9506 78.76 74.2936H80.76C80.76 72.7034 80.4566 71.295 79.7897 70.12L78.0503 71.1072ZM78.76 74.2936C78.76 75.7937 78.3305 77.1708 77.4551 78.4484L79.1049 79.5789C80.2029 77.9765 80.76 76.2069 80.76 74.2936H78.76ZM77.4528 78.4517C76.6171 79.6821 75.3364 80.7227 73.5433 81.5446L74.3767 83.3627C76.4236 82.4245 78.0229 81.1718 79.1072 79.5755L77.4528 78.4517ZM73.5539 81.5398C71.8008 82.319 69.537 82.7336 66.72 82.7336V84.7336C69.7163 84.7336 72.2792 84.295 74.3661 83.3674L73.5539 81.5398ZM87.2584 83.0936L86.3138 83.4217L86.5472 84.0936H87.2584V83.0936ZM79.6584 61.2136V60.2136H78.2525L78.7138 61.5417L79.6584 61.2136ZM88.2184 61.2136L89.1697 60.9051L88.9454 60.2136H88.2184V61.2136ZM93.9784 78.9736V79.9736H95.354L94.9297 78.6651L93.9784 78.9736ZM89.8584 78.9736L88.9117 78.6516L88.4621 79.9736H89.8584V78.9736ZM95.8984 61.2136V60.2136H95.1823L94.9517 60.8916L95.8984 61.2136ZM103.578 61.2136L104.53 60.9051L104.305 60.2136H103.578V61.2136ZM109.338 78.9736V79.9736H110.714L110.29 78.6651L109.338 78.9736ZM105.338 78.9736L104.39 78.6555L103.948 79.9736H105.338V78.9736ZM111.298 61.2136V60.2136H110.579L110.35 60.8955L111.298 61.2136ZM119.218 61.2136L120.163 61.5417L120.624 60.2136H119.218V61.2136ZM111.618 83.0936V84.0936H112.33L112.563 83.4217L111.618 83.0936ZM102.818 83.0936L101.868 83.4042L102.093 84.0936H102.818V83.0936ZM98.2184 69.0136V68.0136H96.8397L97.2679 69.3242L98.2184 69.0136ZM100.858 69.0136L101.805 69.3363L102.256 68.0136H100.858V69.0136ZM96.0584 83.0936V84.0936H96.774L97.0049 83.4163L96.0584 83.0936ZM88.2031 82.7655L80.6031 60.8855L78.7138 61.5417L86.3138 83.4217L88.2031 82.7655ZM79.6584 62.2136H88.2184V60.2136H79.6584V62.2136ZM87.2672 61.5221L93.0272 79.2821L94.9297 78.6651L89.1697 60.9051L87.2672 61.5221ZM93.9784 77.9736H89.8584V79.9736H93.9784V77.9736ZM90.8052 79.2956L96.8452 61.5356L94.9517 60.8916L88.9117 78.6516L90.8052 79.2956ZM95.8984 62.2136H103.578V60.2136H95.8984V62.2136ZM102.627 61.5221L108.387 79.2821L110.29 78.6651L104.53 60.9051L102.627 61.5221ZM109.338 77.9736H105.338V79.9736H109.338V77.9736ZM106.286 79.2918L112.246 61.5318L110.35 60.8955L104.39 78.6555L106.286 79.2918ZM111.298 62.2136H119.218V60.2136H111.298V62.2136ZM118.274 60.8855L110.674 82.7655L112.563 83.4217L120.163 61.5417L118.274 60.8855ZM111.618 82.0936H102.818V84.0936H111.618V82.0936ZM103.769 82.7831L99.169 68.7031L97.2679 69.3242L101.868 83.4042L103.769 82.7831ZM98.2184 70.0136H100.858V68.0136H98.2184V70.0136ZM99.9119 68.691L95.1119 82.771L97.0049 83.4163L101.805 69.3363L99.9119 68.691ZM96.0584 82.0936H87.2584V84.0936H96.0584V82.0936ZM133.42 83.0936H132.42V84.0936H133.42V83.0936ZM133.42 79.2136H134.42V78.9306L134.271 78.6895L133.42 79.2136ZM132.78 78.1736H131.78V78.4567L131.928 78.6977L132.78 78.1736ZM131.78 68.3736L131.121 69.1262L131.129 69.1328L131.136 69.1393L131.78 68.3736ZM125.62 68.0136L125.898 68.9742L125.909 68.9708L125.921 68.9672L125.62 68.0136ZM123.02 69.2536L122.119 69.6887L122.645 70.7759L123.615 70.0572L123.02 69.2536ZM120.14 63.2936L119.61 62.4456L118.849 62.921L119.239 63.7287L120.14 63.2936ZM124.74 61.4536L124.972 62.4263L124.74 61.4536ZM138.7 63.3336L138.066 64.1076L138.071 64.1116L138.7 63.3336ZM141.82 83.0936V84.0936H142.82V83.0936H141.82ZM122.74 82.5736L122.285 83.4641L122.74 82.5736ZM120.02 80.1336L119.158 80.6416L119.164 80.6514L120.02 80.1336ZM120.18 73.0936L120.987 73.6831L120.18 73.0936ZM123.46 70.8536L123.138 69.9066L123.133 69.9084L123.46 70.8536ZM133.66 70.0936H134.66V69.0936H133.66V70.0936ZM133.66 74.4536V75.4536H134.66V74.4536H133.66ZM128.42 74.9336L128.986 75.7577L128.996 75.7506L128.42 74.9336ZM128.34 77.5736L127.659 78.3064L127.686 78.3315L127.715 78.3545L128.34 77.5736ZM131.62 77.5736L132.154 78.4192L132.165 78.4121L131.62 77.5736ZM132.78 75.9736L133.697 75.5764L132.658 73.1756L131.831 75.6574L132.78 75.9736ZM133.94 78.6536L134.918 78.8621L134.984 78.5496L134.857 78.2564L133.94 78.6536ZM131.74 82.2936L131.158 81.4799L131.74 82.2936ZM134.42 83.0936V79.2136H132.42V83.0936H134.42ZM134.271 78.6895L133.631 77.6495L131.928 78.6977L132.568 79.7377L134.271 78.6895ZM133.78 78.1736V70.8136H131.78V78.1736H133.78ZM133.78 70.8136C133.78 69.5243 133.366 68.4002 132.423 67.6079L131.136 69.1393C131.527 69.467 131.78 69.9696 131.78 70.8136H133.78ZM132.438 67.621C131.523 66.8207 130.168 66.5336 128.62 66.5336V68.5336C130.005 68.5336 130.756 68.8066 131.121 69.1262L132.438 67.621ZM128.62 66.5336C127.523 66.5336 126.422 66.7116 125.319 67.06L125.921 68.9672C126.844 68.6756 127.743 68.5336 128.62 68.5336V66.5336ZM125.342 67.0531C124.234 67.3737 123.255 67.8346 122.424 68.4501L123.615 70.0572C124.224 69.606 124.979 69.2402 125.898 68.9742L125.342 67.0531ZM123.92 68.8185L121.04 62.8585L119.239 63.7287L122.119 69.6887L123.92 68.8185ZM120.67 64.1416C121.84 63.4099 123.269 62.8331 124.972 62.4263L124.507 60.481C122.637 60.9275 120.999 61.5773 119.61 62.4456L120.67 64.1416ZM124.972 62.4263C126.688 62.0164 128.357 61.8136 129.98 61.8136V59.8136C128.189 59.8136 126.364 60.0375 124.507 60.481L124.972 62.4263ZM129.98 61.8136C133.603 61.8136 136.253 62.6241 138.066 64.1076L139.333 62.5597C137.039 60.6831 133.876 59.8136 129.98 59.8136V61.8136ZM138.071 64.1116C139.838 65.5385 140.82 67.865 140.82 71.3336H142.82C142.82 67.4956 141.721 64.4887 139.328 62.5557L138.071 64.1116ZM140.82 71.3336V83.0936H142.82V71.3336H140.82ZM141.82 82.0936H133.42V84.0936H141.82V82.0936ZM127.22 82.4936C125.542 82.4936 124.216 82.2049 123.195 81.6832L122.285 83.4641C123.664 84.169 125.324 84.4936 127.22 84.4936V82.4936ZM123.195 81.6832C122.137 81.1425 121.38 80.4491 120.875 79.6158L119.164 80.6514C119.886 81.8448 120.942 82.7781 122.285 83.4641L123.195 81.6832ZM120.881 79.6256C120.362 78.7456 120.1 77.7754 120.1 76.6936H118.1C118.1 78.1185 118.451 79.4417 119.158 80.6416L120.881 79.6256ZM120.1 76.6936C120.1 75.4577 120.411 74.4727 120.987 73.6831L119.372 72.5042C118.508 73.6879 118.1 75.1029 118.1 76.6936H120.1ZM120.987 73.6831C121.558 72.901 122.46 72.2569 123.786 71.7988L123.133 69.9084C121.526 70.4637 120.241 71.3129 119.372 72.5042L120.987 73.6831ZM123.781 71.8006C125.136 71.3407 126.899 71.0936 129.1 71.0936V69.0936C126.767 69.0936 124.77 69.3532 123.138 69.9066L123.781 71.8006ZM129.1 71.0936H133.66V69.0936H129.1V71.0936ZM132.66 70.0936V74.4536H134.66V70.0936H132.66ZM133.66 73.4536H130.54V75.4536H133.66V73.4536ZM130.54 73.4536C129.507 73.4536 128.549 73.6184 127.843 74.1167L128.996 75.7506C129.197 75.6088 129.652 75.4536 130.54 75.4536V73.4536ZM127.853 74.1096C127.102 74.6258 126.78 75.4207 126.78 76.2936H128.78C128.78 75.9399 128.884 75.8282 128.986 75.7577L127.853 74.1096ZM126.78 76.2936C126.78 77.0801 127.083 77.7717 127.659 78.3064L129.02 76.8408C128.849 76.6822 128.78 76.5205 128.78 76.2936H126.78ZM127.715 78.3545C128.34 78.8542 129.115 79.0536 129.94 79.0536V77.0536C129.431 77.0536 129.14 76.933 128.964 76.7928L127.715 78.3545ZM129.94 79.0536C130.737 79.0536 131.483 78.8425 132.154 78.4191L131.086 76.7281C130.743 76.9447 130.369 77.0536 129.94 77.0536V79.0536ZM132.165 78.4121C132.923 77.9194 133.431 77.1815 133.728 76.2899L131.831 75.6574C131.648 76.2057 131.383 76.5345 131.075 76.7352L132.165 78.4121ZM131.862 76.3708L133.022 79.0508L134.857 78.2564L133.697 75.5764L131.862 76.3708ZM132.962 78.4452C132.656 79.8812 132.035 80.854 131.158 81.4799L132.321 83.1074C133.685 82.1332 134.53 80.6793 134.918 78.8621L132.962 78.4452ZM131.158 81.4799C130.261 82.1208 128.981 82.4936 127.22 82.4936V84.4936C129.245 84.4936 130.978 84.0664 132.321 83.1074L131.158 81.4799ZM155.607 82.2936L155.048 83.1229L155.058 83.1299L155.069 83.1366L155.607 82.2936ZM152.887 78.5736L151.942 78.9033L151.944 78.908L152.887 78.5736ZM152.807 65.7336L151.858 65.4174L151.855 65.4266L152.807 65.7336ZM155.487 62.0136L156.033 62.8512L155.487 62.0136ZM165.607 62.2136L165.103 63.0775L165.114 63.0837L165.607 62.2136ZM169.447 66.1336L168.575 66.6239L168.578 66.6298L169.447 66.1336ZM169.447 78.2536L170.315 78.7498L170.318 78.7439L169.447 78.2536ZM165.607 82.1336L166.1 83.0037L165.607 82.1336ZM145.727 90.8536H144.727V91.8536H145.727V90.8536ZM145.727 61.2136V60.2136H144.727V61.2136H145.727ZM154.327 61.2136H155.327V60.2136H154.327V61.2136ZM154.327 64.1736H153.327L153.327 64.1786L154.327 64.1736ZM154.367 72.1736L153.367 72.1786L153.367 72.2011L153.368 72.2236L154.367 72.1736ZM154.767 80.1736H155.767V80.1486L155.765 80.1237L154.767 80.1736ZM154.767 90.8536V91.8536H155.767V90.8536H154.767ZM159.967 75.9736L160.481 76.8311L159.967 75.9736ZM161.247 74.5336L160.352 74.0864L161.247 74.5336ZM161.247 69.7736L160.352 70.2208L161.247 69.7736ZM155.087 69.7736L155.981 70.2208L155.087 69.7736ZM155.087 74.5336L155.981 74.0864L155.087 74.5336ZM156.367 75.9736L155.852 76.8311L156.367 75.9736ZM160.327 82.4936C158.572 82.4936 157.199 82.1235 156.145 81.4507L155.069 83.1366C156.521 84.0638 158.294 84.4936 160.327 84.4936V82.4936ZM156.165 81.4644C155.148 80.7784 154.358 79.7295 153.829 78.2392L151.944 78.908C152.589 80.7245 153.612 82.1555 155.048 83.1229L156.165 81.4644ZM153.831 78.2439C153.294 76.7062 153.007 74.6943 153.007 72.1736H151.007C151.007 74.8263 151.306 77.081 151.942 78.9033L153.831 78.2439ZM153.007 72.1736C153.007 69.5896 153.269 67.5574 153.758 66.0406L151.855 65.4266C151.277 67.2165 151.007 69.4777 151.007 72.1736H153.007ZM153.755 66.0499C154.259 64.5378 155.033 63.5036 156.033 62.8512L154.94 61.176C153.487 62.1236 152.474 63.5695 151.858 65.4174L153.755 66.0499ZM156.033 62.8512C157.048 62.1894 158.452 61.8136 160.327 61.8136V59.8136C158.201 59.8136 156.379 60.2379 154.94 61.176L156.033 62.8512ZM160.327 61.8136C162.076 61.8136 163.661 62.2366 165.103 63.0774L166.11 61.3498C164.352 60.324 162.417 59.8136 160.327 59.8136V61.8136ZM165.114 63.0837C166.545 63.8947 167.698 65.0652 168.575 66.6239L170.318 65.6434C169.275 63.7887 167.868 62.3459 166.1 61.3436L165.114 63.0837ZM168.578 66.6298C169.435 68.1296 169.887 69.9641 169.887 72.1736H171.887C171.887 69.6898 171.378 67.4977 170.315 65.6375L168.578 66.6298ZM169.887 72.1736C169.887 74.3826 169.436 76.2335 168.575 77.7634L170.318 78.7439C171.378 76.8604 171.887 74.658 171.887 72.1736H169.887ZM168.578 77.7575C167.703 79.2899 166.549 80.4503 165.114 81.2636L166.1 83.0037C167.864 82.0037 169.27 80.5774 170.315 78.7498L168.578 77.7575ZM165.114 81.2636C163.671 82.0813 162.082 82.4936 160.327 82.4936V84.4936C162.411 84.4936 164.342 83.9993 166.1 83.0037L165.114 81.2636ZM146.727 90.8536V61.2136H144.727V90.8536H146.727ZM145.727 62.2136H154.327V60.2136H145.727V62.2136ZM153.327 61.2136V64.1736H155.327V61.2136H153.327ZM153.327 64.1786L153.367 72.1786L155.367 72.1686L155.327 64.1686L153.327 64.1786ZM153.368 72.2236L153.768 80.2236L155.765 80.1237L155.365 72.1237L153.368 72.2236ZM153.767 80.1736V90.8536H155.767V80.1736H153.767ZM154.767 89.8536H145.727V91.8536H154.767V89.8536ZM158.167 77.4536C159.001 77.4536 159.781 77.2511 160.481 76.8311L159.452 75.1161C159.085 75.3362 158.666 75.4536 158.167 75.4536V77.4536ZM160.481 76.8311C161.201 76.3992 161.749 75.7648 162.141 74.9808L160.352 74.0864C160.104 74.5825 159.799 74.908 159.452 75.1161L160.481 76.8311ZM162.141 74.9808C162.548 74.1663 162.727 73.2167 162.727 72.1736H160.727C160.727 72.9972 160.585 73.6209 160.352 74.0864L162.141 74.9808ZM162.727 72.1736C162.727 71.109 162.55 70.1444 162.141 69.3264L160.352 70.2208C160.583 70.6829 160.727 71.3183 160.727 72.1736H162.727ZM162.141 69.3264C161.749 68.5425 161.201 67.908 160.481 67.4761L159.452 69.1911C159.799 69.3992 160.104 69.7248 160.352 70.2208L162.141 69.3264ZM160.481 67.4761C159.781 67.0562 159.001 66.8536 158.167 66.8536V68.8536C158.666 68.8536 159.085 68.9711 159.452 69.1911L160.481 67.4761ZM158.167 66.8536C157.332 66.8536 156.552 67.0562 155.852 67.4761L156.881 69.1911C157.248 68.9711 157.668 68.8536 158.167 68.8536V66.8536ZM155.852 67.4761C155.132 67.908 154.584 68.5425 154.192 69.3264L155.981 70.2208C156.229 69.7248 156.534 69.3992 156.881 69.1911L155.852 67.4761ZM154.192 69.3264C153.783 70.1444 153.607 71.109 153.607 72.1736H155.607C155.607 71.3183 155.75 70.6829 155.981 70.2208L154.192 69.3264ZM153.607 72.1736C153.607 73.2167 153.785 74.1663 154.192 74.9808L155.981 74.0864C155.748 73.6209 155.607 72.9972 155.607 72.1736H153.607ZM154.192 74.9808C154.584 75.7648 155.132 76.3992 155.852 76.8311L156.881 75.1161C156.534 74.908 156.229 74.5825 155.981 74.0864L154.192 74.9808ZM155.852 76.8311C156.552 77.2511 157.332 77.4536 158.167 77.4536V75.4536C157.668 75.4536 157.248 75.3362 156.881 75.1161L155.852 76.8311Z" fill="url(#paint0_linear_56_1005)"/>
</g>
<g filter="url(#filter1_d_56_1005)">
<path d="M57.632 59.384C56.224 59.384 54.864 59.224 53.552 58.904C52.24 58.584 51.16 58.168 50.312 57.656L52.136 53.528C52.936 53.992 53.824 54.368 54.8 54.656C55.792 54.928 56.752 55.064 57.68 55.064C58.224 55.064 58.648 55.032 58.952 54.968C59.272 54.888 59.504 54.784 59.648 54.656C59.792 54.512 59.864 54.344 59.864 54.152C59.864 53.848 59.696 53.608 59.36 53.432C59.024 53.256 58.576 53.112 58.016 53C57.472 52.872 56.872 52.744 56.216 52.616C55.56 52.472 54.896 52.288 54.224 52.064C53.568 51.84 52.96 51.544 52.4 51.176C51.856 50.808 51.416 50.328 51.08 49.736C50.744 49.128 50.576 48.376 50.576 47.48C50.576 46.44 50.864 45.496 51.44 44.648C52.032 43.784 52.904 43.096 54.056 42.584C55.224 42.072 56.672 41.816 58.4 41.816C59.536 41.816 60.656 41.936 61.76 42.176C62.864 42.416 63.856 42.784 64.736 43.28L63.032 47.384C62.2 46.968 61.392 46.656 60.608 46.448C59.84 46.24 59.088 46.136 58.352 46.136C57.808 46.136 57.376 46.184 57.056 46.28C56.736 46.376 56.504 46.504 56.36 46.664C56.232 46.824 56.168 47 56.168 47.192C56.168 47.48 56.336 47.712 56.672 47.888C57.008 48.048 57.448 48.184 57.992 48.296C58.552 48.408 59.16 48.528 59.816 48.656C60.488 48.784 61.152 48.96 61.808 49.184C62.464 49.408 63.064 49.704 63.608 50.072C64.168 50.44 64.616 50.92 64.952 51.512C65.288 52.104 65.456 52.84 65.456 53.72C65.456 54.744 65.16 55.688 64.568 56.552C63.992 57.4 63.128 58.088 61.976 58.616C60.824 59.128 59.376 59.384 57.632 59.384ZM66.9734 59V45.872H72.3974V59H66.9734ZM69.6854 44.816C68.6934 44.816 67.9014 44.552 67.3094 44.024C66.7174 43.496 66.4214 42.84 66.4214 42.056C66.4214 41.272 66.7174 40.616 67.3094 40.088C67.9014 39.56 68.6934 39.296 69.6854 39.296C70.6774 39.296 71.4694 39.544 72.0614 40.04C72.6534 40.536 72.9494 41.176 72.9494 41.96C72.9494 42.792 72.6534 43.48 72.0614 44.024C71.4694 44.552 70.6774 44.816 69.6854 44.816ZM92.1776 45.632C93.1696 45.632 94.0576 45.84 94.8416 46.256C95.6416 46.656 96.2656 47.288 96.7136 48.152C97.1776 49.016 97.4096 50.136 97.4096 51.512V59H91.9856V52.448C91.9856 51.632 91.8496 51.056 91.5776 50.72C91.3056 50.368 90.9536 50.192 90.5216 50.192C90.2016 50.192 89.9136 50.272 89.6576 50.432C89.4016 50.592 89.1936 50.848 89.0336 51.2C88.8896 51.536 88.8176 52 88.8176 52.592V59H83.3936V52.448C83.3936 51.632 83.2656 51.056 83.0096 50.72C82.7536 50.368 82.3936 50.192 81.9296 50.192C81.6096 50.192 81.3216 50.272 81.0656 50.432C80.8096 50.592 80.6016 50.848 80.4416 51.2C80.2976 51.536 80.2256 52 80.2256 52.592V59H74.8016V45.872H79.9616V49.64L78.9056 48.584C79.4016 47.592 80.0656 46.856 80.8976 46.376C81.7296 45.88 82.6576 45.632 83.6816 45.632C84.8336 45.632 85.8496 45.936 86.7296 46.544C87.6256 47.136 88.2256 48.08 88.5296 49.376L86.8736 49.112C87.3536 48.024 88.0496 47.176 88.9616 46.568C89.8896 45.944 90.9616 45.632 92.1776 45.632ZM108.523 59.24C107.387 59.24 106.443 59 105.691 58.52C104.955 58.024 104.411 57.28 104.059 56.288C103.707 55.28 103.531 54 103.531 52.448C103.531 50.864 103.691 49.576 104.011 48.584C104.347 47.576 104.883 46.832 105.618 46.352C106.355 45.872 107.323 45.632 108.523 45.632C109.675 45.632 110.731 45.912 111.691 46.472C112.651 47.016 113.419 47.8 113.995 48.824C114.571 49.832 114.859 51.04 114.859 52.448C114.859 53.856 114.571 55.072 113.995 56.096C113.419 57.104 112.651 57.88 111.691 58.424C110.731 58.968 109.675 59.24 108.523 59.24ZM99.7625 63.656V45.872H104.923V47.648L104.947 52.448L105.187 57.248V63.656H99.7625ZM107.227 55.016C107.627 55.016 107.987 54.92 108.307 54.728C108.627 54.536 108.883 54.248 109.075 53.864C109.267 53.48 109.363 53.008 109.363 52.448C109.363 51.872 109.267 51.392 109.075 51.008C108.883 50.624 108.627 50.336 108.307 50.144C107.987 49.952 107.627 49.856 107.227 49.856C106.827 49.856 106.467 49.952 106.147 50.144C105.827 50.336 105.571 50.624 105.379 51.008C105.187 51.392 105.091 51.872 105.091 52.448C105.091 53.008 105.187 53.48 105.379 53.864C105.571 54.248 105.827 54.536 106.147 54.728C106.467 54.92 106.827 55.016 107.227 55.016ZM116.567 59V41.192H121.991V59H116.567ZM131.643 59.24C130.043 59.24 128.643 58.944 127.443 58.352C126.259 57.76 125.339 56.952 124.683 55.928C124.027 54.888 123.699 53.72 123.699 52.424C123.699 51.096 124.019 49.92 124.659 48.896C125.315 47.872 126.203 47.072 127.323 46.496C128.459 45.92 129.731 45.632 131.139 45.632C132.435 45.632 133.627 45.888 134.715 46.4C135.819 46.912 136.699 47.672 137.355 48.68C138.027 49.688 138.363 50.936 138.363 52.424C138.363 52.616 138.355 52.832 138.339 53.072C138.323 53.296 138.307 53.504 138.291 53.696H128.187V51.08H135.411L133.371 51.776C133.371 51.264 133.275 50.832 133.083 50.48C132.907 50.112 132.659 49.832 132.339 49.64C132.019 49.432 131.635 49.328 131.187 49.328C130.739 49.328 130.347 49.432 130.011 49.64C129.691 49.832 129.443 50.112 129.267 50.48C129.091 50.832 129.003 51.264 129.003 51.776V52.592C129.003 53.152 129.115 53.632 129.339 54.032C129.563 54.432 129.883 54.736 130.299 54.944C130.715 55.136 131.219 55.232 131.811 55.232C132.419 55.232 132.915 55.152 133.299 54.992C133.699 54.832 134.115 54.592 134.547 54.272L137.379 57.128C136.739 57.816 135.947 58.344 135.003 58.712C134.075 59.064 132.955 59.24 131.643 59.24Z" fill="url(#paint1_linear_56_1005)"/>
<path d="M53.552 58.904L53.789 57.9325L53.552 58.904ZM50.312 57.656L49.3973 57.2518L49.0415 58.0571L49.7951 58.5121L50.312 57.656ZM52.136 53.528L52.6377 52.663L51.6724 52.1031L51.2213 53.1238L52.136 53.528ZM54.8 54.656L54.517 55.6151L54.5262 55.6178L54.5356 55.6204L54.8 54.656ZM58.952 54.968L59.158 55.9466L59.1764 55.9427L59.1945 55.9381L58.952 54.968ZM59.648 54.656L60.3124 55.4034L60.3343 55.3839L60.3551 55.3631L59.648 54.656ZM59.36 53.432L58.896 54.3178L59.36 53.432ZM58.016 53L57.787 53.9734L57.8034 53.9773L57.8199 53.9806L58.016 53ZM56.216 52.616L56.0016 53.5927L56.013 53.5953L56.0245 53.5975L56.216 52.616ZM54.224 52.064L53.9008 53.0104L53.9078 53.0127L54.224 52.064ZM52.4 51.176L51.8396 52.0044L51.8508 52.0117L52.4 51.176ZM51.08 49.736L50.2047 50.2197L50.2103 50.2296L51.08 49.736ZM51.44 44.648L50.6151 44.0828L50.6128 44.0861L51.44 44.648ZM54.056 42.584L53.6545 41.6681L53.6499 41.6702L54.056 42.584ZM61.76 42.176L61.5476 43.1532L61.76 42.176ZM64.736 43.28L65.6596 43.6635L65.9997 42.8443L65.227 42.4088L64.736 43.28ZM63.032 47.384L62.5848 48.2784L63.5442 48.7581L63.9556 47.7675L63.032 47.384ZM60.608 46.448L60.3466 47.4132L60.3516 47.4146L60.608 46.448ZM57.056 46.28L56.7687 45.3222H56.7687L57.056 46.28ZM56.36 46.664L55.6167 45.995L55.5973 46.0166L55.5791 46.0393L56.36 46.664ZM56.672 47.888L56.208 48.7738L56.2249 48.7827L56.2421 48.7909L56.672 47.888ZM57.992 48.296L57.7903 49.2755L57.7959 49.2766L57.992 48.296ZM59.816 48.656L59.6245 49.6375L59.6289 49.6383L59.816 48.656ZM61.808 49.184L61.4849 50.1303V50.1304L61.808 49.184ZM63.608 50.072L63.0476 50.9004L63.0588 50.9077L63.608 50.072ZM64.952 51.512L64.0823 52.0056H64.0823L64.952 51.512ZM64.568 56.552L63.7431 55.9868L63.7408 55.9901L64.568 56.552ZM61.976 58.616L62.3822 59.5299L62.3927 59.5251L61.976 58.616ZM57.632 58.384C56.3004 58.384 55.0202 58.2328 53.789 57.9325L53.315 59.8755C54.7078 60.2152 56.1476 60.384 57.632 60.384V58.384ZM53.789 57.9325C52.5424 57.6284 51.5649 57.2443 50.8289 56.7999L49.7951 58.5121C50.7551 59.0917 51.9376 59.5396 53.315 59.8755L53.789 57.9325ZM51.2267 58.0602L53.0507 53.9322L51.2213 53.1238L49.3973 57.2518L51.2267 58.0602ZM51.6343 54.393C52.5097 54.9008 53.4721 55.3068 54.517 55.6151L55.083 53.6969C54.1759 53.4292 53.3623 53.0832 52.6377 52.663L51.6343 54.393ZM54.5356 55.6204C55.6045 55.9135 56.6536 56.064 57.68 56.064V54.064C56.8504 54.064 55.9795 53.9425 55.0644 53.6916L54.5356 55.6204ZM57.68 56.064C58.2499 56.064 58.7541 56.0316 59.158 55.9466L58.746 53.9895C58.5419 54.0324 58.1981 54.064 57.68 54.064V56.064ZM59.1945 55.9381C59.5741 55.8433 59.9904 55.6896 60.3124 55.4034L58.9836 53.9086C59.0077 53.8872 59.0078 53.8947 58.9569 53.9175C58.9077 53.9396 58.8282 53.9682 58.7095 53.9979L59.1945 55.9381ZM60.3551 55.3631C60.674 55.0442 60.864 54.6266 60.864 54.152H58.864C58.864 54.1195 58.8708 54.0748 58.8909 54.0281C58.9104 53.9825 58.9332 53.9566 58.9409 53.9489L60.3551 55.3631ZM60.864 54.152C60.864 53.378 60.3926 52.844 59.824 52.5462L58.896 54.3178C58.9627 54.3528 58.9495 54.3614 58.9188 54.3175C58.9029 54.2948 58.8876 54.2653 58.877 54.2311C58.8666 54.1972 58.864 54.1692 58.864 54.152H60.864ZM59.824 52.5462C59.3726 52.3097 58.8234 52.1417 58.2121 52.0194L57.8199 53.9806C58.3286 54.0823 58.6754 54.2023 58.896 54.3178L59.824 52.5462ZM58.245 52.0266C57.6865 51.8952 57.0737 51.7645 56.4075 51.6345L56.0245 53.5975C56.6703 53.7235 57.2575 53.8488 57.787 53.9734L58.245 52.0266ZM56.4304 51.6393C55.8106 51.5032 55.1806 51.3288 54.5402 51.1153L53.9078 53.0127C54.6114 53.2472 55.3094 53.4408 56.0016 53.5927L56.4304 51.6393ZM54.5471 51.1177C53.9681 50.9199 53.4364 50.6605 52.9492 50.3403L51.8508 52.0117C52.4836 52.4275 53.1679 52.7601 53.9009 53.0103L54.5471 51.1177ZM52.9603 50.3477C52.5485 50.0692 52.2126 49.7055 51.9497 49.2424L50.2103 50.2296C50.6194 50.9505 51.1635 51.5468 51.8397 52.0043L52.9603 50.3477ZM51.9552 49.2523C51.7214 48.8292 51.576 48.2546 51.576 47.48H49.576C49.576 48.4974 49.7666 49.4268 50.2048 50.2197L51.9552 49.2523ZM51.576 47.48C51.576 46.6373 51.8055 45.8896 52.2672 45.2099L50.6128 44.0861C49.9225 45.1024 49.576 46.2427 49.576 47.48H51.576ZM52.2649 45.2132C52.7327 44.5305 53.4447 43.95 54.4621 43.4978L53.6499 41.6702C52.3633 42.242 51.3313 43.0375 50.6151 44.0828L52.2649 45.2132ZM54.4575 43.4999C55.4625 43.0593 56.764 42.816 58.4 42.816V40.816C56.58 40.816 54.9855 41.0847 53.6545 41.6681L54.4575 43.4999ZM58.4 42.816C59.465 42.816 60.5137 42.9284 61.5476 43.1532L61.9724 41.1988C60.7983 40.9436 59.607 40.816 58.4 40.816V42.816ZM61.5476 43.1532C62.5653 43.3744 63.4617 43.7096 64.245 44.1512L65.227 42.4088C64.2503 41.8584 63.1627 41.4576 61.9724 41.1988L61.5476 43.1532ZM63.8124 42.8965L62.1084 47.0005L63.9556 47.7675L65.6596 43.6635L63.8124 42.8965ZM63.4792 46.4896C62.5949 46.0474 61.7231 45.7092 60.8644 45.4814L60.3516 47.4146C61.0609 47.6028 61.8051 47.8886 62.5848 48.2784L63.4792 46.4896ZM60.8694 45.4828C60.0231 45.2536 59.1831 45.136 58.352 45.136V47.136C58.9929 47.136 59.6569 47.2264 60.3466 47.4132L60.8694 45.4828ZM58.352 45.136C57.7636 45.136 57.2217 45.1863 56.7687 45.3222L57.3433 47.2378C57.5303 47.1817 57.8524 47.136 58.352 47.136V45.136ZM56.7687 45.3222C56.362 45.4442 55.9333 45.6432 55.6167 45.995L57.1033 47.333C57.0857 47.3525 57.085 47.3457 57.1251 47.3236C57.1653 47.3014 57.2346 47.2705 57.3433 47.2378L56.7687 45.3222ZM55.5791 46.0393C55.3195 46.3638 55.168 46.7571 55.168 47.192H57.168C57.168 47.2096 57.1646 47.2334 57.1558 47.2577C57.1472 47.2813 57.1385 47.2916 57.1409 47.2887L55.5791 46.0393ZM55.168 47.192C55.168 47.9718 55.6642 48.489 56.208 48.7738L57.136 47.0022C57.0624 46.9636 57.0728 46.9525 57.1039 46.9955C57.1205 47.0184 57.1383 47.0504 57.1511 47.0901C57.1639 47.1296 57.168 47.1653 57.168 47.192H55.168ZM56.2421 48.7909C56.677 48.998 57.2021 49.1543 57.7903 49.2755L58.1937 47.3165C57.6939 47.2137 57.339 47.098 57.1019 46.9851L56.2421 48.7909ZM57.7959 49.2766C58.3577 49.3889 58.9672 49.5092 59.6245 49.6375L60.0075 47.6745C59.3528 47.5468 58.7464 47.4271 58.1881 47.3154L57.7959 49.2766ZM59.6289 49.6383C60.2541 49.7574 60.8727 49.9213 61.4849 50.1303L62.1311 48.2376C61.4313 47.9987 60.7219 47.8106 60.0031 47.6737L59.6289 49.6383ZM61.4849 50.1304C62.0616 50.3273 62.5811 50.5847 63.0477 50.9003L64.1683 49.2437C63.5469 48.8233 62.8664 48.4887 62.1311 48.2376L61.4849 50.1304ZM63.0588 50.9077C63.4842 51.1873 63.8232 51.5492 64.0823 52.0056L65.8217 51.0184C65.4088 50.2908 64.8518 49.6927 64.1572 49.2363L63.0588 50.9077ZM64.0823 52.0056C64.3114 52.4093 64.456 52.9636 64.456 53.72H66.456C66.456 52.7164 66.2646 51.7987 65.8217 51.0184L64.0823 52.0056ZM64.456 53.72C64.456 54.5374 64.2238 55.2852 63.7431 55.9868L65.3929 57.1172C66.0962 56.0908 66.456 54.9506 66.456 53.72H64.456ZM63.7408 55.9901C63.2891 56.6551 62.5844 57.2371 61.5593 57.7069L62.3927 59.5251C63.6716 58.9389 64.6949 58.1449 65.3952 57.1139L63.7408 55.9901ZM61.5699 57.7022C60.5848 58.14 59.2863 58.384 57.632 58.384V60.384C59.4657 60.384 61.0632 60.116 62.3821 59.5298L61.5699 57.7022ZM66.9734 59H65.9734V60H66.9734V59ZM66.9734 45.872V44.872H65.9734V45.872H66.9734ZM72.3974 45.872H73.3974V44.872H72.3974V45.872ZM72.3974 59V60H73.3974V59H72.3974ZM67.3094 44.024L67.9751 43.2777L67.3094 44.024ZM67.3094 40.088L67.9751 40.8343L67.3094 40.088ZM72.0614 40.04L71.4192 40.8065V40.8065L72.0614 40.04ZM72.0614 44.024L72.7271 44.7703L72.7326 44.7654L72.7381 44.7603L72.0614 44.024ZM67.9734 59V45.872H65.9734V59H67.9734ZM66.9734 46.872H72.3974V44.872H66.9734V46.872ZM71.3974 45.872V59H73.3974V45.872H71.3974ZM72.3974 58H66.9734V60H72.3974V58ZM69.6854 43.816C68.8751 43.816 68.3412 43.6043 67.9751 43.2777L66.6438 44.7703C67.4617 45.4997 68.5118 45.816 69.6854 45.816V43.816ZM67.9751 43.2777C67.5929 42.9369 67.4214 42.5511 67.4214 42.056H65.4214C65.4214 43.1289 65.842 44.0551 66.6438 44.7703L67.9751 43.2777ZM67.4214 42.056C67.4214 41.5609 67.5929 41.1751 67.9751 40.8343L66.6438 39.3417C65.842 40.0569 65.4214 40.9831 65.4214 42.056H67.4214ZM67.9751 40.8343C68.3412 40.5077 68.8751 40.296 69.6854 40.296V38.296C68.5118 38.296 67.4617 38.6123 66.6438 39.3417L67.9751 40.8343ZM69.6854 40.296C70.5107 40.296 71.0533 40.5 71.4192 40.8065L72.7037 39.2735C71.8855 38.588 70.8441 38.296 69.6854 38.296V40.296ZM71.4192 40.8065C71.7805 41.1092 71.9494 41.4667 71.9494 41.96H73.9494C73.9494 40.8853 73.5264 39.9628 72.7037 39.2735L71.4192 40.8065ZM71.9494 41.96C71.9494 42.5232 71.7627 42.9404 71.3848 43.2877L72.7381 44.7603C73.5441 44.0196 73.9494 43.0608 73.9494 41.96H71.9494ZM71.3958 43.2777C71.0297 43.6043 70.4958 43.816 69.6854 43.816V45.816C70.8591 45.816 71.9092 45.4997 72.7271 44.7703L71.3958 43.2777ZM94.8416 46.256L94.3728 47.1393L94.3835 47.145L94.3944 47.1504L94.8416 46.256ZM96.7136 48.152L95.8258 48.6123L95.8291 48.6187L95.8326 48.6251L96.7136 48.152ZM97.4096 59V60H98.4096V59H97.4096ZM91.9856 59H90.9856V60H91.9856V59ZM91.5776 50.72L90.7863 51.3314L90.7932 51.3404L90.8003 51.3492L91.5776 50.72ZM89.6576 50.432L89.1276 49.584L89.1276 49.584L89.6576 50.432ZM89.0336 51.2L88.1232 50.7862L88.1187 50.7961L88.1144 50.8061L89.0336 51.2ZM88.8176 59V60H89.8176V59H88.8176ZM83.3936 59H82.3936V60H83.3936V59ZM83.0096 50.72L82.2008 51.3082L82.2074 51.3172L82.2141 51.326L83.0096 50.72ZM81.0656 50.432L80.5356 49.584L80.5356 49.584L81.0656 50.432ZM80.4416 51.2L79.5312 50.7862L79.5267 50.7961L79.5224 50.8061L80.4416 51.2ZM80.2256 59V60H81.2256V59H80.2256ZM74.8016 59H73.8016V60H74.8016V59ZM74.8016 45.872V44.872H73.8016V45.872H74.8016ZM79.9616 45.872H80.9616V44.872H79.9616V45.872ZM79.9616 49.64L79.2545 50.3471L80.9616 52.0542V49.64H79.9616ZM78.9056 48.584L78.0111 48.1368L77.6888 48.7815L78.1985 49.2911L78.9056 48.584ZM80.8976 46.376L81.3973 47.2422L81.4035 47.2386L81.4096 47.2349L80.8976 46.376ZM86.7296 46.544L86.1611 47.3667L86.1697 47.3726L86.1783 47.3783L86.7296 46.544ZM88.5296 49.376L88.3721 50.3635L89.8434 50.5981L89.5031 49.1476L88.5296 49.376ZM86.8736 49.112L85.9586 48.7084L85.435 49.8953L86.7161 50.0995L86.8736 49.112ZM88.9616 46.568L89.5163 47.4001L89.5196 47.3978L88.9616 46.568ZM92.1776 46.632C93.0257 46.632 93.7495 46.8086 94.3728 47.1393L95.3103 45.3727C94.3656 44.8714 93.3135 44.632 92.1776 44.632V46.632ZM94.3944 47.1504C94.9885 47.4475 95.4661 47.9185 95.8258 48.6123L97.6013 47.6917C97.0651 46.6575 96.2947 45.8645 95.2888 45.3616L94.3944 47.1504ZM95.8326 48.6251C96.1933 49.2969 96.4096 50.2383 96.4096 51.512H98.4096C98.4096 50.0337 98.1618 48.7351 97.5946 47.6789L95.8326 48.6251ZM96.4096 51.512V59H98.4096V51.512H96.4096ZM97.4096 58H91.9856V60H97.4096V58ZM92.9856 59V52.448H90.9856V59H92.9856ZM92.9856 52.448C92.9856 51.5794 92.8525 50.7055 92.3548 50.0908L90.8003 51.3492C90.8467 51.4065 90.9856 51.6846 90.9856 52.448H92.9856ZM92.3688 50.1086C91.9141 49.52 91.2739 49.192 90.5216 49.192V51.192C90.6333 51.192 90.6971 51.216 90.7863 51.3314L92.3688 50.1086ZM90.5216 49.192C90.0259 49.192 89.5522 49.3186 89.1276 49.584L90.1876 51.28C90.2749 51.2254 90.3772 51.192 90.5216 51.192V49.192ZM89.1276 49.584C88.6637 49.8739 88.3419 50.3051 88.1232 50.7862L89.9439 51.6138C90.0453 51.3909 90.1394 51.3101 90.1876 51.28L89.1276 49.584ZM88.1144 50.8061C87.8941 51.32 87.8176 51.9384 87.8176 52.592H89.8176C89.8176 52.0616 89.885 51.752 89.9527 51.5939L88.1144 50.8061ZM87.8176 52.592V59H89.8176V52.592H87.8176ZM88.8176 58H83.3936V60H88.8176V58ZM84.3936 59V52.448H82.3936V59H84.3936ZM84.3936 52.448C84.3936 51.5869 84.2703 50.7246 83.805 50.114L82.2141 51.326C82.2609 51.3874 82.3936 51.6771 82.3936 52.448H84.3936ZM83.8183 50.1318C83.36 49.5017 82.6888 49.192 81.9296 49.192V51.192C82.0984 51.192 82.1471 51.2343 82.2008 51.3082L83.8183 50.1318ZM81.9296 49.192C81.4339 49.192 80.9602 49.3186 80.5356 49.584L81.5956 51.28C81.6829 51.2254 81.7852 51.192 81.9296 51.192V49.192ZM80.5356 49.584C80.0717 49.8739 79.7499 50.3051 79.5312 50.7862L81.3519 51.6138C81.4533 51.3909 81.5474 51.3101 81.5956 51.28L80.5356 49.584ZM79.5224 50.8061C79.3021 51.32 79.2256 51.9384 79.2256 52.592H81.2256C81.2256 52.0616 81.293 51.752 81.3607 51.5939L79.5224 50.8061ZM79.2256 52.592V59H81.2256V52.592H79.2256ZM80.2256 58H74.8016V60H80.2256V58ZM75.8016 59V45.872H73.8016V59H75.8016ZM74.8016 46.872H79.9616V44.872H74.8016V46.872ZM78.9616 45.872V49.64H80.9616V45.872H78.9616ZM80.6687 48.9329L79.6127 47.8769L78.1985 49.2911L79.2545 50.3471L80.6687 48.9329ZM79.8 49.0312C80.2222 48.1867 80.7601 47.6098 81.3973 47.2422L80.3978 45.5098C79.371 46.1022 78.5809 46.9973 78.0111 48.1368L79.8 49.0312ZM81.4096 47.2349C82.0778 46.8366 82.8271 46.632 83.6816 46.632V44.632C82.488 44.632 81.3813 44.9234 80.3855 45.5171L81.4096 47.2349ZM83.6816 46.632C84.6469 46.632 85.4613 46.8832 86.1611 47.3667L87.298 45.7213C86.2379 44.9888 85.0202 44.632 83.6816 44.632V46.632ZM86.1783 47.3783C86.8132 47.7978 87.2956 48.4944 87.556 49.6044L89.5031 49.1476C89.1555 47.6656 88.4379 46.4742 87.2808 45.7097L86.1783 47.3783ZM88.687 48.3885L87.031 48.1245L86.7161 50.0995L88.3721 50.3635L88.687 48.3885ZM87.7885 49.5156C88.1984 48.5864 88.7761 47.8935 89.5163 47.4001L88.4069 45.7359C87.323 46.4585 86.5087 47.4616 85.9586 48.7084L87.7885 49.5156ZM89.5196 47.3978C90.2682 46.8945 91.1422 46.632 92.1776 46.632V44.632C90.781 44.632 89.511 44.9935 88.4036 45.7382L89.5196 47.3978ZM105.691 58.52L105.132 59.3493L105.142 59.3562L105.152 59.3629L105.691 58.52ZM104.059 56.288L103.114 56.6177L103.116 56.6224L104.059 56.288ZM104.011 48.584L103.062 48.2678L103.059 48.277L104.011 48.584ZM105.618 46.352L106.165 47.1896L105.618 46.352ZM111.691 46.472L111.187 47.3358L111.197 47.342L111.691 46.472ZM113.994 48.824L113.123 49.3143L113.126 49.3201L113.994 48.824ZM113.994 56.096L114.863 56.5921L114.866 56.5863L113.994 56.096ZM111.691 58.424L112.184 59.294L111.691 58.424ZM99.7625 63.656H98.7625V64.656H99.7625V63.656ZM99.7625 45.872V44.872H98.7625V45.872H99.7625ZM104.923 45.872H105.923V44.872H104.923V45.872ZM104.923 47.648H103.922L103.923 47.653L104.923 47.648ZM104.946 52.448L103.947 52.453L103.947 52.4755L103.948 52.4979L104.946 52.448ZM105.187 57.248H106.187V57.223L106.185 57.1981L105.187 57.248ZM105.187 63.656V64.656H106.187V63.656H105.187ZM108.306 54.728L108.821 55.5855L108.306 54.728ZM109.075 53.864L108.18 53.4168L109.075 53.864ZM109.075 51.008L108.18 51.4552V51.4552L109.075 51.008ZM105.379 51.008L106.273 51.4552V51.4552L105.379 51.008ZM105.379 53.864L106.273 53.4168L105.379 53.864ZM106.146 54.728L105.632 55.5855L106.146 54.728ZM108.522 58.24C107.525 58.24 106.781 58.0299 106.229 57.6771L105.152 59.3629C106.104 59.9701 107.248 60.24 108.522 60.24V58.24ZM106.249 57.6907C105.722 57.3354 105.295 56.7825 105.001 55.9536L103.116 56.6224C103.526 57.7775 104.187 58.7126 105.132 59.3493L106.249 57.6907ZM105.003 55.9583C104.7 55.0926 104.531 53.934 104.531 52.448H102.531C102.531 54.066 102.713 55.4674 103.114 56.6177L105.003 55.9583ZM104.531 52.448C104.531 50.9199 104.686 49.7465 104.962 48.891L103.059 48.277C102.695 49.4055 102.531 50.8081 102.531 52.448H104.531ZM104.959 48.9002C105.239 48.0602 105.655 47.522 106.165 47.1896L105.072 45.5144C104.11 46.142 103.454 47.0918 103.062 48.2678L104.959 48.9002ZM106.165 47.1896C106.689 46.8478 107.448 46.632 108.522 46.632V44.632C107.197 44.632 106.02 44.8962 105.072 45.5144L106.165 47.1896ZM108.522 46.632C109.504 46.632 110.385 46.8683 111.187 47.3358L112.194 45.6082C111.076 44.9557 109.845 44.632 108.522 44.632V46.632ZM111.197 47.342C111.989 47.7904 112.63 48.4383 113.123 49.3143L114.866 48.3337C114.207 47.1617 113.312 46.2416 112.184 45.602L111.197 47.342ZM113.126 49.3201C113.599 50.1479 113.859 51.1771 113.859 52.448H115.858C115.858 50.9029 115.542 49.5161 114.863 48.3279L113.126 49.3201ZM113.859 52.448C113.859 53.7183 113.599 54.7585 113.123 55.6057L114.866 56.5863C115.542 55.3855 115.858 53.9937 115.858 52.448H113.859ZM113.126 55.5999C112.635 56.4603 111.993 57.1033 111.197 57.554L112.184 59.294C113.308 58.6567 114.202 57.7477 114.863 56.5921L113.126 55.5999ZM111.197 57.554C110.395 58.009 109.51 58.24 108.522 58.24V60.24C109.839 60.24 111.066 59.927 112.184 59.294L111.197 57.554ZM100.763 63.656V45.872H98.7625V63.656H100.763ZM99.7625 46.872H104.923V44.872H99.7625V46.872ZM103.923 45.872V47.648H105.923V45.872H103.923ZM103.923 47.653L103.947 52.453L105.946 52.443L105.922 47.643L103.923 47.653ZM103.948 52.4979L104.188 57.2979L106.185 57.1981L105.945 52.3981L103.948 52.4979ZM104.187 57.248V63.656H106.187V57.248H104.187ZM105.187 62.656H99.7625V64.656H105.187V62.656ZM107.227 56.016C107.794 56.016 108.334 55.8775 108.821 55.5855L107.792 53.8705C107.639 53.9625 107.459 54.016 107.227 54.016V56.016ZM108.821 55.5855C109.327 55.2816 109.705 54.8391 109.969 54.3112L108.18 53.4168C108.06 53.6569 107.926 53.7904 107.792 53.8705L108.821 55.5855ZM109.969 54.3112C110.248 53.7527 110.362 53.1177 110.362 52.448H108.362C108.362 52.8983 108.285 53.2073 108.18 53.4168L109.969 54.3112ZM110.362 52.448C110.362 51.7674 110.25 51.1227 109.969 50.5608L108.18 51.4552C108.283 51.6613 108.362 51.9766 108.362 52.448H110.362ZM109.969 50.5608C109.705 50.0329 109.327 49.5904 108.821 49.2865L107.792 51.0015C107.926 51.0816 108.06 51.2151 108.18 51.4552L109.969 50.5608ZM108.821 49.2865C108.334 48.9945 107.794 48.856 107.227 48.856V50.856C107.459 50.856 107.639 50.9095 107.792 51.0015L108.821 49.2865ZM107.227 48.856C106.659 48.856 106.119 48.9945 105.632 49.2865L106.661 51.0015C106.814 50.9095 106.994 50.856 107.227 50.856V48.856ZM105.632 49.2865C105.126 49.5904 104.748 50.0329 104.484 50.5608L106.273 51.4552C106.393 51.2151 106.527 51.0816 106.661 51.0015L105.632 49.2865ZM104.484 50.5608C104.203 51.1227 104.09 51.7674 104.09 52.448H106.09C106.09 51.9766 106.17 51.6613 106.273 51.4552L104.484 50.5608ZM104.09 52.448C104.09 53.1177 104.205 53.7527 104.484 54.3112L106.273 53.4168C106.168 53.2073 106.09 52.8983 106.09 52.448H104.09ZM104.484 54.3112C104.748 54.8391 105.126 55.2816 105.632 55.5855L106.661 53.8705C106.527 53.7904 106.393 53.6569 106.273 53.4168L104.484 54.3112ZM105.632 55.5855C106.119 55.8775 106.659 56.016 107.227 56.016V54.016C106.994 54.016 106.814 53.9625 106.661 53.8705L105.632 55.5855ZM116.567 59H115.567V60H116.567V59ZM116.567 41.192V40.192H115.567V41.192H116.567ZM121.991 41.192H122.991V40.192H121.991V41.192ZM121.991 59V60H122.991V59H121.991ZM117.567 59V41.192H115.567V59H117.567ZM116.567 42.192H121.991V40.192H116.567V42.192ZM120.991 41.192V59H122.991V41.192H120.991ZM121.991 58H116.567V60H121.991V58ZM127.443 58.352L126.996 59.2464L127.001 59.2488L127.443 58.352ZM124.683 55.928L123.837 56.4615L123.841 56.4674L124.683 55.928ZM124.659 48.896L123.817 48.3565L123.811 48.366L124.659 48.896ZM127.323 46.496L126.871 45.6041L126.866 45.6067L127.323 46.496ZM134.715 46.4L134.29 47.3048L134.295 47.3072L134.715 46.4ZM137.355 48.68L136.517 49.2255L136.523 49.2347L137.355 48.68ZM138.339 53.072L139.337 53.1432L139.337 53.1385L138.339 53.072ZM138.291 53.696V54.696H139.211L139.288 53.779L138.291 53.696ZM128.187 53.696H127.187V54.696H128.187V53.696ZM128.187 51.08V50.08H127.187V51.08H128.187ZM135.411 51.08L135.734 52.0264L135.411 50.08V51.08ZM133.371 51.776H132.371V53.1738L133.694 52.7224L133.371 51.776ZM133.083 50.48L132.181 50.9115L132.193 50.9355L132.205 50.9589L133.083 50.48ZM132.339 49.64L131.794 50.4784L131.809 50.4882L131.825 50.4975L132.339 49.64ZM130.011 49.64L130.526 50.4976L130.538 50.4903L130.011 49.64ZM129.267 50.48L130.162 50.9272L130.166 50.9194L130.169 50.9115L129.267 50.48ZM129.339 54.032L130.212 53.5434L129.339 54.032ZM130.299 54.944L129.852 55.8384L129.866 55.8454L129.88 55.852L130.299 54.944ZM133.299 54.992L132.928 54.0635L132.921 54.0662L132.915 54.0689L133.299 54.992ZM134.547 54.272L135.257 53.5679L134.648 52.9531L133.952 53.4684L134.547 54.272ZM137.379 57.128L138.111 57.8091L138.766 57.1059L138.089 56.4239L137.379 57.128ZM135.003 58.712L135.358 59.647L135.367 59.6437L135.003 58.712ZM131.643 58.24C130.167 58.24 128.924 57.9673 127.886 57.4552L127.001 59.2488C128.363 59.9207 129.92 60.24 131.643 60.24V58.24ZM127.891 57.4576C126.853 56.9388 126.076 56.2475 125.525 55.3886L123.841 56.4674C124.603 57.6565 125.666 58.5812 126.996 59.2464L127.891 57.4576ZM125.529 55.3945C124.979 54.523 124.699 53.5419 124.699 52.424H122.699C122.699 53.8981 123.075 55.253 123.838 56.4615L125.529 55.3945ZM124.699 52.424C124.699 51.2641 124.976 50.2754 125.507 49.426L123.811 48.366C123.062 49.5646 122.699 50.9279 122.699 52.424H124.699ZM125.501 49.4354C126.059 48.5654 126.812 47.8836 127.781 47.3853L126.866 45.6067C125.595 46.2604 124.572 47.1786 123.817 48.3566L125.501 49.4354ZM127.776 47.3879C128.757 46.8902 129.872 46.632 131.139 46.632V44.632C129.591 44.632 128.162 44.9498 126.871 45.6041L127.776 47.3879ZM131.139 46.632C132.3 46.632 133.345 46.8603 134.29 47.3048L135.141 45.4952C133.91 44.9157 132.571 44.632 131.139 44.632V46.632ZM134.295 47.3072C135.23 47.7412 135.965 48.3768 136.517 49.2255L138.193 48.1345C137.434 46.9672 136.408 46.0828 135.136 45.4928L134.295 47.3072ZM136.523 49.2347C137.063 50.0443 137.363 51.088 137.363 52.424H139.363C139.363 50.784 138.992 49.3317 138.187 48.1253L136.523 49.2347ZM137.363 52.424C137.363 52.5891 137.356 52.7824 137.342 53.0055L139.337 53.1385C139.354 52.8816 139.363 52.6429 139.363 52.424H137.363ZM137.342 53.0008C137.326 53.2214 137.31 53.4255 137.295 53.6129L139.288 53.779C139.304 53.5825 139.321 53.3706 139.337 53.1432L137.342 53.0008ZM138.291 52.696H128.187V54.696H138.291V52.696ZM129.187 53.696V51.08H127.187V53.696H129.187ZM128.187 52.08H135.411V50.08H128.187V52.08ZM135.088 50.1336L133.048 50.8296L133.694 52.7224L135.734 52.0264L135.088 50.1336ZM134.371 51.776C134.371 51.1419 134.253 50.5352 133.961 50.0011L132.205 50.9589C132.298 51.1288 132.371 51.3861 132.371 51.776H134.371ZM133.985 50.0485C133.733 49.5208 133.358 49.0848 132.854 48.7825L131.825 50.4975C131.961 50.5792 132.082 50.7032 132.181 50.9115L133.985 50.0485ZM132.884 48.8016C132.376 48.4709 131.795 48.328 131.187 48.328V50.328C131.476 50.328 131.663 50.3931 131.794 50.4784L132.884 48.8016ZM131.187 48.328C130.579 48.328 129.999 48.4713 129.485 48.7897L130.538 50.4903C130.695 50.3927 130.9 50.328 131.187 50.328V48.328ZM129.497 48.7825C128.993 49.0848 128.618 49.5208 128.365 50.0485L130.169 50.9115C130.269 50.7032 130.39 50.5792 130.526 50.4975L129.497 48.7825ZM128.373 50.0328C128.11 50.559 128.003 51.1538 128.003 51.776H130.003C130.003 51.3742 130.073 51.105 130.162 50.9272L128.373 50.0328ZM128.003 51.776V52.592H130.003V51.776H128.003ZM128.003 52.592C128.003 53.2855 128.143 53.9416 128.467 54.5206L130.212 53.5434C130.088 53.3224 130.003 53.0185 130.003 52.592H128.003ZM128.467 54.5206C128.79 55.0981 129.26 55.5422 129.852 55.8384L130.747 54.0496C130.507 53.9298 130.336 53.7659 130.212 53.5434L128.467 54.5206ZM129.88 55.852C130.46 56.1196 131.115 56.232 131.811 56.232V54.232C131.323 54.232 130.971 54.1524 130.718 54.036L129.88 55.852ZM131.811 56.232C132.496 56.232 133.135 56.1436 133.684 55.9151L132.915 54.0689C132.695 54.1604 132.343 54.232 131.811 54.232V56.232ZM133.671 55.9205C134.167 55.7219 134.658 55.4346 135.143 55.0756L133.952 53.4684C133.573 53.7494 133.231 53.9421 132.928 54.0635L133.671 55.9205ZM133.837 54.9761L136.669 57.8321L138.089 56.4239L135.257 53.5679L133.837 54.9761ZM136.647 56.4469C136.118 57.0162 135.455 57.4626 134.64 57.7803L135.367 59.6437C136.44 59.2254 137.361 58.6158 138.111 57.8091L136.647 56.4469ZM134.649 57.777C133.864 58.0747 132.871 58.24 131.643 58.24V60.24C133.04 60.24 134.287 60.0533 135.358 59.647L134.649 57.777Z" fill="url(#paint2_linear_56_1005)"/>
</g>
<defs>
<filter id="filter0_d_56_1005" x="4.51999" y="14.4536" width="216.367" height="136.4" filterUnits="userSpaceOnUse" color-interpolation-filters="sRGB">
<feFlood flood-opacity="0" result="BackgroundImageFix"/>
<feColorMatrix in="SourceAlpha" type="matrix" values="0 0 0 0 0 0 0 0 0 0 0 0 0 0 0 0 0 0 127 0" result="hardAlpha"/>
<feOffset dy="10"/>
<feGaussianBlur stdDeviation="25"/>
<feComposite in2="hardAlpha" operator="out"/>
<feColorMatrix type="matrix" values="0 0 0 0 0 0 0 0 0 0 0 0 0 0 0 0 0 0 0.4 0"/>
<feBlend mode="normal" in2="BackgroundImageFix" result="effect1_dropShadow_56_1005"/>
<feBlend mode="normal" in="SourceGraphic" in2="effect1_dropShadow_56_1005" result="shape"/>
</filter>
<filter id="filter1_d_56_1005" x="0.312012" y="-0.703979" width="188.051" height="124.36" filterUnits="userSpaceOnUse" color-interpolation-filters="sRGB">
<feFlood flood-opacity="0" result="BackgroundImageFix"/>
<feColorMatrix in="SourceAlpha" type="matrix" values="0 0 0 0 0 0 0 0 0 0 0 0 0 0 0 0 0 0 127 0" result="hardAlpha"/>
<feOffset dy="10"/>
<feGaussianBlur stdDeviation="25"/>
<feComposite in2="hardAlpha" operator="out"/>
<feColorMatrix type="matrix" values="0 0 0 0 0 0 0 0 0 0 0 0 0 0 0 0 0 0 0.4 0"/>
<feBlend mode="normal" in2="BackgroundImageFix" result="effect1_dropShadow_56_1005"/>
<feBlend mode="normal" in="SourceGraphic" in2="effect1_dropShadow_56_1005" result="shape"/>
</filter>
<linearGradient id="paint0_linear_56_1005" x1="115.5" y1="44.0936" x2="115.5" y2="103.736" gradientUnits="userSpaceOnUse">
<stop stop-color="#30A6E9"/>
<stop offset="1" stop-color="#660CAC"/>
</linearGradient>
<linearGradient id="paint1_linear_56_1005" x1="98.5" y1="36" x2="98.5" y2="62.3042" gradientUnits="userSpaceOnUse">
<stop stop-color="white"/>
<stop offset="1" stop-color="#D5A0FF"/>
</linearGradient>
<linearGradient id="paint2_linear_56_1005" x1="98.5" y1="36" x2="98.5" y2="62.3042" gradientUnits="userSpaceOnUse">
<stop stop-color="#30A6E9"/>
<stop offset="1" stop-color="#751CBA"/>
</linearGradient>
</defs>
</svg>

