<svg width="18" height="24" viewBox="0 0 18 24" fill="none" xmlns="http://www.w3.org/2000/svg">
<path d="M0.666626 23.6666V20.3333H3.99996V23.6666H0.666626ZM7.33329 23.6666V20.3333H10.6666V23.6666H7.33329ZM14 23.6666V20.3333H17.3333V23.6666H14ZM0.666626 17V13.6666H3.99996V17H0.666626ZM7.33329 17V13.6666H10.6666V17H7.33329ZM14 17V13.6666H17.3333V17H14ZM0.666626 10.3333V6.99998H3.99996V10.3333H0.666626ZM7.33329 10.3333V6.99998H10.6666V10.3333H7.33329ZM14 10.3333V6.99998H17.3333V10.3333H14ZM0.666626 3.66665V0.333313H3.99996V3.66665H0.666626ZM7.33329 3.66665V0.333313H10.6666V3.66665H7.33329ZM14 3.66665V0.333313H17.3333V3.66665H14Z" fill="white"/>
</svg>
