<svg width="300" height="120" viewBox="0 0 300 120" fill="none" xmlns="http://www.w3.org/2000/svg">
<g filter="url(#filter0_ddd_54_803)">
<rect x="20" y="20" width="240" height="60" rx="18" fill="#182630"/>
<rect x="20" y="20" width="240" height="60" rx="18" fill="url(#paint0_radial_54_803)" fill-opacity="0.3"/>
</g>
<path d="M72.1047 32.5893H68.5847V31.5013H77.1767V32.5893H73.6727V41.8853H72.1047V32.5893ZM78.8081 30.6853H80.2481V35.0853C80.3974 34.3493 81.2454 33.9813 82.7921 33.9813C83.7841 33.9813 84.4774 34.1626 84.8721 34.5253C85.2774 34.8773 85.4801 35.4373 85.4801 36.2053V41.8853H84.0401V36.3013C84.0401 36.0986 84.0241 35.9333 83.9921 35.8053C83.9601 35.6773 83.8961 35.5493 83.8001 35.4213C83.5867 35.1546 83.1121 35.0213 82.3761 35.0213C81.7894 35.0213 81.3414 35.0639 81.0321 35.1493C80.7334 35.2239 80.5254 35.3519 80.4081 35.5333C80.3014 35.7146 80.2481 35.9706 80.2481 36.3013V41.8853H78.8081V30.6853ZM90.6679 42.0453C89.6759 42.0453 88.9773 41.8693 88.5719 41.5173C88.1773 41.1546 87.9799 40.5893 87.9799 39.8213V34.1413H89.4199V39.7413C89.4199 39.9439 89.4359 40.1093 89.4679 40.2373C89.5106 40.3546 89.5799 40.4773 89.6759 40.6053C89.8679 40.8826 90.3373 41.0213 91.0839 41.0213C91.8733 41.0213 92.4279 40.9466 92.7479 40.7973C93.0573 40.6479 93.2119 40.3759 93.2119 39.9813V34.1413H94.6519V41.8853H93.2119V40.9413C93.0733 41.6773 92.2253 42.0453 90.6679 42.0453ZM97.1518 34.1413H98.5118V35.4053C98.5118 35.1599 98.6185 34.9306 98.8318 34.7173C99.0451 34.4933 99.3171 34.3173 99.6478 34.1893C99.9785 34.0506 100.304 33.9813 100.624 33.9813H101.328V35.2133H100.528C99.8451 35.2133 99.3491 35.3039 99.0398 35.4853C98.7411 35.6559 98.5918 35.9706 98.5918 36.4293V41.8853H97.1518V34.1413ZM105.129 42.0453C104.308 42.0453 103.423 41.9813 102.473 41.8533V40.7493C103.721 40.9519 104.617 41.0533 105.161 41.0533C105.844 41.0533 106.335 40.9893 106.633 40.8613C106.932 40.7226 107.081 40.4719 107.081 40.1093V39.3253C107.081 38.9946 106.969 38.7599 106.745 38.6213C106.521 38.4826 106.159 38.4133 105.657 38.4133H104.777C103.977 38.4133 103.364 38.2479 102.937 37.9173C102.521 37.5866 102.313 37.1226 102.313 36.5253V35.8053C102.313 34.5893 103.465 33.9813 105.769 33.9813C105.94 33.9813 106.724 34.0239 108.121 34.1093V35.1493C107.172 34.9999 106.367 34.9253 105.705 34.9253C104.948 34.9253 104.431 34.9999 104.153 35.1493C103.876 35.2986 103.737 35.5493 103.737 35.9013V36.5573C103.737 37.0799 104.212 37.3413 105.161 37.3413H106.057C107.689 37.3413 108.505 37.9493 108.505 39.1653V39.8373C108.505 40.6373 108.228 41.2079 107.673 41.5493C107.119 41.8799 106.271 42.0453 105.129 42.0453ZM113.744 42.0453C113.082 42.0453 112.565 41.9759 112.192 41.8373C111.818 41.6879 111.546 41.4426 111.376 41.1013C111.216 40.7493 111.136 40.2586 111.136 39.6293V35.0853H109.408V34.1413H111.136V31.7413H112.592V34.1413H115.36V35.0853H112.592V39.7093C112.592 40.0933 112.634 40.3813 112.72 40.5733C112.816 40.7653 112.976 40.9039 113.2 40.9893C113.434 41.0639 113.77 41.1013 114.208 41.1013C114.346 41.1013 114.73 41.0586 115.36 40.9733V41.9173C114.816 42.0026 114.277 42.0453 113.744 42.0453ZM116.933 34.1413H118.357V34.9733H118.373C118.49 34.3119 119.37 33.9813 121.013 33.9813C121.994 33.9813 122.736 34.1893 123.237 34.6053C123.738 35.0106 123.989 35.5333 123.989 36.1733V39.3573C123.989 39.8159 123.92 40.2159 123.781 40.5573C123.653 40.8986 123.482 41.1653 123.269 41.3573C123.077 41.5386 122.81 41.6826 122.469 41.7893C122.138 41.8959 121.808 41.9653 121.477 41.9973C121.178 42.0293 120.816 42.0453 120.389 42.0453C119.92 42.0453 119.488 41.9919 119.093 41.8853C118.709 41.7679 118.469 41.6026 118.373 41.3893V45.2133H116.933V34.1413ZM120.421 41.0693C120.976 41.0693 121.397 41.0319 121.685 40.9573C121.984 40.8719 122.197 40.7226 122.325 40.5093C122.453 40.2959 122.517 39.9706 122.517 39.5333V36.6853C122.517 36.2053 122.453 35.8479 122.325 35.6133C122.197 35.3786 121.984 35.2239 121.685 35.1493C121.397 35.0639 120.97 35.0213 120.405 35.0213C119.84 35.0213 119.418 35.0639 119.141 35.1493C118.864 35.2239 118.666 35.3786 118.549 35.6133C118.432 35.8373 118.373 36.1946 118.373 36.6853V39.5333C118.373 39.9706 118.432 40.2959 118.549 40.5093C118.677 40.7226 118.885 40.8719 119.173 40.9573C119.461 41.0319 119.877 41.0693 120.421 41.0693ZM126.199 31.3413H127.639V32.8453H126.199V31.3413ZM126.199 34.1413H127.639V41.8853H126.199V34.1413ZM130.136 30.6853H131.576V41.8853H130.136V30.6853ZM137.354 42.0453C136.671 42.0453 136.159 42.0186 135.818 41.9653C135.476 41.9226 135.135 41.8213 134.794 41.6613C134.442 41.5013 134.186 41.2453 134.026 40.8933C133.866 40.5306 133.786 40.0453 133.786 39.4373V36.7493C133.786 36.2693 133.844 35.8479 133.962 35.4853C134.079 35.1226 134.234 34.8399 134.426 34.6373C134.586 34.4559 134.826 34.3173 135.146 34.2213C135.476 34.1146 135.812 34.0453 136.154 34.0133C136.538 33.9919 136.938 33.9813 137.354 33.9813C137.908 33.9813 138.324 33.9973 138.602 34.0293C138.89 34.0506 139.194 34.1039 139.514 34.1893C139.844 34.2853 140.1 34.4293 140.282 34.6213C140.463 34.8133 140.618 35.0906 140.746 35.4533C140.863 35.8266 140.922 36.2586 140.922 36.7493V39.4373C140.922 40.3439 140.714 41.0053 140.298 41.4213C140.127 41.5919 139.882 41.7253 139.562 41.8213C139.242 41.9173 138.911 41.9813 138.57 42.0133C138.164 42.0346 137.759 42.0453 137.354 42.0453ZM137.354 41.1013C137.802 41.1013 138.127 41.0906 138.33 41.0693C138.532 41.0479 138.73 40.9893 138.922 40.8933C139.114 40.8079 139.247 40.6693 139.322 40.4773C139.407 40.2746 139.45 39.9973 139.45 39.6453V36.5093C139.45 36.0293 139.391 35.6826 139.274 35.4693C139.156 35.2453 138.954 35.1013 138.666 35.0373C138.388 34.9626 137.951 34.9253 137.354 34.9253C136.756 34.9253 136.314 34.9626 136.026 35.0373C135.748 35.1013 135.551 35.2453 135.434 35.4693C135.316 35.6826 135.258 36.0293 135.258 36.5093V39.6453C135.258 39.9973 135.295 40.2746 135.37 40.4773C135.455 40.6693 135.594 40.8079 135.786 40.8933C135.978 40.9893 136.175 41.0479 136.378 41.0693C136.58 41.0906 136.906 41.1013 137.354 41.1013ZM146.415 42.0453C145.754 42.0453 145.237 41.9759 144.863 41.8373C144.49 41.6879 144.218 41.4426 144.047 41.1013C143.887 40.7493 143.807 40.2586 143.807 39.6293V35.0853H142.079V34.1413H143.807V31.7413H145.263V34.1413H148.031V35.0853H145.263V39.7093C145.263 40.0933 145.306 40.3813 145.391 40.5733C145.487 40.7653 145.647 40.9039 145.871 40.9893C146.106 41.0639 146.442 41.1013 146.879 41.1013C147.018 41.1013 147.402 41.0586 148.031 40.9733V41.9173C147.487 42.0026 146.949 42.0453 146.415 42.0453Z" fill="white"/>
<path d="M146.867 56.0914H153.843V57.1794H148.419V60.5714H153.315V61.6594H148.419V65.3874H154.003V66.4754H146.867V56.0914ZM157.844 62.4914L155.124 58.7314H156.708L158.628 61.5634L160.564 58.7314H162.148L159.428 62.4914L162.308 66.4754H160.724L158.628 63.4194L156.548 66.4754H154.964L157.844 62.4914ZM166.828 66.6354C166.295 66.6354 165.906 66.6247 165.66 66.6034C165.426 66.5821 165.154 66.5287 164.844 66.4434C164.514 66.3581 164.258 66.2301 164.076 66.0594C163.895 65.8887 163.74 65.6381 163.612 65.3074C163.484 64.9874 163.42 64.5874 163.42 64.1074V61.2594C163.42 60.3954 163.586 59.7767 163.916 59.4034C164.098 59.1901 164.279 59.0301 164.46 58.9234C164.652 58.8061 164.898 58.7261 165.196 58.6834C165.495 58.6407 165.762 58.6141 165.996 58.6034C166.231 58.5821 166.562 58.5714 166.988 58.5714C167.724 58.5714 168.46 58.6514 169.196 58.8114V59.8674C168.343 59.6541 167.548 59.5474 166.812 59.5474C166.258 59.5474 165.847 59.5901 165.58 59.6754C165.324 59.7501 165.143 59.8941 165.036 60.1074C164.94 60.3101 164.892 60.6247 164.892 61.0514V64.2194C164.892 64.6141 164.946 64.9074 165.052 65.0994C165.17 65.2914 165.372 65.4301 165.66 65.5154C165.959 65.5901 166.396 65.6274 166.972 65.6274C167.751 65.6274 168.53 65.5261 169.308 65.3234V66.4114C168.583 66.5607 167.756 66.6354 166.828 66.6354ZM174.394 66.6354C172.026 66.6354 170.842 65.8461 170.842 64.2674V61.2114C170.842 60.2727 171.109 59.6007 171.642 59.1954C172.186 58.7794 173.061 58.5714 174.266 58.5714C175.408 58.5714 176.229 58.7687 176.73 59.1634C177.242 59.5581 177.498 60.2407 177.498 61.2114V62.9234H172.298V64.0914C172.298 64.6247 172.485 65.0087 172.858 65.2434C173.232 65.4781 173.808 65.5954 174.586 65.5954C175.322 65.5954 176.192 65.4674 177.194 65.2114V66.3154C176.213 66.5287 175.28 66.6354 174.394 66.6354ZM176.058 61.9794V60.7634C176.058 60.2941 175.914 59.9741 175.626 59.8034C175.349 59.6221 174.869 59.5314 174.186 59.5314C173.525 59.5314 173.045 59.6221 172.746 59.8034C172.448 59.9741 172.298 60.2941 172.298 60.7634V61.9794H176.058ZM179.693 55.2754H181.133V66.4754H179.693V55.2754ZM183.63 55.2754H185.07V66.4754H183.63V55.2754ZM190.832 66.6354C188.464 66.6354 187.28 65.8461 187.28 64.2674V61.2114C187.28 60.2727 187.546 59.6007 188.08 59.1954C188.624 58.7794 189.498 58.5714 190.704 58.5714C191.845 58.5714 192.666 58.7687 193.168 59.1634C193.68 59.5581 193.936 60.2407 193.936 61.2114V62.9234H188.736V64.0914C188.736 64.6247 188.922 65.0087 189.296 65.2434C189.669 65.4781 190.245 65.5954 191.024 65.5954C191.76 65.5954 192.629 65.4674 193.632 65.2114V66.3154C192.65 66.5287 191.717 66.6354 190.832 66.6354ZM192.496 61.9794V60.7634C192.496 60.2941 192.352 59.9741 192.064 59.8034C191.786 59.6221 191.306 59.5314 190.624 59.5314C189.962 59.5314 189.482 59.6221 189.184 59.8034C188.885 59.9741 188.736 60.2941 188.736 60.7634V61.9794H192.496ZM196.13 58.7314H197.57V59.6754C197.72 58.9394 198.568 58.5714 200.114 58.5714C201.106 58.5714 201.8 58.7527 202.194 59.1154C202.6 59.4674 202.802 60.0274 202.802 60.7954V66.4754H201.362V60.8754C201.362 60.6727 201.346 60.5074 201.314 60.3794C201.282 60.2514 201.218 60.1234 201.122 59.9954C200.909 59.7287 200.434 59.5954 199.698 59.5954C199.133 59.5954 198.696 59.6381 198.386 59.7234C198.088 59.7981 197.874 59.9261 197.746 60.1074C197.629 60.2887 197.57 60.5447 197.57 60.8754V66.4754H196.13V58.7314ZM208.55 66.6354C207.889 66.6354 207.372 66.5661 206.998 66.4274C206.625 66.2781 206.353 66.0327 206.182 65.6914C206.022 65.3394 205.942 64.8487 205.942 64.2194V59.6754H204.214V58.7314H205.942V56.3314H207.398V58.7314H210.166V59.6754H207.398V64.2994C207.398 64.6834 207.441 64.9714 207.526 65.1634C207.622 65.3554 207.782 65.4941 208.006 65.5794C208.241 65.6541 208.577 65.6914 209.014 65.6914C209.153 65.6914 209.537 65.6487 210.166 65.5634V66.5074C209.622 66.5927 209.084 66.6354 208.55 66.6354Z" fill="white"/>
<g filter="url(#filter1_d_54_803)">
<path d="M222.296 44.2697L232.084 36.1798L241.873 44.2697" stroke="#00B0CE" stroke-width="4" stroke-linecap="round"/>
</g>
<g filter="url(#filter2_d_54_803)">
<path d="M222.296 64.4944L232.084 56.4045L241.873 64.4944" stroke="#00B0CE" stroke-width="4" stroke-linecap="round"/>
</g>
<g filter="url(#filter3_d_54_803)">
<path d="M222.296 54.382L232.084 46.2921L241.873 54.382" stroke="#00B0CE" stroke-width="4" stroke-linecap="round"/>
</g>
<path d="M61.6667 64.5L65.7867 68L64.6933 63.3133L68.3333 60.16L63.54 59.7466L61.6667 55.3333L59.7933 59.7466L55 60.16L58.6333 63.3133L57.5467 68L61.6667 64.5Z" fill="#859AB5"/>
<path d="M79.3332 64.1667L83.4532 67.6667L82.3598 62.98L85.9998 59.8267L81.2065 59.4133L79.3332 55L77.4598 59.4133L72.6665 59.8267L76.2998 62.98L75.2132 67.6667L79.3332 64.1667Z" fill="#859AB5"/>
<path d="M97.3332 64.1667L101.453 67.6667L100.36 62.98L104 59.8267L99.2065 59.4133L97.3332 55L95.4598 59.4133L90.6665 59.8267L94.2998 62.98L93.2132 67.6667L97.3332 64.1667Z" fill="#859AB5"/>
<path d="M115.333 64.1667L119.453 67.6667L118.36 62.98L122 59.8267L117.207 59.4133L115.333 55L113.46 59.4133L108.667 59.8267L112.3 62.98L111.213 67.6667L115.333 64.1667Z" fill="#859AB5"/>
<path d="M133.333 64.1667L137.453 67.6667L136.36 62.98L140 59.8267L135.207 59.4133L133.333 55L131.46 59.4133L126.667 59.8267L130.3 62.98L129.213 67.6667L133.333 64.1667Z" fill="#859AB5"/>
<path d="M49.5 39.7375L44.8 42.575L46.0375 37.225L41.8875 33.625L47.3625 33.1625L49.5 28.1125L51.6375 33.1625L57.1125 33.625L52.9625 37.225L54.2 42.575L49.5 39.7375ZM62 32.05L53.0125 31.2875L49.5 23L45.9875 31.2875L37 32.05L43.8125 37.9625L41.775 46.75L49.5 42.0875L57.225 46.75L55.175 37.9625L62 32.05Z" fill="#FF8F8F"/>
<defs>
<filter id="filter0_ddd_54_803" x="0" y="0" width="300" height="120" filterUnits="userSpaceOnUse" color-interpolation-filters="sRGB">
<feFlood flood-opacity="0" result="BackgroundImageFix"/>
<feColorMatrix in="SourceAlpha" type="matrix" values="0 0 0 0 0 0 0 0 0 0 0 0 0 0 0 0 0 0 127 0" result="hardAlpha"/>
<feOffset dx="10" dy="10"/>
<feGaussianBlur stdDeviation="15"/>
<feComposite in2="hardAlpha" operator="out"/>
<feColorMatrix type="matrix" values="0 0 0 0 0 0 0 0 0 0 0 0 0 0 0 0 0 0 0.4 0"/>
<feBlend mode="normal" in2="BackgroundImageFix" result="effect1_dropShadow_54_803"/>
<feColorMatrix in="SourceAlpha" type="matrix" values="0 0 0 0 0 0 0 0 0 0 0 0 0 0 0 0 0 0 127 0" result="hardAlpha"/>
<feOffset dx="3" dy="3"/>
<feGaussianBlur stdDeviation="2"/>
<feComposite in2="hardAlpha" operator="out"/>
<feColorMatrix type="matrix" values="0 0 0 0 0 0 0 0 0 0 0 0 0 0 0 0 0 0 0.1 0"/>
<feBlend mode="normal" in2="effect1_dropShadow_54_803" result="effect2_dropShadow_54_803"/>
<feColorMatrix in="SourceAlpha" type="matrix" values="0 0 0 0 0 0 0 0 0 0 0 0 0 0 0 0 0 0 127 0" result="hardAlpha"/>
<feOffset dx="-4" dy="-4"/>
<feGaussianBlur stdDeviation="5"/>
<feComposite in2="hardAlpha" operator="out"/>
<feColorMatrix type="matrix" values="0 0 0 0 0.2 0 0 0 0 0.316667 0 0 0 0 0.4 0 0 0 0.5 0"/>
<feBlend mode="normal" in2="effect2_dropShadow_54_803" result="effect3_dropShadow_54_803"/>
<feBlend mode="normal" in="SourceGraphic" in2="effect3_dropShadow_54_803" result="shape"/>
</filter>
<filter id="filter1_d_54_803" x="210.296" y="23.5851" width="43.5771" height="32.6846" filterUnits="userSpaceOnUse" color-interpolation-filters="sRGB">
<feFlood flood-opacity="0" result="BackgroundImageFix"/>
<feColorMatrix in="SourceAlpha" type="matrix" values="0 0 0 0 0 0 0 0 0 0 0 0 0 0 0 0 0 0 127 0" result="hardAlpha"/>
<feOffset/>
<feGaussianBlur stdDeviation="5"/>
<feComposite in2="hardAlpha" operator="out"/>
<feColorMatrix type="matrix" values="0 0 0 0 0 0 0 0 0 0.690196 0 0 0 0 0.807843 0 0 0 0.5 0"/>
<feBlend mode="normal" in2="BackgroundImageFix" result="effect1_dropShadow_54_803"/>
<feBlend mode="normal" in="SourceGraphic" in2="effect1_dropShadow_54_803" result="shape"/>
</filter>
<filter id="filter2_d_54_803" x="210.296" y="43.8098" width="43.5771" height="32.6846" filterUnits="userSpaceOnUse" color-interpolation-filters="sRGB">
<feFlood flood-opacity="0" result="BackgroundImageFix"/>
<feColorMatrix in="SourceAlpha" type="matrix" values="0 0 0 0 0 0 0 0 0 0 0 0 0 0 0 0 0 0 127 0" result="hardAlpha"/>
<feOffset/>
<feGaussianBlur stdDeviation="5"/>
<feComposite in2="hardAlpha" operator="out"/>
<feColorMatrix type="matrix" values="0 0 0 0 0 0 0 0 0 0.690196 0 0 0 0 0.807843 0 0 0 0.5 0"/>
<feBlend mode="normal" in2="BackgroundImageFix" result="effect1_dropShadow_54_803"/>
<feBlend mode="normal" in="SourceGraphic" in2="effect1_dropShadow_54_803" result="shape"/>
</filter>
<filter id="filter3_d_54_803" x="210.296" y="33.6974" width="43.5771" height="32.6846" filterUnits="userSpaceOnUse" color-interpolation-filters="sRGB">
<feFlood flood-opacity="0" result="BackgroundImageFix"/>
<feColorMatrix in="SourceAlpha" type="matrix" values="0 0 0 0 0 0 0 0 0 0 0 0 0 0 0 0 0 0 127 0" result="hardAlpha"/>
<feOffset/>
<feGaussianBlur stdDeviation="5"/>
<feComposite in2="hardAlpha" operator="out"/>
<feColorMatrix type="matrix" values="0 0 0 0 0 0 0 0 0 0.690196 0 0 0 0 0.807843 0 0 0 0.5 0"/>
<feBlend mode="normal" in2="BackgroundImageFix" result="effect1_dropShadow_54_803"/>
<feBlend mode="normal" in="SourceGraphic" in2="effect1_dropShadow_54_803" result="shape"/>
</filter>
<radialGradient id="paint0_radial_54_803" cx="0" cy="0" r="1" gradientUnits="userSpaceOnUse" gradientTransform="translate(10.9366 74.3038) rotate(-9.02801) scale(196.024 228.345)">
<stop stop-color="#00B0CE"/>
<stop offset="1" stop-opacity="0"/>
</radialGradient>
</defs>
</svg>
